<svg xmlns="http://www.w3.org/2000/svg" viewBox="0 0 279 102"><defs><style>.cls-1{fill:#53381d;}.cls-2{fill:#963;}.cls-3{fill:#ca9560;}.cls-4{fill:#af753b;}.cls-5{fill:#412c17;}.cls-6{fill:#ffef01;}.cls-7{fill:#ff0;}.cls-8{fill:#fa0;}.cls-9{fill:#f7c600;}.cls-10{fill:#ffe10f;}</style></defs><title>cointCnt</title><g id="Layer_2" data-name="Layer 2"><g id="svg2"><g id="g8094"><circle id="circle8096" class="cls-1" cx="49" cy="53" r="49"/><g id="g8098"><g id="g8100"><path id="path8102" class="cls-1" d="M53,18H260a16.85,16.85,0,0,1,17,17V71c0,10-8,18-17,18H53c-9,0-17-8-17-18V35A16.85,16.85,0,0,1,53,18Z"/><path id="path8104" class="cls-2" d="M53,14H260c9,0,17,8,17,17V68c0,9-8,17-17,17H53c-9,0-17-8-17-17V31C36,22,44,14,53,14Z"/><path id="path8106" class="cls-3" d="M54,15H259c9,0,17,8,17,17V67c0,9-8,17-17,17H54c-9,0-16-8-16-17V32C38,23,45,15,54,15Z"/><path id="path8108" class="cls-4" d="M54,16H259c9,0,17,7,17,16V67c0,9-8,16-17,16H54A15.8,15.8,0,0,1,38,67V32A15.8,15.8,0,0,1,54,16Z"/><path id="path8110" class="cls-5" d="M56,18H258a15.38,15.38,0,0,1,15,15V66a15.38,15.38,0,0,1-15,15H56c-9,0-16-7-16-15V33C40,25,47,18,56,18Z"/></g><g id="g8112"><path id="path8114" class="cls-1" d="M49,14H60V28a9,9,0,0,1-9,9H34V29A15.38,15.38,0,0,1,49,14Z"/><path id="path8116" class="cls-2" d="M49,12h9l2,2V26a9,9,0,0,1-9,9H34V27A15.38,15.38,0,0,1,49,12Z"/><path id="path8118" class="cls-4" d="M59,14h1V26a9,9,0,0,1-9,9H36V29A15.38,15.38,0,0,1,51,14Z"/><circle id="circle8120" class="cls-3" cx="52" cy="28" r="4"/><polygon id="polygon8122" class="cls-1" points="36 41 34 39 34 35 36 35 36 41"/><polygon id="polygon8124" class="cls-2" points="34 35 34 37 36 35 35 35 34 35"/><polygon id="polygon8126" class="cls-1" points="36 38 38 37 36 37 36 38"/><path id="path8128" class="cls-3" d="M59,14H51A15.38,15.38,0,0,0,36,29v6h0V29A15.38,15.38,0,0,1,51,14Z"/><circle id="circle8130" class="cls-1" cx="52" cy="28" r="4"/><circle id="circle8132" class="cls-2" cx="52" cy="28" r="3"/></g><g id="g8134"><path id="path8136" class="cls-1" d="M264,14H254V28a9,9,0,0,0,9,9h16V29A14.73,14.73,0,0,0,264,14Z"/><path id="path8138" class="cls-2" d="M264,12h-8l-2,2V26a9,9,0,0,0,9,9h16V27A14.73,14.73,0,0,0,264,12Z"/><path id="path8140" class="cls-4" d="M254,14h0V26a9,9,0,0,0,9,9h15V29a15.38,15.38,0,0,0-15-15Z"/><circle id="circle8142" class="cls-3" cx="262" cy="28" r="4"/><polygon id="polygon8144" class="cls-1" points="277 41 279 39 279 35 277 35 277 41"/><polygon id="polygon8146" class="cls-2" points="279 35 279 37 278 35 279 35"/><polygon id="polygon8148" class="cls-1" points="277 38 276 37 277 37 277 38"/><path id="path8150" class="cls-3" d="M254,14h8a14.73,14.73,0,0,1,15,15v6h1V29a15.38,15.38,0,0,0-15-15Z"/><circle id="circle8152" class="cls-1" cx="262" cy="28" r="4"/><circle id="circle8154" class="cls-2" cx="262" cy="28" r="3"/></g><g id="g8156"><path id="path8158" class="cls-1" d="M49,89h7l2-2V70a9.08,9.08,0,0,0-7-3H36l-2,2v5A14.73,14.73,0,0,0,49,89Z"/><path id="path8160" class="cls-2" d="M49,87h9l2-2V73a9,9,0,0,0-9-9H36l-2,2v6A15.38,15.38,0,0,0,49,87Z"/><path id="path8162" class="cls-4" d="M59,85h1V73a9,9,0,0,0-9-9H36v6A15.38,15.38,0,0,0,51,85Z"/><path id="path8164" class="cls-3" d="M52,76a4.3,4.3,0,0,0,4-4c0-3-2-5-4-5a4.72,4.72,0,0,0-5,5C47,74,49,76,52,76Z"/><path id="path8166" class="cls-3" d="M59,85H51A15.38,15.38,0,0,1,36,70V64h0v6A15.38,15.38,0,0,0,51,85Z"/><path id="path8168" class="cls-1" d="M52,76c2,0,4-2,4-5a4.3,4.3,0,0,0-4-4,3.66,3.66,0,0,0-4,4C48,74,49,76,52,76Z"/><path id="path8170" class="cls-2" d="M52,75a3,3,0,0,0,0-6,2.65,2.65,0,0,0-3,3A2.65,2.65,0,0,0,52,75Z"/><path id="path8172" class="cls-3" d="M59,85h1V73a9,9,0,0,0-9-9H36v1l3-1H50a9,9,0,0,1,9,9V85Z"/></g><g id="g8174"><path id="path8176" class="cls-1" d="M264,89h-6l-2-2V70c1-2,4-3,7-3h15l1,2v5C279,83,273,89,264,89Z"/><path id="path8178" class="cls-2" d="M264,87h-8l-2-2V73a9,9,0,0,1,9-9h15l1,2v6A14.73,14.73,0,0,1,264,87Z"/><path id="path8180" class="cls-4" d="M254,85h0V73a9,9,0,0,1,9-9h15v6a15.38,15.38,0,0,1-15,15Z"/><path id="path8182" class="cls-3" d="M262,76c-3,0-5-2-5-4a4.72,4.72,0,0,1,5-5c2,0,4,2,4,5A4.3,4.3,0,0,1,262,76Z"/><path id="path8184" class="cls-3" d="M254,85h8a14.73,14.73,0,0,0,15-15V64h1v6a15.38,15.38,0,0,1-15,15Z"/><path id="path8186" class="cls-1" d="M262,76a4.72,4.72,0,0,1-5-5c0-2,2-4,5-4a4.3,4.3,0,0,1,4,4C266,74,264,76,262,76Z"/><path id="path8188" class="cls-2" d="M262,75a2.65,2.65,0,0,1-3-3,2.65,2.65,0,0,1,3-3,3,3,0,0,1,0,6Z"/><path id="path8190" class="cls-3" d="M254,85h0V73a9,9,0,0,1,9-9h15v1l-4-1H263a9,9,0,0,0-9,9V85Z"/></g><path id="path8192" class="cls-1" d="M112,23H240a11.1,11.1,0,0,1,11,11V65a11.1,11.1,0,0,1-11,11H112a11.1,11.1,0,0,1-11-11V34A11.1,11.1,0,0,1,112,23Z"/></g><circle id="circle8194" class="cls-2" cx="49" cy="49" r="49"/><circle id="circle8196" class="cls-3" cx="49" cy="49" r="46"/><circle id="circle8198" class="cls-4" cx="49" cy="49" r="46"/><circle id="circle8200" class="cls-5" cx="49" cy="49" r="42"/><circle id="circle8202" class="cls-1" cx="49" cy="49" r="38"/></g><g id="g8452"><path id="path8454" class="cls-6" d="M30.43,25c13-11,31-8,41,6s8,33-5,44-31,8-41-6C15.43,56,17.43,36,30.43,25Z"/><path id="path8456" class="cls-7" d="M48.43,30c11,0,21,8,21,19s-10,20-21,20-21-9-21-20S37.43,30,48.43,30Z"/><path id="path8458" class="cls-8" d="M48.43,26c11,0,21,10,21,21a21,21,0,0,1-42,0C27.43,36,37.43,26,48.43,26Z"/><path id="path8460" class="cls-9" d="M48.43,28c11,0,21,9,21,20s-10,20-21,20-21-9-21-20S37.43,28,48.43,28Z"/><path id="path8462" class="cls-8" d="M48.43,60h11a2.15,2.15,0,0,0,2-2l2-9a1.39,1.39,0,0,0,0-2c-1-1-1-1-2-1l-4,1c-1,1-2,0-2-1l-5-8c-1-1-1-1-2-1s-1,0-2,1l-5,8c0,1-1,2-2,1l-4-1c-1,0-1,0-2,1-1,0-1,1-1,2l3,9a2.15,2.15,0,0,0,2,2Z"/><path id="path8464" class="cls-7" d="M66.43,69c-12,10-29,8-39-3-1-1-2-2-2-3-4-4-6-10-6-16a28.63,28.63,0,0,0,6,22c10,14,28,17,41,6a32.5,32.5,0,0,0,11-28c-1,7-3,14-8,19Z"/><path id="path8466" class="cls-8" d="M19.43,51a30,30,0,0,0,6,18c10,14,28,17,41,6,7-6,11-15,11-25V48c-1,7-3,14-8,19l-3,3c-12,10-29,8-39-3-1-1-2-2-2-3-4-5-6-10-6-16Z"/><path id="path8468" class="cls-7" d="M30.43,28c13-11,31-8,41,6a33.87,33.87,0,0,1,6,15V47c0-6-2-11-6-16-10-14-28-17-41-6-7,6-10,14-11,22v2C20.43,41,24.43,33,30.43,28Z"/><path id="path8470" class="cls-10" d="M66.43,64c-13,10-31,8-41-6l-2-2c-1-3-3-7-3-10a3.67,3.67,0,0,0-1,3,35.06,35.06,0,0,0,6,14c0,1,1,2,2,3,10,11,27,13,39,3l3-3a38.05,38.05,0,0,0,8-17,3.67,3.67,0,0,0-1-3c0,3-2,7-4,10C71.43,59,69.43,61,66.43,64Z"/><path id="path8472" class="cls-6" d="M48.43,57h11c1,0,2,0,2-1l2-9a1.39,1.39,0,0,0,0-2c-1-1-1-1-2-1l-4,1c-1,0-2,0-2-1l-5-8c-1-1-1-2-2-2s-1,1-2,2l-5,8c0,1-1,1-2,1l-4-1c-1,0-1,0-2,1-1,0-1,1-1,2l3,9c0,1,1,1,2,1Z"/><path id="path8474" class="cls-7" d="M52.43,40l-2-4c-1-1-1-2-2-2s-1,1-2,2l-5,8c0,1-1,1-2,1l-4-1c-1,0-1,0-2,1-1,0-1,1-1,2l2,3Z"/><path id="path8476" class="cls-10" d="M48.43,57h11c1,0,2,0,2-1l1-5-27,5c1,1,1,1,2,1Z"/></g></g></g></svg>