<svg xmlns="http://www.w3.org/2000/svg" viewBox="0 0 58.65 63.35"><defs><style>.cls-1{fill:#ffef01;}.cls-2{fill:#ff0;}.cls-3{fill:#fa0;}.cls-4{fill:#f7c600;}.cls-5{fill:#ffe10f;}</style></defs><title>Coin</title><g id="Layer_2" data-name="Layer 2"><g id="svg2"><g id="g8452"><path id="path8454" class="cls-1" d="M11.32,6.68c13-11,31-8,41,6s8,33-5,44-31,8-41-6C-3.68,37.68-1.68,17.68,11.32,6.68Z"/><path id="path8456" class="cls-2" d="M29.32,11.68c11,0,21,8,21,19s-10,20-21,20-21-9-21-20S18.32,11.68,29.32,11.68Z"/><path id="path8458" class="cls-3" d="M29.32,7.68c11,0,21,10,21,21a21,21,0,0,1-42,0C8.32,17.68,18.32,7.68,29.32,7.68Z"/><path id="path8460" class="cls-4" d="M29.32,9.68c11,0,21,9,21,20s-10,20-21,20-21-9-21-20S18.32,9.68,29.32,9.68Z"/><path id="path8462" class="cls-3" d="M29.32,41.68h11a2.15,2.15,0,0,0,2-2l2-9a1.39,1.39,0,0,0,0-2c-1-1-1-1-2-1l-4,1c-1,1-2,0-2-1l-5-8c-1-1-1-1-2-1s-1,0-2,1l-5,8c0,1-1,2-2,1l-4-1c-1,0-1,0-2,1-1,0-1,1-1,2l3,9a2.15,2.15,0,0,0,2,2Z"/><path id="path8464" class="cls-2" d="M47.32,50.68c-12,10-29,8-39-3-1-1-2-2-2-3-4-4-6-10-6-16a28.63,28.63,0,0,0,6,22c10,14,28,17,41,6a32.5,32.5,0,0,0,11-28c-1,7-3,14-8,19Z"/><path id="path8466" class="cls-3" d="M.32,32.68a30,30,0,0,0,6,18c10,14,28,17,41,6,7-6,11-15,11-25v-2c-1,7-3,14-8,19l-3,3c-12,10-29,8-39-3-1-1-2-2-2-3-4-5-6-10-6-16Z"/><path id="path8468" class="cls-2" d="M11.32,9.68c13-11,31-8,41,6a33.87,33.87,0,0,1,6,15v-2c0-6-2-11-6-16-10-14-28-17-41-6-7,6-10,14-11,22v2C1.32,22.68,5.32,14.68,11.32,9.68Z"/><path id="path8470" class="cls-5" d="M47.32,45.68c-13,10-31,8-41-6l-2-2c-1-3-3-7-3-10a3.67,3.67,0,0,0-1,3,35.06,35.06,0,0,0,6,14c0,1,1,2,2,3,10,11,27,13,39,3l3-3a38.05,38.05,0,0,0,8-17,3.67,3.67,0,0,0-1-3c0,3-2,7-4,10C52.32,40.68,50.32,42.68,47.32,45.68Z"/><path id="path8472" class="cls-1" d="M29.32,38.68h11c1,0,2,0,2-1l2-9a1.39,1.39,0,0,0,0-2c-1-1-1-1-2-1l-4,1c-1,0-2,0-2-1l-5-8c-1-1-1-2-2-2s-1,1-2,2l-5,8c0,1-1,1-2,1l-4-1c-1,0-1,0-2,1-1,0-1,1-1,2l3,9c0,1,1,1,2,1Z"/><path id="path8474" class="cls-2" d="M33.32,21.68l-2-4c-1-1-1-2-2-2s-1,1-2,2l-5,8c0,1-1,1-2,1l-4-1c-1,0-1,0-2,1-1,0-1,1-1,2l2,3Z"/><path id="path8476" class="cls-5" d="M29.32,38.68h11c1,0,2,0,2-1l1-5-27,5c1,1,1,1,2,1Z"/></g></g></g></svg>