<svg xmlns="http://www.w3.org/2000/svg" viewBox="0 0 150 139.83"><defs><style>.cls-1{fill:#8db5d1;}.cls-2{fill:#a2d5e2;}.cls-3{fill:#94c1d8;}.cls-4{fill:#8eb7d2;}.cls-5{fill:#cbf5f4;}.cls-6,.cls-8{fill:#fff;}.cls-6{fill-opacity:0.2;}.cls-7{fill:#edfbfb;}</style></defs><title>diamon</title><g id="Layer_2" data-name="Layer 2"><g id="Layer_1-2" data-name="Layer 1"><g id="g8478"><polygon id="polygon8480" class="cls-1" points="0 45.76 0 76.27 76.27 139.83 150 76.27 150 45.76 114.41 10.17 76.27 10.17 35.59 10.17 0 45.76"/><polygon id="polygon8482" class="cls-2" points="0 35.59 0 63.56 76.27 129.66 150 63.56 150 35.59 114.41 0 76.27 0 35.59 0 0 35.59"/><polygon id="polygon8484" class="cls-3" points="150 63.56 150 48.3 76.27 48.3 76.27 129.66 150 63.56"/><polygon id="polygon8486" class="cls-4" points="35.59 0 0 35.59 0 48.3 76.27 48.3 35.59 0"/><polygon id="polygon8488" class="cls-5" points="114.41 0 76.27 0 35.59 0 76.27 48.3 114.41 0"/><polygon id="polygon8490" class="cls-6" points="5.08 38.13 5.08 63.56 76.27 122.03 144.91 63.56 144.91 38.13 111.86 5.08 76.27 5.08 38.13 5.08 5.08 38.13"/><polygon id="polygon8492" class="cls-7" points="7.63 38.13 40.68 7.63 71.19 45.76 43.22 7.63 109.32 7.63 88.98 30.51 111.86 7.63 139.83 33.05 111.86 5.08 40.68 5.08 5.08 38.13 5.08 45.76 7.63 38.13"/><polygon id="polygon8494" class="cls-8" points="150 63.56 76.27 127.12 0 63.56 76.27 129.66 150 63.56"/></g></g></g></svg>