<svg xmlns="http://www.w3.org/2000/svg" viewBox="0 0 280 102"><defs><style>.cls-1{fill:#53381d;}.cls-2{fill:#963;}.cls-3{fill:#ca9560;}.cls-4{fill:#af753b;}.cls-5{fill:#412c17;}</style></defs><title>holderR</title><g id="Layer_2" data-name="Layer 2"><g id="svg2"><g id="g8204"><circle id="circle8206" class="cls-1" cx="231" cy="53" r="49"/><g id="g8208"><g id="g8210"><path id="path8212" class="cls-1" d="M226,18H19A16.85,16.85,0,0,0,2,35V71c0,10,8,18,17,18H226c9,0,17-8,17-18V35A16.85,16.85,0,0,0,226,18Z"/><path id="path8214" class="cls-2" d="M226,14H19C10,14,2,22,2,31V68c0,9,8,17,17,17H226c9,0,17-8,17-17V31C243,22,235,14,226,14Z"/><path id="path8216" class="cls-3" d="M225,15H20C11,15,4,23,4,32V67c0,9,7,17,16,17H225c9,0,17-8,17-17V32C242,23,234,15,225,15Z"/><path id="path8218" class="cls-4" d="M225,16H20A15.8,15.8,0,0,0,4,32V67A15.8,15.8,0,0,0,20,83H225a15.8,15.8,0,0,0,16-16V32A15.8,15.8,0,0,0,225,16Z"/><path id="path8220" class="cls-5" d="M224,18H22C13,18,6,25,6,33V66c0,8,7,15,16,15H224a15.38,15.38,0,0,0,15-15V33A15.38,15.38,0,0,0,224,18Z"/></g><g id="g8222"><path id="path8224" class="cls-1" d="M230,14H220V28a9,9,0,0,0,9,9h16V29A14.73,14.73,0,0,0,230,14Z"/><path id="path8226" class="cls-2" d="M230,12h-8l-2,2V26a9,9,0,0,0,9,9h16V27A14.73,14.73,0,0,0,230,12Z"/><path id="path8228" class="cls-4" d="M220,14h0V26a9,9,0,0,0,9,9h15V29a15.38,15.38,0,0,0-15-15Z"/><circle id="circle8230" class="cls-3" cx="228" cy="28" r="4"/><polygon id="polygon8232" class="cls-1" points="243 41 245 39 245 35 243 35 243 41"/><polygon id="polygon8234" class="cls-2" points="245 35 245 37 244 35 244 35 245 35"/><polygon id="polygon8236" class="cls-1" points="243 38 242 37 243 37 243 38"/><path id="path8238" class="cls-3" d="M220,14h8a15.38,15.38,0,0,1,15,15v6h1V29a15.38,15.38,0,0,0-15-15Z"/><circle id="circle8240" class="cls-1" cx="228" cy="28" r="4"/><circle id="circle8242" class="cls-2" cx="228" cy="28" r="3"/></g><g id="g8244"><path id="path8246" class="cls-1" d="M15,14H26V28a9,9,0,0,1-9,9H0V29A15.38,15.38,0,0,1,15,14Z"/><path id="path8248" class="cls-2" d="M15,12h9l2,2V26a9,9,0,0,1-9,9H0V27A15.38,15.38,0,0,1,15,12Z"/><path id="path8250" class="cls-4" d="M25,14h1V26a9,9,0,0,1-9,9H2V29A15.38,15.38,0,0,1,17,14Z"/><circle id="circle8252" class="cls-3" cx="18" cy="28" r="4"/><polygon id="polygon8254" class="cls-1" points="2 41 0 39 0 35 2 35 2 41"/><polygon id="polygon8256" class="cls-2" points="0 35 0 37 2 35 1 35 0 35"/><polygon id="polygon8258" class="cls-1" points="2 38 4 37 2 37 2 38"/><path id="path8260" class="cls-3" d="M25,14H17A15.38,15.38,0,0,0,2,29v6H2V29A15.38,15.38,0,0,1,17,14Z"/><circle id="circle8262" class="cls-1" cx="18" cy="28" r="4"/><circle id="circle8264" class="cls-2" cx="18" cy="28" r="3"/></g><g id="g8266"><path id="path8268" class="cls-1" d="M230,89h-6l-2-2V70c1-2,4-3,7-3h15l1,2v5C245,83,239,89,230,89Z"/><path id="path8270" class="cls-2" d="M230,87h-8l-2-2V73a9,9,0,0,1,9-9h15l1,2v6A14.73,14.73,0,0,1,230,87Z"/><path id="path8272" class="cls-4" d="M220,85h0V73a9,9,0,0,1,9-9h15v6a15.38,15.38,0,0,1-15,15Z"/><path id="path8274" class="cls-3" d="M228,76c-3,0-5-2-5-4a4.72,4.72,0,0,1,5-5c2,0,4,2,4,5A4.3,4.3,0,0,1,228,76Z"/><path id="path8276" class="cls-3" d="M220,85h8a15.38,15.38,0,0,0,15-15V64h1v6a15.38,15.38,0,0,1-15,15Z"/><path id="path8278" class="cls-1" d="M228,76a4.72,4.72,0,0,1-5-5c0-2,2-4,5-4a4.3,4.3,0,0,1,4,4C232,74,230,76,228,76Z"/><path id="path8280" class="cls-2" d="M228,75a2.65,2.65,0,0,1-3-3,2.65,2.65,0,0,1,3-3,3,3,0,0,1,0,6Z"/><path id="path8282" class="cls-3" d="M220,85h0V73a9,9,0,0,1,9-9h15v1l-4-1H229a9,9,0,0,0-9,9V85Z"/></g><g id="g8284"><path id="path8286" class="cls-1" d="M15,89h7l2-2V70a9.08,9.08,0,0,0-7-3H2L0,69v5A14.73,14.73,0,0,0,15,89Z"/><path id="path8288" class="cls-2" d="M15,87h9l2-2V73a9,9,0,0,0-9-9H2L0,66v6A15.38,15.38,0,0,0,15,87Z"/><path id="path8290" class="cls-4" d="M25,85h1V73a9,9,0,0,0-9-9H2v6A15.38,15.38,0,0,0,17,85Z"/><path id="path8292" class="cls-3" d="M18,76a4.3,4.3,0,0,0,4-4c0-3-2-5-4-5a4.72,4.72,0,0,0-5,5C13,74,15,76,18,76Z"/><path id="path8294" class="cls-3" d="M25,85H17A15.38,15.38,0,0,1,2,70V64H2v6A15.38,15.38,0,0,0,17,85Z"/><path id="path8296" class="cls-1" d="M18,76c2,0,4-2,4-5a4.3,4.3,0,0,0-4-4c-3,0-5,2-5,4A4.72,4.72,0,0,0,18,76Z"/><path id="path8298" class="cls-2" d="M18,75a3,3,0,0,0,0-6,2.65,2.65,0,0,0-3,3A2.65,2.65,0,0,0,18,75Z"/><path id="path8300" class="cls-3" d="M25,85h1V73a9,9,0,0,0-9-9H2v1l3-1H16a9,9,0,0,1,9,9V85Z"/></g><path id="path8302" class="cls-1" d="M168,23H81A11.1,11.1,0,0,0,70,34V65A11.1,11.1,0,0,0,81,76h87a11.1,11.1,0,0,0,11-11V34A11.1,11.1,0,0,0,168,23Z"/></g><circle id="circle8304" class="cls-2" cx="231" cy="49" r="49"/><circle id="circle8306" class="cls-3" cx="231" cy="49" r="46"/><circle id="circle8308" class="cls-4" cx="231" cy="49" r="46"/><circle id="circle8310" class="cls-5" cx="231" cy="49" r="42"/><circle id="circle8312" class="cls-1" cx="231" cy="49" r="38"/></g></g></g></svg>