<svg xmlns="http://www.w3.org/2000/svg" viewBox="0 0 279 102"><defs><style>.cls-1{fill:#53381d;}.cls-2{fill:#963;}.cls-3{fill:#ca9560;}.cls-4{fill:#af753b;}.cls-5{fill:#412c17;}</style></defs><title>holderL</title><g id="Layer_2" data-name="Layer 2"><g id="svg2"><g id="g8094"><circle id="circle8096" class="cls-1" cx="49" cy="53" r="49"/><g id="g8098"><g id="g8100"><path id="path8102" class="cls-1" d="M53,18H260a16.85,16.85,0,0,1,17,17V71c0,10-8,18-17,18H53c-9,0-17-8-17-18V35A16.85,16.85,0,0,1,53,18Z"/><path id="path8104" class="cls-2" d="M53,14H260c9,0,17,8,17,17V68c0,9-8,17-17,17H53c-9,0-17-8-17-17V31C36,22,44,14,53,14Z"/><path id="path8106" class="cls-3" d="M54,15H259c9,0,17,8,17,17V67c0,9-8,17-17,17H54c-9,0-16-8-16-17V32C38,23,45,15,54,15Z"/><path id="path8108" class="cls-4" d="M54,16H259c9,0,17,7,17,16V67c0,9-8,16-17,16H54A15.8,15.8,0,0,1,38,67V32A15.8,15.8,0,0,1,54,16Z"/><path id="path8110" class="cls-5" d="M56,18H258a15.38,15.38,0,0,1,15,15V66a15.38,15.38,0,0,1-15,15H56c-9,0-16-7-16-15V33C40,25,47,18,56,18Z"/></g><g id="g8112"><path id="path8114" class="cls-1" d="M49,14H60V28a9,9,0,0,1-9,9H34V29A15.38,15.38,0,0,1,49,14Z"/><path id="path8116" class="cls-2" d="M49,12h9l2,2V26a9,9,0,0,1-9,9H34V27A15.38,15.38,0,0,1,49,12Z"/><path id="path8118" class="cls-4" d="M59,14h1V26a9,9,0,0,1-9,9H36V29A15.38,15.38,0,0,1,51,14Z"/><circle id="circle8120" class="cls-3" cx="52" cy="28" r="4"/><polygon id="polygon8122" class="cls-1" points="36 41 34 39 34 35 36 35 36 41"/><polygon id="polygon8124" class="cls-2" points="34 35 34 37 36 35 35 35 34 35"/><polygon id="polygon8126" class="cls-1" points="36 38 38 37 36 37 36 38"/><path id="path8128" class="cls-3" d="M59,14H51A15.38,15.38,0,0,0,36,29v6h0V29A15.38,15.38,0,0,1,51,14Z"/><circle id="circle8130" class="cls-1" cx="52" cy="28" r="4"/><circle id="circle8132" class="cls-2" cx="52" cy="28" r="3"/></g><g id="g8134"><path id="path8136" class="cls-1" d="M264,14H254V28a9,9,0,0,0,9,9h16V29A14.73,14.73,0,0,0,264,14Z"/><path id="path8138" class="cls-2" d="M264,12h-8l-2,2V26a9,9,0,0,0,9,9h16V27A14.73,14.73,0,0,0,264,12Z"/><path id="path8140" class="cls-4" d="M254,14h0V26a9,9,0,0,0,9,9h15V29a15.38,15.38,0,0,0-15-15Z"/><circle id="circle8142" class="cls-3" cx="262" cy="28" r="4"/><polygon id="polygon8144" class="cls-1" points="277 41 279 39 279 35 277 35 277 41"/><polygon id="polygon8146" class="cls-2" points="279 35 279 37 278 35 279 35"/><polygon id="polygon8148" class="cls-1" points="277 38 276 37 277 37 277 38"/><path id="path8150" class="cls-3" d="M254,14h8a14.73,14.73,0,0,1,15,15v6h1V29a15.38,15.38,0,0,0-15-15Z"/><circle id="circle8152" class="cls-1" cx="262" cy="28" r="4"/><circle id="circle8154" class="cls-2" cx="262" cy="28" r="3"/></g><g id="g8156"><path id="path8158" class="cls-1" d="M49,89h7l2-2V70a9.08,9.08,0,0,0-7-3H36l-2,2v5A14.73,14.73,0,0,0,49,89Z"/><path id="path8160" class="cls-2" d="M49,87h9l2-2V73a9,9,0,0,0-9-9H36l-2,2v6A15.38,15.38,0,0,0,49,87Z"/><path id="path8162" class="cls-4" d="M59,85h1V73a9,9,0,0,0-9-9H36v6A15.38,15.38,0,0,0,51,85Z"/><path id="path8164" class="cls-3" d="M52,76a4.3,4.3,0,0,0,4-4c0-3-2-5-4-5a4.72,4.72,0,0,0-5,5C47,74,49,76,52,76Z"/><path id="path8166" class="cls-3" d="M59,85H51A15.38,15.38,0,0,1,36,70V64h0v6A15.38,15.38,0,0,0,51,85Z"/><path id="path8168" class="cls-1" d="M52,76c2,0,4-2,4-5a4.3,4.3,0,0,0-4-4,3.66,3.66,0,0,0-4,4C48,74,49,76,52,76Z"/><path id="path8170" class="cls-2" d="M52,75a3,3,0,0,0,0-6,2.65,2.65,0,0,0-3,3A2.65,2.65,0,0,0,52,75Z"/><path id="path8172" class="cls-3" d="M59,85h1V73a9,9,0,0,0-9-9H36v1l3-1H50a9,9,0,0,1,9,9V85Z"/></g><g id="g8174"><path id="path8176" class="cls-1" d="M264,89h-6l-2-2V70c1-2,4-3,7-3h15l1,2v5C279,83,273,89,264,89Z"/><path id="path8178" class="cls-2" d="M264,87h-8l-2-2V73a9,9,0,0,1,9-9h15l1,2v6A14.73,14.73,0,0,1,264,87Z"/><path id="path8180" class="cls-4" d="M254,85h0V73a9,9,0,0,1,9-9h15v6a15.38,15.38,0,0,1-15,15Z"/><path id="path8182" class="cls-3" d="M262,76c-3,0-5-2-5-4a4.72,4.72,0,0,1,5-5c2,0,4,2,4,5A4.3,4.3,0,0,1,262,76Z"/><path id="path8184" class="cls-3" d="M254,85h8a14.73,14.73,0,0,0,15-15V64h1v6a15.38,15.38,0,0,1-15,15Z"/><path id="path8186" class="cls-1" d="M262,76a4.72,4.72,0,0,1-5-5c0-2,2-4,5-4a4.3,4.3,0,0,1,4,4C266,74,264,76,262,76Z"/><path id="path8188" class="cls-2" d="M262,75a2.65,2.65,0,0,1-3-3,2.65,2.65,0,0,1,3-3,3,3,0,0,1,0,6Z"/><path id="path8190" class="cls-3" d="M254,85h0V73a9,9,0,0,1,9-9h15v1l-4-1H263a9,9,0,0,0-9,9V85Z"/></g><path id="path8192" class="cls-1" d="M112,23H240a11.1,11.1,0,0,1,11,11V65a11.1,11.1,0,0,1-11,11H112a11.1,11.1,0,0,1-11-11V34A11.1,11.1,0,0,1,112,23Z"/></g><circle id="circle8194" class="cls-2" cx="49" cy="49" r="49"/><circle id="circle8196" class="cls-3" cx="49" cy="49" r="46"/><circle id="circle8198" class="cls-4" cx="49" cy="49" r="46"/><circle id="circle8200" class="cls-5" cx="49" cy="49" r="42"/><circle id="circle8202" class="cls-1" cx="49" cy="49" r="38"/></g></g></g></svg>