<svg xmlns="http://www.w3.org/2000/svg" xmlns:xlink="http://www.w3.org/1999/xlink" viewBox="0 0 150.54 148.11"><defs><style>.cls-1{fill:#0f0f0f;}.cls-2{fill:url(#radial-gradient);}.cls-3{fill:url(#linear-gradient);}.cls-4{fill:url(#linear-gradient-2);}</style><radialGradient id="radial-gradient" cx="75.27" cy="75.49" r="44.33" gradientUnits="userSpaceOnUse"><stop offset="0" stop-color="#262626"/><stop offset="0.82"/></radialGradient><linearGradient id="linear-gradient" x1="27.19" y1="71.12" x2="123.34" y2="71.12" gradientUnits="userSpaceOnUse"><stop offset="0" stop-color="#8e1f15"/><stop offset="1" stop-color="#c9655b"/></linearGradient><linearGradient id="linear-gradient-2" x1="75.27" y1="1242.82" x2="75.27" y2="1156.93" gradientTransform="matrix(1, 0, 0, -1, 0, 1288.23)" gradientUnits="userSpaceOnUse"><stop offset="0" stop-color="#8e1f15"/><stop offset="0.79" stop-color="#c94438"/><stop offset="1" stop-color="#c9655b"/></linearGradient></defs><title>Joystick</title><g id="Layer_2" data-name="Layer 2"><g id="Layer_1-2" data-name="Layer 1"><path class="cls-1" d="M75.27,0c41.28,0,75.27,34,75.27,75.27s-34,72.84-75.27,72.84S0,116.55,0,75.27,34,0,75.27,0Zm0,24.28c9.71,0,17,7.28,17,14.57a16.6,16.6,0,0,1-17,17,16.6,16.6,0,0,1-17-17C58.27,31.56,65.56,24.28,75.27,24.28ZM68,63.13H82.55q7.28,0,7.28,7.28v41.28q0,7.28-7.28,7.28H68c-2.43,0-4.86-2.43-4.86-7.28V70.41C63.13,65.56,65.56,63.13,68,63.13ZM75.27,17c31.56,0,58.27,26.71,58.27,58.27s-26.71,55.84-58.27,55.84S19.42,106.83,19.42,75.27,43.7,17,75.27,17Z"/><path class="cls-2" d="M85.47,105.17c-2.91,2.91-5.83,2.91-5.83-4.37V41.07q0-8.74,4.37-4.37l37.88,32.05a5.35,5.35,0,0,1,1.46,4.37v5.83h-7.28ZM35.93,80.4H27.19V71.66h0a5.09,5.09,0,0,1,1.46-2.91L66.53,36.7q4.37-4.37,4.37,4.37V100.8c0,7.28-2.91,7.28-5.83,4.37Z"/><path class="cls-2" d="M85.47,113.91c-2.91,2.91-5.83,2.91-5.83-4.37V49.81C79.64,44,81.1,44,84,45.44l37.88,32.05a4.43,4.43,0,0,1,0,5.83Zm-20.4,0c2.91,2.91,5.83,2.91,5.83-4.37V49.81c0-5.83-1.46-5.83-4.37-4.37L28.65,77.49a4.43,4.43,0,0,0,0,5.83Z"/><path class="cls-3" d="M85.47,105.17c-2.91,2.91-5.83,2.91-5.83-4.37V41.07q0-8.74,4.37-4.37l37.88,32.05a5.35,5.35,0,0,1,1.46,4.37v5.83h-7.28ZM35.93,80.4H27.19V71.66h0a5.09,5.09,0,0,1,1.46-2.91L66.53,36.7q4.37-4.37,4.37,4.37V100.8c0,7.28-2.91,7.28-5.83,4.37Z"/><path class="cls-4" d="M85.47,113.91c-2.91,2.91-5.83,2.91-5.83-4.37V49.81C79.64,44,81.1,44,84,45.44l37.88,32.05a4.43,4.43,0,0,1,0,5.83Zm-20.4,0c2.91,2.91,5.83,2.91,5.83-4.37V49.81c0-5.83-1.46-5.83-4.37-4.37L28.65,77.49a4.43,4.43,0,0,0,0,5.83Z"/></g></g></svg>