<svg xmlns="http://www.w3.org/2000/svg" xmlns:xlink="http://www.w3.org/1999/xlink" viewBox="0 0 151 152"><defs><style>.cls-1{fill:none;}.cls-2{fill:#53381d;}.cls-3{fill:#963;}.cls-4{fill:#ca9560;}.cls-5{fill:#af753b;}.cls-6{fill:#254c05;}.cls-7{fill:url(#radial-gradient);}.cls-8{fill:#7cd637;}.cls-34,.cls-9{fill:#fff;}.cls-9{fill-opacity:0.2;}.cls-10{fill:url(#radial-gradient-2);}.cls-11{clip-path:url(#clip-path);}.cls-12{fill-opacity:0;fill:url(#linear-gradient);}.cls-13{fill-opacity:0.05;fill:url(#linear-gradient-2);}.cls-14{fill-opacity:0.09;fill:url(#linear-gradient-3);}.cls-15{fill-opacity:0.14;fill:url(#linear-gradient-4);}.cls-16{fill-opacity:0.19;fill:url(#linear-gradient-5);}.cls-17{fill-opacity:0.24;fill:url(#linear-gradient-6);}.cls-18{fill-opacity:0.29;fill:url(#linear-gradient-7);}.cls-19{fill-opacity:0.33;fill:url(#linear-gradient-8);}.cls-20{fill-opacity:0.38;fill:url(#linear-gradient-9);}.cls-21{fill-opacity:0.43;fill:url(#linear-gradient-10);}.cls-22{fill-opacity:0.47;fill:url(#linear-gradient-11);}.cls-23{fill-opacity:0.53;fill:url(#linear-gradient-12);}.cls-24{fill-opacity:0.57;fill:url(#linear-gradient-13);}.cls-25{fill-opacity:0.62;fill:url(#linear-gradient-14);}.cls-26{fill-opacity:0.67;fill:url(#linear-gradient-15);}.cls-27{fill-opacity:0.71;fill:url(#linear-gradient-16);}.cls-28{fill-opacity:0.76;fill:url(#linear-gradient-17);}.cls-29{fill-opacity:0.81;fill:url(#linear-gradient-18);}.cls-30{fill-opacity:0.86;fill:url(#linear-gradient-19);}.cls-31{fill-opacity:0.91;fill:url(#linear-gradient-20);}.cls-32{fill-opacity:0.95;fill:url(#linear-gradient-21);}.cls-33{fill:#91b740;}.cls-34{fill-opacity:0.3;}.cls-35{fill:#336b05;}.cls-36{fill:#250;}.cls-37{fill:url(#linear-gradient-22);}</style><radialGradient id="radial-gradient" cx="-674.75" cy="-3132.66" r="46.99" gradientTransform="matrix(0, 1.1, 1.44, -0.01, 4580.07, 799.9)" gradientUnits="userSpaceOnUse"><stop offset="0" stop-color="#5ab70e"/><stop offset="0.85" stop-color="#469109"/><stop offset="1" stop-color="#336b05"/></radialGradient><radialGradient id="radial-gradient-2" cx="75.25" cy="390.33" r="48.44" gradientTransform="matrix(1, 0, 0, -1, 0, -556.5)" gradientUnits="userSpaceOnUse"><stop offset="0" stop-color="#8dbd25"/><stop offset="1" stop-color="#5ab70e"/></radialGradient><clipPath id="clip-path"><path class="cls-1" d="M47,22h56c11,0,21,10,21,21V99c0,11-10,20-21,20H47A20.06,20.06,0,0,1,27,99V43C27,32,36,22,47,22Z"/></clipPath><linearGradient id="linear-gradient" x1="75.5" y1="-657.25" x2="75.5" y2="-627.96" gradientTransform="matrix(1, 0, 0, -1, 0, -556.5)" gradientUnits="userSpaceOnUse"><stop offset="0" stop-color="#5ab70e"/><stop offset="1" stop-color="#8dbd25"/></linearGradient><linearGradient id="linear-gradient-2" x1="75.5" y1="-657.76" x2="75.5" y2="-629.4" gradientTransform="matrix(1, 0, 0, -1, 0, -556.5)" gradientUnits="userSpaceOnUse"><stop offset="0" stop-color="#5db710"/><stop offset="1" stop-color="#8dbd26"/></linearGradient><linearGradient id="linear-gradient-3" x1="75" y1="-658.27" x2="75" y2="-630.84" gradientTransform="matrix(1, 0, 0, -1, 0, -556.5)" gradientUnits="userSpaceOnUse"><stop offset="0" stop-color="#5fb713"/><stop offset="1" stop-color="#8dbc28"/></linearGradient><linearGradient id="linear-gradient-4" x1="75" y1="-658.78" x2="75" y2="-632.29" gradientTransform="matrix(1, 0, 0, -1, 0, -556.5)" gradientUnits="userSpaceOnUse"><stop offset="0" stop-color="#62b715"/><stop offset="1" stop-color="#8ebc29"/></linearGradient><linearGradient id="linear-gradient-5" x1="-419.03" y1="163.7" x2="-419.03" y2="163.85" gradientTransform="matrix(98, 0, 0, -40, 41140, 6651)" gradientUnits="userSpaceOnUse"><stop offset="0" stop-color="#64b718"/><stop offset="1" stop-color="#8ebc2a"/></linearGradient><linearGradient id="linear-gradient-6" x1="-419.33" y1="166.14" x2="-419.33" y2="166.29" gradientTransform="matrix(95, 0, 0, -38, 39912, 6417)" gradientUnits="userSpaceOnUse"><stop offset="0" stop-color="#67b71a"/><stop offset="1" stop-color="#8ebc2b"/></linearGradient><linearGradient id="linear-gradient-7" x1="75.5" y1="-660.32" x2="75.5" y2="-636.62" gradientTransform="matrix(1, 0, 0, -1, 0, -556.5)" gradientUnits="userSpaceOnUse"><stop offset="0" stop-color="#6ab71c"/><stop offset="1" stop-color="#8ebb2d"/></linearGradient><linearGradient id="linear-gradient-8" x1="75" y1="-660.83" x2="75" y2="-638.06" gradientTransform="matrix(1, 0, 0, -1, 0, -556.5)" gradientUnits="userSpaceOnUse"><stop offset="0" stop-color="#6cb71f"/><stop offset="1" stop-color="#8ebb2e"/></linearGradient><linearGradient id="linear-gradient-9" x1="-420.62" y1="171.88" x2="-420.62" y2="172.03" gradientTransform="matrix(84, 0, 0, -34, 35407, 5949)" gradientUnits="userSpaceOnUse"><stop offset="0" stop-color="#6fb721"/><stop offset="1" stop-color="#8fbb2f"/></linearGradient><linearGradient id="linear-gradient-10" x1="75" y1="-661.85" x2="75" y2="-640.95" gradientTransform="matrix(1, 0, 0, -1, 0, -556.5)" gradientUnits="userSpaceOnUse"><stop offset="0" stop-color="#72b723"/><stop offset="1" stop-color="#8fba31"/></linearGradient><linearGradient id="linear-gradient-11" x1="75.5" y1="-662.36" x2="75.5" y2="-642.39" gradientTransform="matrix(1, 0, 0, -1, 0, -556.5)" gradientUnits="userSpaceOnUse"><stop offset="0" stop-color="#74b726"/><stop offset="1" stop-color="#8fba32"/></linearGradient><linearGradient id="linear-gradient-12" x1="75.5" y1="-662.87" x2="75.5" y2="-643.83" gradientTransform="matrix(1, 0, 0, -1, 0, -556.5)" gradientUnits="userSpaceOnUse"><stop offset="0" stop-color="#77b728"/><stop offset="1" stop-color="#8fba33"/></linearGradient><linearGradient id="linear-gradient-13" x1="75" y1="-663.38" x2="75" y2="-645.28" gradientTransform="matrix(1, 0, 0, -1, 0, -556.5)" gradientUnits="userSpaceOnUse"><stop offset="0" stop-color="#79b72b"/><stop offset="1" stop-color="#8fba34"/></linearGradient><linearGradient id="linear-gradient-14" x1="75" y1="-663.9" x2="75" y2="-646.72" gradientTransform="matrix(1, 0, 0, -1, 0, -556.5)" gradientUnits="userSpaceOnUse"><stop offset="0" stop-color="#7cb72d"/><stop offset="1" stop-color="#8fb936"/></linearGradient><linearGradient id="linear-gradient-15" x1="75.5" y1="-664.41" x2="75.5" y2="-648.16" gradientTransform="matrix(1, 0, 0, -1, 0, -556.5)" gradientUnits="userSpaceOnUse"><stop offset="0" stop-color="#7fb72f"/><stop offset="1" stop-color="#90b937"/></linearGradient><linearGradient id="linear-gradient-16" x1="75.5" y1="-664.92" x2="75.5" y2="-649.6" gradientTransform="matrix(1, 0, 0, -1, 0, -556.5)" gradientUnits="userSpaceOnUse"><stop offset="0" stop-color="#81b732"/><stop offset="1" stop-color="#90b938"/></linearGradient><linearGradient id="linear-gradient-17" x1="75.5" y1="-665.43" x2="75.5" y2="-651.05" gradientTransform="matrix(1, 0, 0, -1, 0, -556.5)" gradientUnits="userSpaceOnUse"><stop offset="0" stop-color="#84b734"/><stop offset="1" stop-color="#90b83a"/></linearGradient><linearGradient id="linear-gradient-18" x1="75" y1="-665.94" x2="75" y2="-652.49" gradientTransform="matrix(1, 0, 0, -1, 0, -556.5)" gradientUnits="userSpaceOnUse"><stop offset="0" stop-color="#87b736"/><stop offset="1" stop-color="#90b83b"/></linearGradient><linearGradient id="linear-gradient-19" x1="75" y1="-666.45" x2="75" y2="-653.93" gradientTransform="matrix(1, 0, 0, -1, 0, -556.5)" gradientUnits="userSpaceOnUse"><stop offset="0" stop-color="#89b739"/><stop offset="1" stop-color="#90b83c"/></linearGradient><linearGradient id="linear-gradient-20" x1="75.5" y1="-666.97" x2="75.5" y2="-655.38" gradientTransform="matrix(1, 0, 0, -1, 0, -556.5)" gradientUnits="userSpaceOnUse"><stop offset="0" stop-color="#8cb73b"/><stop offset="1" stop-color="#91b83d"/></linearGradient><linearGradient id="linear-gradient-21" x1="75.5" y1="-667.48" x2="75.5" y2="-656.82" gradientTransform="matrix(1, 0, 0, -1, 0, -556.5)" gradientUnits="userSpaceOnUse"><stop offset="0" stop-color="#8eb73e"/><stop offset="1" stop-color="#91b73f"/></linearGradient><linearGradient id="linear-gradient-22" x1="73.7" y1="-605.11" x2="78.11" y2="-662.79" gradientTransform="matrix(1, 0, 0, -1, 0, -556.5)" gradientUnits="userSpaceOnUse"><stop offset="0" stop-color="#317100"/><stop offset="1" stop-color="#4eb300"/></linearGradient></defs><title>checkmark</title><g id="Layer_2" data-name="Layer 2"><g id="Layer_1-2" data-name="Layer 1"><g id="Layer_1-3" data-name="Layer_1"><g id="_921936208" data-name=" 921936208"><rect class="cls-2" x="2" y="6" width="146" height="146" rx="31" ry="31"/><rect class="cls-3" x="2" width="146" height="146" rx="31" ry="31"/><rect class="cls-4" x="5" y="2" width="141" height="141" rx="30" ry="30"/><rect class="cls-5" x="5" y="3" width="140" height="140" rx="30" ry="30"/><rect class="cls-2" x="10" y="7" width="131" height="131" rx="28" ry="28"/><rect class="cls-6" x="18" y="15" width="115" height="115" rx="24" ry="24"/><rect class="cls-7" x="19" y="17" width="112" height="112" rx="24" ry="24"/><polygon class="cls-8" points="87 124 102 120 95 116 82 118 72 120 87 124"/><path class="cls-9" d="M107,17c12,0,23,10,24,22L75,73,24,28c-3,4-4,8-4,13L75,73,29,23a19.74,19.74,0,0,1,14-6L75,73Z"/><path class="cls-8" d="M47,22h56a20.51,20.51,0,0,1,21,21V99a20.51,20.51,0,0,1-21,21H47a22,22,0,0,1-15-6,20.35,20.35,0,0,1-6-15V43a20.35,20.35,0,0,1,6-15A22,22,0,0,1,47,22Zm56,1H47a19.74,19.74,0,0,0-14,6,23.89,23.89,0,0,0-5,14V99a23.89,23.89,0,0,0,5,14,23.89,23.89,0,0,0,14,5h56c6,0,10-2,14-5a19.74,19.74,0,0,0,6-14V43a19.74,19.74,0,0,0-6-14C113,25,109,23,103,23Z"/><path class="cls-10" d="M47,22h56c11,0,21,10,21,21V99c0,11-10,20-21,20H47A20.06,20.06,0,0,1,27,99V43C27,32,36,22,47,22Z"/><g class="cls-11"><path id="_1" data-name="1" class="cls-12" d="M75,94c31,0,57,10,57,23,0,12-26,23-57,23s-56-11-56-23C19,104,44,94,75,94Z"/><path class="cls-13" d="M75,95c30,0,55,10,55,22s-25,22-55,22-54-10-54-22S45,95,75,95Z"/><path class="cls-14" d="M75,96c29,0,53,9,53,21s-24,21-53,21-53-9-53-21S46,96,75,96Z"/><path class="cls-15" d="M75,96c28,0,51,9,51,21,0,11-23,20-51,20s-51-9-51-20C24,105,47,96,75,96Z"/><path class="cls-16" d="M75,97c27,0,49,9,49,20s-22,20-49,20-49-9-49-20S48,97,75,97Z"/><path class="cls-17" d="M75,98c26,0,48,8,48,19,0,10-22,19-48,19s-47-9-47-19C28,106,49,98,75,98Z"/><path class="cls-18" d="M75,98c25,0,46,9,46,19s-21,18-46,18-45-8-45-18S50,98,75,98Z"/><path class="cls-19" d="M75,99c24,0,44,8,44,18s-20,17-44,17-44-7-44-17S51,99,75,99Z"/><path class="cls-20" d="M75,100c23,0,42,7,42,17,0,9-19,17-42,17s-42-8-42-17C33,107,52,100,75,100Z"/><path class="cls-21" d="M75,101c22,0,40,7,40,16s-18,16-40,16-40-7-40-16S53,101,75,101Z"/><path class="cls-22" d="M75,101c21,0,39,7,39,16,0,8-18,15-39,15s-38-7-38-15C37,108,54,101,75,101Z"/><path class="cls-23" d="M75,102c20,0,37,7,37,15s-17,15-37,15-36-7-36-15S55,102,75,102Z"/><path class="cls-24" d="M75,103c19,0,35,6,35,14s-16,14-35,14-35-6-35-14S56,103,75,103Z"/><path class="cls-25" d="M75,104c19,0,33,5,33,13,0,7-14,13-33,13-18,0-33-6-33-13C42,109,57,104,75,104Z"/><path class="cls-26" d="M75,104c18,0,32,6,32,13s-14,12-32,12c-17,0-31-5-31-12S58,104,75,104Z"/><path class="cls-27" d="M75,105c17,0,30,5,30,12,0,6-13,12-30,12-16,0-29-6-29-12C46,110,59,105,75,105Z"/><path class="cls-28" d="M75,106c16,0,28,5,28,11s-12,11-28,11c-15,0-27-5-27-11S60,106,75,106Z"/><path class="cls-29" d="M75,106c15,0,26,5,26,11s-11,10-26,10c-14,0-26-4-26-10S61,106,75,106Z"/><path class="cls-30" d="M75,107c14,0,24,4,24,10,0,5-10,10-24,10-13,0-24-5-24-10C51,111,62,107,75,107Z"/><path class="cls-31" d="M75,108c13,0,23,4,23,9s-10,9-23,9c-12,0-22-4-22-9S63,108,75,108Z"/><path class="cls-32" d="M75,109c12,0,21,3,21,8,0,4-9,8-21,8-11,0-20-4-20-8C55,112,64,109,75,109Z"/><ellipse class="cls-33" cx="75" cy="117" rx="19" ry="8"/></g><path class="cls-1" d="M47,22h56c11,0,21,10,21,21V99c0,11-10,20-21,20H47A20.06,20.06,0,0,1,27,99V43C27,32,36,22,47,22Z"/><polygon class="cls-8" points="24 47 27 43 28 47 32 47 40 44 34 49 27 50 27 54 24 50 20 51 24 47"/><path class="cls-34" d="M49,24H70c-7,6-14,11-19,17-5-4-11-7-16-11A20.26,20.26,0,0,1,49,24Zm24,0h29a20.06,20.06,0,0,1,20,20V57a216.9,216.9,0,0,0-48,6L56,45c-1-1-2-2-3-2C58,36,65,30,73,24ZM72,64c-3,0-6,1-9,2A160.73,160.73,0,0,0,30,78c6-12,12-23,21-33V44a13.8,13.8,0,0,0,4,3A136.5,136.5,0,0,1,72,64ZM29,76V44a21.44,21.44,0,0,1,4-12A99.08,99.08,0,0,1,50,43H49A138.46,138.46,0,0,0,29,76Z"/><polygon class="cls-35" points="87 123 102 119 95 116 82 117 73 120 87 123"/><polygon class="cls-35" points="24 46 27 42 28 46 32 46 40 44 34 48 27 49 27 53 24 49 20 51 24 46"/><polygon class="cls-2" points="0 89 2 89 2 102 0 100 0 89"/><path class="cls-2" d="M8,49A22.2,22.2,0,0,1,30,71C30,83,20,94,8,94a18.84,18.84,0,0,1-8-2V50C2,49,5,49,8,49Z"/><path class="cls-3" d="M8,45c12,0,22,10,22,23A22.2,22.2,0,0,1,8,90c-3,0-6,0-8-1V48l4-3H8Z"/><path class="cls-4" d="M8,45c12,0,22,10,22,23A22.2,22.2,0,0,1,8,90c-3,0-6,0-8-1V88c2,1,5,1,8,1,12,0,22-9,22-21A22.2,22.2,0,0,0,8,46H4L0,49V48l4-3H8Z"/><path class="cls-4" d="M5,90H4V45H5Z"/><polygon class="cls-5" points="0 89 0 86 0 48 4 45 4 90 0 93 0 89"/><polygon class="cls-2" points="2 92 1 96 5 93 2 92"/><polygon class="cls-4" points="0 92 0 93 4 90 4 89 0 92"/><polygon class="cls-4" points="0 48 0 49 4 46 4 45 0 48"/><polygon class="cls-2" points="151 89 148 89 148 102 151 100 151 89"/><path class="cls-2" d="M143,49c-13,0-23,10-23,22a23.26,23.26,0,0,0,23,23c3,0,5-1,8-2V50A22,22,0,0,0,143,49Z"/><path class="cls-3" d="M143,45a22.63,22.63,0,0,0-23,23c0,12,10,22,23,22a22,22,0,0,0,8-1V48l-4-3h-4Z"/><path class="cls-4" d="M143,45a22.63,22.63,0,0,0-23,23c0,12,10,22,23,22a22,22,0,0,0,8-1V88a22,22,0,0,1-8,1c-12,0-22-9-22-21a22.2,22.2,0,0,1,22-22h4l4,3V48l-4-3h-4Z"/><path class="cls-4" d="M146,90h1V45h-1Z"/><polygon class="cls-5" points="151 89 151 86 151 48 147 45 147 90 151 93 151 89"/><polygon class="cls-2" points="148 92 149 96 145 93 148 92"/><polygon class="cls-4" points="151 92 151 93 147 90 147 89 151 92"/><polygon class="cls-4" points="151 48 151 49 147 46 147 45 151 48"/><path class="cls-8" d="M100,51a57.16,57.16,0,0,1,7,8c1,2,1,3-1,4L71,95c-3,3-6,2-8,0L43,74a1.88,1.88,0,0,1,0-3l8-8c1-2,3-1,4,0L67,74c1,1,1,2,3,0,8-7,17-15,25-23C97,49,98,49,100,51Z"/><path class="cls-36" d="M100,44c2,3,5,5,7,8a3.1,3.1,0,0,1,1,2v5h-4L71,88c-3,3-6,2-8,0L47,71H43V64l8-8c1-2,3-1,4,0L67,67c1,2,1,2,3,0,8-7,17-15,25-23C97,42,98,42,100,44Z"/><path class="cls-37" d="M100,49c2,3,5,5,7,8,1,2,1,3-1,5L71,94c-3,2-6,1-8-1L43,73c-1-2-1-2,0-4l8-8a3,3,0,0,1,4,0L67,72c1,2,1,2,3,1,8-8,17-16,25-24C97,48,98,47,100,49Z"/></g></g></g></g></svg>