<svg xmlns="http://www.w3.org/2000/svg" xmlns:xlink="http://www.w3.org/1999/xlink" viewBox="0 0 150 153"><defs><style>.cls-1{fill:none;}.cls-2{fill:#53381d;}.cls-3{fill:#963;}.cls-4{fill:#ca9560;}.cls-5{fill:#af753b;}.cls-6{fill:#254c05;}.cls-7{fill:url(#radial-gradient);}.cls-8{fill:#7cd637;}.cls-34,.cls-9{fill:#fff;}.cls-9{fill-opacity:0.2;}.cls-10{fill:url(#radial-gradient-2);}.cls-11{clip-path:url(#clip-path);}.cls-12{fill-opacity:0;fill:url(#linear-gradient);}.cls-13{fill-opacity:0.05;fill:url(#linear-gradient-2);}.cls-14{fill-opacity:0.09;fill:url(#linear-gradient-3);}.cls-15{fill-opacity:0.14;fill:url(#linear-gradient-4);}.cls-16{fill-opacity:0.19;fill:url(#linear-gradient-5);}.cls-17{fill-opacity:0.24;fill:url(#linear-gradient-6);}.cls-18{fill-opacity:0.29;fill:url(#linear-gradient-7);}.cls-19{fill-opacity:0.33;fill:url(#linear-gradient-8);}.cls-20{fill-opacity:0.38;fill:url(#linear-gradient-9);}.cls-21{fill-opacity:0.43;fill:url(#linear-gradient-10);}.cls-22{fill-opacity:0.47;fill:url(#linear-gradient-11);}.cls-23{fill-opacity:0.53;fill:url(#linear-gradient-12);}.cls-24{fill-opacity:0.57;fill:url(#linear-gradient-13);}.cls-25{fill-opacity:0.62;fill:url(#linear-gradient-14);}.cls-26{fill-opacity:0.67;fill:url(#linear-gradient-15);}.cls-27{fill-opacity:0.71;fill:url(#linear-gradient-16);}.cls-28{fill-opacity:0.76;fill:url(#linear-gradient-17);}.cls-29{fill-opacity:0.81;fill:url(#linear-gradient-18);}.cls-30{fill-opacity:0.86;fill:url(#linear-gradient-19);}.cls-31{fill-opacity:0.91;fill:url(#linear-gradient-20);}.cls-32{fill-opacity:0.95;fill:url(#linear-gradient-21);}.cls-33{fill:#91b740;}.cls-34{fill-opacity:0.3;}.cls-35{fill:#336b05;}.cls-36{fill:url(#linear-gradient-22);}</style><radialGradient id="radial-gradient" cx="-674.95" cy="-2469.48" r="46.99" gradientTransform="matrix(0, 1.1, 1.44, -0.01, 3625.83, -1251.01)" gradientUnits="userSpaceOnUse"><stop offset="0" stop-color="#5ab70e"/><stop offset="0.85" stop-color="#469109"/><stop offset="1" stop-color="#336b05"/></radialGradient><radialGradient id="radial-gradient-2" cx="75" cy="378.53" r="48.45" gradientTransform="matrix(1, 0, 0, -1, -0.01, -1948.49)" gradientUnits="userSpaceOnUse"><stop offset="0" stop-color="#8dbd25"/><stop offset="1" stop-color="#5ab70e"/></radialGradient><clipPath id="clip-path"><path class="cls-1" d="M47,23h56a20.06,20.06,0,0,1,20,20V99c0,11-9,21-20,21H47c-11,0-20-10-20-21V43A20.06,20.06,0,0,1,47,23Z"/></clipPath><linearGradient id="linear-gradient" x1="75" y1="-2049.72" x2="75" y2="-2020.43" gradientTransform="matrix(1, 0, 0, -1, 0, -1948.5)" gradientUnits="userSpaceOnUse"><stop offset="0" stop-color="#5ab70e"/><stop offset="1" stop-color="#8dbd25"/></linearGradient><linearGradient id="linear-gradient-2" x1="75" y1="-2050.23" x2="75" y2="-2021.87" gradientTransform="matrix(1, 0, 0, -1, 0, -1948.5)" gradientUnits="userSpaceOnUse"><stop offset="0" stop-color="#5db710"/><stop offset="1" stop-color="#8dbd26"/></linearGradient><linearGradient id="linear-gradient-3" x1="75" y1="-2050.74" x2="75" y2="-2023.31" gradientTransform="matrix(1, 0, 0, -1, 0, -1948.5)" gradientUnits="userSpaceOnUse"><stop offset="0" stop-color="#5fb713"/><stop offset="1" stop-color="#8dbc28"/></linearGradient><linearGradient id="linear-gradient-4" x1="75" y1="-2051.25" x2="75" y2="-2024.76" gradientTransform="matrix(1, 0, 0, -1, 0, -1948.5)" gradientUnits="userSpaceOnUse"><stop offset="0" stop-color="#62b715"/><stop offset="1" stop-color="#8ebc29"/></linearGradient><linearGradient id="linear-gradient-5" x1="75" y1="-2051.76" x2="75" y2="-2026.2" gradientTransform="matrix(1, 0, 0, -1, 0, -1948.5)" gradientUnits="userSpaceOnUse"><stop offset="0" stop-color="#64b718"/><stop offset="1" stop-color="#8ebc2a"/></linearGradient><linearGradient id="linear-gradient-6" x1="75" y1="-2052.27" x2="75" y2="-2027.64" gradientTransform="matrix(1, 0, 0, -1, 0, -1948.5)" gradientUnits="userSpaceOnUse"><stop offset="0" stop-color="#67b71a"/><stop offset="1" stop-color="#8ebc2b"/></linearGradient><linearGradient id="linear-gradient-7" x1="75" y1="-2052.78" x2="75" y2="-2029.09" gradientTransform="matrix(1, 0, 0, -1, 0, -1948.5)" gradientUnits="userSpaceOnUse"><stop offset="0" stop-color="#6ab71c"/><stop offset="1" stop-color="#8ebb2d"/></linearGradient><linearGradient id="linear-gradient-8" x1="75" y1="-2053.3" x2="75" y2="-2030.53" gradientTransform="matrix(1, 0, 0, -1, 0, -1948.5)" gradientUnits="userSpaceOnUse"><stop offset="0" stop-color="#6cb71f"/><stop offset="1" stop-color="#8ebb2e"/></linearGradient><linearGradient id="linear-gradient-9" x1="75" y1="-2053.81" x2="75" y2="-2031.97" gradientTransform="matrix(1, 0, 0, -1, 0, -1948.5)" gradientUnits="userSpaceOnUse"><stop offset="0" stop-color="#6fb721"/><stop offset="1" stop-color="#8fbb2f"/></linearGradient><linearGradient id="linear-gradient-10" x1="75" y1="-2054.32" x2="75" y2="-2033.41" gradientTransform="matrix(1, 0, 0, -1, 0, -1948.5)" gradientUnits="userSpaceOnUse"><stop offset="0" stop-color="#72b723"/><stop offset="1" stop-color="#8fba31"/></linearGradient><linearGradient id="linear-gradient-11" x1="530.21" y1="-518.84" x2="530.21" y2="-518.69" gradientTransform="matrix(76, 0, 0, -31, -40221, -15977.5)" gradientUnits="userSpaceOnUse"><stop offset="0" stop-color="#74b726"/><stop offset="1" stop-color="#8fba32"/></linearGradient><linearGradient id="linear-gradient-12" x1="75" y1="-2055.34" x2="75" y2="-2036.3" gradientTransform="matrix(1, 0, 0, -1, 0, -1948.5)" gradientUnits="userSpaceOnUse"><stop offset="0" stop-color="#77b728"/><stop offset="1" stop-color="#8fba33"/></linearGradient><linearGradient id="linear-gradient-13" x1="529.16" y1="-512.43" x2="529.16" y2="-512.29" gradientTransform="matrix(70, 0, 0, -28, -36966, -14241)" gradientUnits="userSpaceOnUse"><stop offset="0" stop-color="#79b72b"/><stop offset="1" stop-color="#8fba34"/></linearGradient><linearGradient id="linear-gradient-14" x1="75" y1="-2056.37" x2="75" y2="-2039.19" gradientTransform="matrix(1, 0, 0, -1, 0, -1948.5)" gradientUnits="userSpaceOnUse"><stop offset="0" stop-color="#7cb72d"/><stop offset="1" stop-color="#8fb936"/></linearGradient><linearGradient id="linear-gradient-15" x1="527.44" y1="-504.49" x2="527.44" y2="-504.34" gradientTransform="matrix(62, 0, 0, -25, -32626, -12503.5)" gradientUnits="userSpaceOnUse"><stop offset="0" stop-color="#7fb72f"/><stop offset="1" stop-color="#90b937"/></linearGradient><linearGradient id="linear-gradient-16" x1="75.5" y1="-2057.39" x2="75.5" y2="-2042.07" gradientTransform="matrix(1, 0, 0, -1, 0, -1948.5)" gradientUnits="userSpaceOnUse"><stop offset="0" stop-color="#81b732"/><stop offset="1" stop-color="#90b938"/></linearGradient><linearGradient id="linear-gradient-17" x1="75" y1="-2057.9" x2="75" y2="-2043.52" gradientTransform="matrix(1, 0, 0, -1, 0, -1948.5)" gradientUnits="userSpaceOnUse"><stop offset="0" stop-color="#84b734"/><stop offset="1" stop-color="#90b83a"/></linearGradient><linearGradient id="linear-gradient-18" x1="524.54" y1="-490.36" x2="524.54" y2="-490.21" gradientTransform="matrix(52, 0, 0, -21, -27201, -10187.5)" gradientUnits="userSpaceOnUse"><stop offset="0" stop-color="#87b736"/><stop offset="1" stop-color="#90b83b"/></linearGradient><linearGradient id="linear-gradient-19" x1="523.04" y1="-481.07" x2="523.04" y2="-480.92" gradientTransform="matrix(48, 0, 0, -19, -25031, -9029.5)" gradientUnits="userSpaceOnUse"><stop offset="0" stop-color="#89b739"/><stop offset="1" stop-color="#90b83c"/></linearGradient><linearGradient id="linear-gradient-20" x1="521.27" y1="-475.65" x2="521.27" y2="-475.5" gradientTransform="matrix(44, 0, 0, -18, -22861, -8451)" gradientUnits="userSpaceOnUse"><stop offset="0" stop-color="#8cb73b"/><stop offset="1" stop-color="#91b83d"/></linearGradient><linearGradient id="linear-gradient-21" x1="519.72" y1="-469.59" x2="519.72" y2="-469.44" gradientTransform="matrix(41, 0, 0, -17, -21233, -7871.5)" gradientUnits="userSpaceOnUse"><stop offset="0" stop-color="#8eb73e"/><stop offset="1" stop-color="#91b73f"/></linearGradient><linearGradient id="linear-gradient-22" x1="71.5" y1="-1992.96" x2="71.5" y2="-2058.35" gradientTransform="matrix(1, 0, 0, -1, 0, -1948.5)" gradientUnits="userSpaceOnUse"><stop offset="0" stop-color="#317100"/><stop offset="1" stop-color="#4eb300"/></linearGradient></defs><title>exit</title><g id="Layer_2" data-name="Layer 2"><g id="Layer_1-2" data-name="Layer 1"><g id="Layer_1-3" data-name="Layer_1"><g id="_929693824" data-name=" 929693824"><rect class="cls-2" x="2" y="7" width="146" height="146" rx="31" ry="31"/><rect class="cls-3" x="2" width="146" height="146" rx="31" ry="31"/><rect class="cls-4" x="4" y="3" width="141" height="141" rx="30" ry="30"/><rect class="cls-5" x="5" y="3" width="140" height="140" rx="30" ry="30"/><rect class="cls-2" x="9" y="7" width="131" height="131" rx="28" ry="28"/><rect class="cls-6" x="18" y="16" width="115" height="115" rx="24" ry="24"/><rect class="cls-7" x="19" y="17" width="112" height="112" rx="24" ry="24"/><polygon class="cls-8" points="87 124 102 121 94 117 82 118 72 121 87 124"/><path class="cls-9" d="M107,18c12,0,22,9,23,22L75,73,23,29c-2,3-3,8-3,12L75,73,28,23a27,27,0,0,1,15-5L75,73Z"/><path class="cls-8" d="M47,22h56a20.35,20.35,0,0,1,15,6,22,22,0,0,1,6,15V99a20.35,20.35,0,0,1-6,15c-4,4-9,7-15,7H47c-6,0-11-3-15-7a20.35,20.35,0,0,1-6-15V43a22,22,0,0,1,6-15A20.35,20.35,0,0,1,47,22Zm56,2H47a23.89,23.89,0,0,0-14,5c-3,4-6,9-6,14V99a20.26,20.26,0,0,0,6,14,19.74,19.74,0,0,0,14,6h56a19.74,19.74,0,0,0,14-6,20.26,20.26,0,0,0,6-14V43c0-5-3-10-6-14A23.89,23.89,0,0,0,103,24Z"/><path class="cls-10" d="M47,23h56a20.06,20.06,0,0,1,20,20V99c0,11-9,21-20,21H47c-11,0-20-10-20-21V43A20.06,20.06,0,0,1,47,23Z"/><g class="cls-11"><path id="_1" data-name="1" class="cls-12" d="M75,95c31,0,56,10,56,22,0,13-25,23-56,23s-56-10-56-23C19,105,44,95,75,95Z"/><path class="cls-13" d="M75,95c30,0,55,10,55,22s-25,22-55,22-55-10-55-22S45,95,75,95Z"/><path class="cls-14" d="M75,96c29,0,53,10,53,21,0,12-24,22-53,22s-53-10-53-22C22,106,46,96,75,96Z"/><path class="cls-15" d="M75,97c28,0,51,9,51,20,0,12-23,21-51,21s-51-9-51-21C24,106,47,97,75,97Z"/><path class="cls-16" d="M75,97c27,0,49,9,49,20s-22,20-49,20-49-9-49-20S48,97,75,97Z"/><path class="cls-17" d="M75,98c26,0,47,9,47,19,0,11-21,19-47,19s-47-8-47-19C28,107,49,98,75,98Z"/><path class="cls-18" d="M75,99c25,0,46,8,46,18s-21,19-46,19-46-9-46-19S50,99,75,99Z"/><path class="cls-19" d="M75,100c24,0,44,8,44,17,0,10-20,18-44,18s-44-8-44-18C31,108,51,100,75,100Z"/><path class="cls-20" d="M75,100c23,0,42,8,42,17,0,10-19,17-42,17s-42-7-42-17C33,108,52,100,75,100Z"/><path class="cls-21" d="M75,101c22,0,40,7,40,16s-18,16-40,16-40-7-40-16S53,101,75,101Z"/><path class="cls-22" d="M75,102c21,0,38,7,38,15,0,9-17,16-38,16s-38-7-38-16C37,109,54,102,75,102Z"/><path class="cls-23" d="M75,103c20,0,37,6,37,14s-17,15-37,15-37-7-37-15S55,103,75,103Z"/><path class="cls-24" d="M75,103c19,0,35,7,35,14,0,8-16,14-35,14s-35-6-35-14C40,110,56,103,75,103Z"/><path class="cls-25" d="M75,104c18,0,33,6,33,13,0,8-15,14-33,14s-33-6-33-14C42,110,57,104,75,104Z"/><path class="cls-26" d="M75,105c17,0,31,5,31,12s-14,13-31,13-31-6-31-13S58,105,75,105Z"/><path class="cls-27" d="M75,105c16,0,30,6,30,12,0,7-14,12-30,12s-29-5-29-12C46,111,59,105,75,105Z"/><path class="cls-28" d="M75,106c15,0,28,5,28,11s-13,11-28,11-28-5-28-11S60,106,75,106Z"/><path class="cls-29" d="M75,107c14,0,26,5,26,10,0,6-12,11-26,11s-26-5-26-11C49,112,61,107,75,107Z"/><path class="cls-30" d="M75,108c13,0,24,4,24,9,0,6-11,10-24,10s-24-4-24-10C51,112,62,108,75,108Z"/><path class="cls-31" d="M75,108c12,0,22,4,22,9s-10,9-22,9-22-4-22-9S63,108,75,108Z"/><path class="cls-32" d="M75,109c11,0,21,4,21,8,0,5-10,9-21,9s-20-4-20-9C55,113,64,109,75,109Z"/><ellipse class="cls-33" cx="75" cy="117" rx="19" ry="8"/></g><path class="cls-1" d="M47,23h56a20.06,20.06,0,0,1,20,20V99c0,11-9,21-20,21H47c-11,0-20-10-20-21V43A20.06,20.06,0,0,1,47,23Z"/><polygon class="cls-8" points="24 48 26 44 28 48 32 47 40 44 34 49 27 51 26 55 24 51 20 51 24 48"/><path class="cls-34" d="M48,25H69A97.63,97.63,0,0,0,51,42,99.08,99.08,0,0,0,34,31,19.74,19.74,0,0,1,48,25Zm25,0h29c11,0,19,9,19,20V58c-14,0-30,2-47,5-6-6-12-12-18-17a13.8,13.8,0,0,1-4-3A91,91,0,0,1,73,25ZM72,64c-3,1-6,2-9,2Q45,72,30,78A138.46,138.46,0,0,1,50,45l1-1,3,3C61,52,66,58,72,64ZM29,76V45c0-5,1-9,4-13,6,4,11,7,17,11l-1,1A155,155,0,0,0,29,76Z"/><polygon class="cls-35" points="87 123 102 120 94 116 82 118 73 121 87 123"/><polygon class="cls-35" points="24 47 26 43 28 47 32 46 40 44 34 48 27 50 26 54 24 50 20 51 24 47"/><polygon class="cls-2" points="0 89 2 89 2 103 0 101 0 89"/><path class="cls-2" d="M8,49c12,0,22,10,22,23A22.2,22.2,0,0,1,8,94c-3,0-6,0-8-1V50C2,50,5,49,8,49Z"/><path class="cls-3" d="M8,45c12,0,22,11,22,23A22.2,22.2,0,0,1,8,90c-3,0-6,0-8-1V49l4-3H3C5,46,6,45,8,45Z"/><path class="cls-4" d="M8,45c12,0,22,11,22,23A22.2,22.2,0,0,1,8,90c-3,0-6,0-8-1V88a18.54,18.54,0,0,0,7,2c13,0,22-10,22-22S20,46,7,46a7.56,7.56,0,0,0-4,1H3L0,50V49l4-3H3C5,46,6,45,8,45Z"/><path class="cls-4" d="M4,90H3V46H4Z"/><polygon class="cls-5" points="0 89 0 87 0 49 4 46 4 90 0 93 0 89"/><polygon class="cls-2" points="2 92 1 96 5 93 2 92"/><polygon class="cls-4" points="0 92 0 93 4 90 4 89 0 92"/><polygon class="cls-4" points="0 49 0 50 4 47 4 46 0 49"/><polygon class="cls-2" points="150 89 148 89 148 103 150 101 150 89"/><path class="cls-2" d="M143,49a22.63,22.63,0,0,0-23,23c0,12,10,22,23,22,2,0,5,0,7-1V50C148,50,145,49,143,49Z"/><path class="cls-3" d="M143,45a23.26,23.26,0,0,0-23,23c0,12,10,22,23,22,2,0,5,0,7-1V49l-3-3h0C145,46,144,45,143,45Z"/><path class="cls-4" d="M143,45a23.26,23.26,0,0,0-23,23c0,12,10,22,23,22,2,0,5,0,7-1V88a18.54,18.54,0,0,1-7,2,22,22,0,0,1,0-44,7.56,7.56,0,0,1,4,1h0l3,3V49l-3-3h0C145,46,144,45,143,45Z"/><path class="cls-4" d="M146,90h1V46h-1Z"/><polygon class="cls-5" points="150 89 150 87 150 49 147 46 147 90 150 93 150 89"/><polygon class="cls-2" points="148 92 149 96 145 93 148 92"/><polygon class="cls-4" points="150 92 150 93 147 90 147 89 150 92"/><polygon class="cls-4" points="150 49 150 50 147 47 147 46 150 49"/><path class="cls-8" d="M59,86c2,1,3,1,3-2V77h7c1,0,2-1,2-3V73h0V71c0-2-1-3-2-3H62V61c0-2-1-3-2-2L43,71v3Zm9-6h2a1,1,0,0,1,1-1h0a1,1,0,0,1,1,1h2c1,0,3,1,3,2v5H88V57H77v5c0,1-2,2-3,2H68a2.15,2.15,0,0,1-2-2V51h0V50a4.72,4.72,0,0,1,5-5H94a5.76,5.76,0,0,1,6,6V93a6.45,6.45,0,0,1-6,6H71a4.72,4.72,0,0,1-5-5V93h0V82A2.15,2.15,0,0,1,68,80Z"/><path class="cls-6" d="M59,83c2,1,3,1,3-2V74h7c1,0,2-1,2-3V69h0V68c0-2-1-3-2-3H62V57c0-2-1-2-2-1L43,68v4h2Zm9-7h6a3.19,3.19,0,0,1,3,3v5H88V54H77v5c0,1-2,2-3,2H68a2.15,2.15,0,0,1-2-2V47h0c0-3,2-6,5-6H94a6.45,6.45,0,0,1,6,6V90a6.45,6.45,0,0,1-6,6H71c-3,0-5-3-5-6h0V79C66,77,67,76,68,76Z"/><path class="cls-36" d="M59,85c2,1,3,1,3-2V76h7a2.15,2.15,0,0,0,2-2V72h0V70c0-2-1-3-2-3H62V60c0-2-1-3-2-2L43,71v2Zm9-6h6c1,0,3,1,3,2v5H88V56H77v5c0,1-2,2-3,2H68a2.15,2.15,0,0,1-2-2V50h0V49a4.72,4.72,0,0,1,5-5H94a5.76,5.76,0,0,1,6,6V92a6.45,6.45,0,0,1-6,6H71a4.72,4.72,0,0,1-5-5V92h0V81A2.15,2.15,0,0,1,68,79Z"/></g></g></g></g></svg>