<svg xmlns="http://www.w3.org/2000/svg" xmlns:xlink="http://www.w3.org/1999/xlink" viewBox="0 0 151 152"><defs><style>.cls-1{fill:none;}.cls-2{fill:#53381d;}.cls-3{fill:#963;}.cls-4{fill:#ca9560;}.cls-5{fill:#af753b;}.cls-6{fill:#254c05;}.cls-7{fill:url(#radial-gradient);}.cls-8{fill:#7cd637;}.cls-34,.cls-9{fill:#fff;}.cls-9{fill-opacity:0.2;}.cls-10{fill:url(#radial-gradient-2);}.cls-11{clip-path:url(#clip-path);}.cls-12{fill-opacity:0;fill:url(#linear-gradient);}.cls-13{fill-opacity:0.05;fill:url(#linear-gradient-2);}.cls-14{fill-opacity:0.09;fill:url(#linear-gradient-3);}.cls-15{fill-opacity:0.14;fill:url(#linear-gradient-4);}.cls-16{fill-opacity:0.19;fill:url(#linear-gradient-5);}.cls-17{fill-opacity:0.24;fill:url(#linear-gradient-6);}.cls-18{fill-opacity:0.29;fill:url(#linear-gradient-7);}.cls-19{fill-opacity:0.33;fill:url(#linear-gradient-8);}.cls-20{fill-opacity:0.38;fill:url(#linear-gradient-9);}.cls-21{fill-opacity:0.43;fill:url(#linear-gradient-10);}.cls-22{fill-opacity:0.47;fill:url(#linear-gradient-11);}.cls-23{fill-opacity:0.53;fill:url(#linear-gradient-12);}.cls-24{fill-opacity:0.57;fill:url(#linear-gradient-13);}.cls-25{fill-opacity:0.62;fill:url(#linear-gradient-14);}.cls-26{fill-opacity:0.67;fill:url(#linear-gradient-15);}.cls-27{fill-opacity:0.71;fill:url(#linear-gradient-16);}.cls-28{fill-opacity:0.76;fill:url(#linear-gradient-17);}.cls-29{fill-opacity:0.81;fill:url(#linear-gradient-18);}.cls-30{fill-opacity:0.86;fill:url(#linear-gradient-19);}.cls-31{fill-opacity:0.91;fill:url(#linear-gradient-20);}.cls-32{fill-opacity:0.95;fill:url(#linear-gradient-21);}.cls-33{fill:#91b740;}.cls-34{fill-opacity:0.3;}.cls-35{fill:#336b05;}.cls-36{fill:url(#linear-gradient-22);}</style><radialGradient id="radial-gradient" cx="-674.75" cy="635.55" r="46.99" gradientTransform="matrix(0, 1.1, 1.44, -0.01, -839.09, 820.17)" gradientUnits="userSpaceOnUse"><stop offset="0" stop-color="#5ab70e"/><stop offset="0.85" stop-color="#469109"/><stop offset="1" stop-color="#336b05"/></radialGradient><radialGradient id="radial-gradient-2" cx="75.25" cy="3140.9" r="48.44" gradientTransform="matrix(1, 0, 0, -1, 0, 3211.47)" gradientUnits="userSpaceOnUse"><stop offset="0" stop-color="#8dbd25"/><stop offset="1" stop-color="#5ab70e"/></radialGradient><clipPath id="clip-path"><path class="cls-1" d="M47,22h56a21.12,21.12,0,0,1,21,21V98a21.12,21.12,0,0,1-21,21H47c-11,0-20-9-20-21V43C27,31,36,22,47,22Z"/></clipPath><linearGradient id="linear-gradient" x1="75.5" y1="3110.96" x2="75.5" y2="3140.25" gradientTransform="matrix(1, 0, 0, -1, 0, 3211.5)" gradientUnits="userSpaceOnUse"><stop offset="0" stop-color="#5ab70e"/><stop offset="1" stop-color="#8dbd25"/></linearGradient><linearGradient id="linear-gradient-2" x1="75.5" y1="3110.45" x2="75.5" y2="3138.81" gradientTransform="matrix(1, 0, 0, -1, 0, 3211.5)" gradientUnits="userSpaceOnUse"><stop offset="0" stop-color="#5db710"/><stop offset="1" stop-color="#8dbd26"/></linearGradient><linearGradient id="linear-gradient-3" x1="75" y1="3109.94" x2="75" y2="3137.36" gradientTransform="matrix(1, 0, 0, -1, 0, 3211.5)" gradientUnits="userSpaceOnUse"><stop offset="0" stop-color="#5fb713"/><stop offset="1" stop-color="#8dbc28"/></linearGradient><linearGradient id="linear-gradient-4" x1="75" y1="3109.43" x2="75" y2="3135.92" gradientTransform="matrix(1, 0, 0, -1, 0, 3211.5)" gradientUnits="userSpaceOnUse"><stop offset="0" stop-color="#62b715"/><stop offset="1" stop-color="#8ebc29"/></linearGradient><linearGradient id="linear-gradient-5" x1="75" y1="3108.92" x2="75" y2="3134.48" gradientTransform="matrix(1, 0, 0, -1, 0, 3211.5)" gradientUnits="userSpaceOnUse"><stop offset="0" stop-color="#64b718"/><stop offset="1" stop-color="#8ebc2a"/></linearGradient><linearGradient id="linear-gradient-6" x1="75.5" y1="3108.41" x2="75.5" y2="3133.04" gradientTransform="matrix(1, 0, 0, -1, 0, 3211.5)" gradientUnits="userSpaceOnUse"><stop offset="0" stop-color="#67b71a"/><stop offset="1" stop-color="#8ebc2b"/></linearGradient><linearGradient id="linear-gradient-7" x1="75.5" y1="3107.89" x2="75.5" y2="3131.59" gradientTransform="matrix(1, 0, 0, -1, 0, 3211.5)" gradientUnits="userSpaceOnUse"><stop offset="0" stop-color="#6ab71c"/><stop offset="1" stop-color="#8ebb2d"/></linearGradient><linearGradient id="linear-gradient-8" x1="75" y1="3107.38" x2="75" y2="3130.15" gradientTransform="matrix(1, 0, 0, -1, 0, 3211.5)" gradientUnits="userSpaceOnUse"><stop offset="0" stop-color="#6cb71f"/><stop offset="1" stop-color="#8ebb2e"/></linearGradient><linearGradient id="linear-gradient-9" x1="75" y1="3106.87" x2="75" y2="3128.71" gradientTransform="matrix(1, 0, 0, -1, 0, 3211.5)" gradientUnits="userSpaceOnUse"><stop offset="0" stop-color="#6fb721"/><stop offset="1" stop-color="#8fbb2f"/></linearGradient><linearGradient id="linear-gradient-10" x1="75" y1="3106.36" x2="75" y2="3127.26" gradientTransform="matrix(1, 0, 0, -1, 0, 3211.5)" gradientUnits="userSpaceOnUse"><stop offset="0" stop-color="#72b723"/><stop offset="1" stop-color="#8fba31"/></linearGradient><linearGradient id="linear-gradient-11" x1="75.5" y1="3105.85" x2="75.5" y2="3125.82" gradientTransform="matrix(1, 0, 0, -1, 0, 3211.5)" gradientUnits="userSpaceOnUse"><stop offset="0" stop-color="#74b726"/><stop offset="1" stop-color="#8fba32"/></linearGradient><linearGradient id="linear-gradient-12" x1="75.5" y1="3105.34" x2="75.5" y2="3124.38" gradientTransform="matrix(1, 0, 0, -1, 0, 3211.5)" gradientUnits="userSpaceOnUse"><stop offset="0" stop-color="#77b728"/><stop offset="1" stop-color="#8fba33"/></linearGradient><linearGradient id="linear-gradient-13" x1="75" y1="3104.83" x2="75" y2="3122.93" gradientTransform="matrix(1, 0, 0, -1, 0, 3211.5)" gradientUnits="userSpaceOnUse"><stop offset="0" stop-color="#79b72b"/><stop offset="1" stop-color="#8fba34"/></linearGradient><linearGradient id="linear-gradient-14" x1="75" y1="3104.31" x2="75" y2="3121.49" gradientTransform="matrix(1, 0, 0, -1, 0, 3211.5)" gradientUnits="userSpaceOnUse"><stop offset="0" stop-color="#7cb72d"/><stop offset="1" stop-color="#8fb936"/></linearGradient><linearGradient id="linear-gradient-15" x1="75.5" y1="3103.8" x2="75.5" y2="3120.05" gradientTransform="matrix(1, 0, 0, -1, 0, 3211.5)" gradientUnits="userSpaceOnUse"><stop offset="0" stop-color="#7fb72f"/><stop offset="1" stop-color="#90b937"/></linearGradient><linearGradient id="linear-gradient-16" x1="75.5" y1="3103.29" x2="75.5" y2="3118.6" gradientTransform="matrix(1, 0, 0, -1, 0, 3211.5)" gradientUnits="userSpaceOnUse"><stop offset="0" stop-color="#81b732"/><stop offset="1" stop-color="#90b938"/></linearGradient><linearGradient id="linear-gradient-17" x1="75.5" y1="3102.78" x2="75.5" y2="3117.16" gradientTransform="matrix(1, 0, 0, -1, 0, 3211.5)" gradientUnits="userSpaceOnUse"><stop offset="0" stop-color="#84b734"/><stop offset="1" stop-color="#90b83a"/></linearGradient><linearGradient id="linear-gradient-18" x1="75" y1="3102.27" x2="75" y2="3115.72" gradientTransform="matrix(1, 0, 0, -1, 0, 3211.5)" gradientUnits="userSpaceOnUse"><stop offset="0" stop-color="#87b736"/><stop offset="1" stop-color="#90b83b"/></linearGradient><linearGradient id="linear-gradient-19" x1="75" y1="3101.76" x2="75" y2="3114.28" gradientTransform="matrix(1, 0, 0, -1, 0, 3211.5)" gradientUnits="userSpaceOnUse"><stop offset="0" stop-color="#89b739"/><stop offset="1" stop-color="#90b83c"/></linearGradient><linearGradient id="linear-gradient-20" x1="75.5" y1="3101.24" x2="75.5" y2="3112.83" gradientTransform="matrix(1, 0, 0, -1, 0, 3211.5)" gradientUnits="userSpaceOnUse"><stop offset="0" stop-color="#8cb73b"/><stop offset="1" stop-color="#91b83d"/></linearGradient><linearGradient id="linear-gradient-21" x1="75.5" y1="3100.73" x2="75.5" y2="3111.39" gradientTransform="matrix(1, 0, 0, -1, 0, 3211.5)" gradientUnits="userSpaceOnUse"><stop offset="0" stop-color="#8eb73e"/><stop offset="1" stop-color="#91b73f"/></linearGradient><linearGradient id="linear-gradient-22" x1="75.26" y1="3160.62" x2="75.26" y2="3088.58" gradientTransform="matrix(1, 0, 0, -1, 0, 3211.5)" gradientUnits="userSpaceOnUse"><stop offset="0" stop-color="#317100"/><stop offset="1" stop-color="#4eb300"/></linearGradient></defs><title>home</title><g id="Layer_2" data-name="Layer 2"><g id="Layer_1-2" data-name="Layer 1"><g id="Layer_1-3" data-name="Layer_1"><g id="_926453264" data-name=" 926453264"><rect class="cls-2" x="2" y="6" width="146" height="146" rx="31" ry="31"/><rect class="cls-3" x="2" width="146" height="146" rx="31" ry="31"/><rect class="cls-4" x="5" y="2" width="141" height="141" rx="30" ry="30"/><rect class="cls-5" x="5" y="3" width="140" height="140" rx="30" ry="30"/><rect class="cls-2" x="10" y="7" width="131" height="131" rx="28" ry="28"/><rect class="cls-6" x="18" y="15" width="115" height="115" rx="24" ry="24"/><rect class="cls-7" x="19" y="17" width="112" height="112" rx="24" ry="24"/><polygon class="cls-8" points="87 123 102 120 95 116 82 118 72 120 87 123"/><path class="cls-9" d="M107,17c12,0,23,10,24,22L75,73,24,28c-3,4-4,8-4,13L75,73,29,22a23.89,23.89,0,0,1,14-5L75,73Z"/><path class="cls-8" d="M47,21h56c6,0,11,3,15,7a20.35,20.35,0,0,1,6,15V98c0,6-2,12-6,16-4,3-9,6-15,6H47c-5,0-11-3-15-6-4-4-6-10-6-16V43a20.35,20.35,0,0,1,6-15C36,24,42,21,47,21Zm56,2H47a19.74,19.74,0,0,0-14,6c-3,3-5,8-5,14V98c0,6,2,11,5,14a19.74,19.74,0,0,0,14,6h56c6,0,10-2,14-6,4-3,6-8,6-14V43c0-6-2-11-6-14C113,25,109,23,103,23Z"/><path class="cls-10" d="M47,22h56a21.12,21.12,0,0,1,21,21V98a21.12,21.12,0,0,1-21,21H47c-11,0-20-9-20-21V43C27,31,36,22,47,22Z"/><g class="cls-11"><path id="_1" data-name="1" class="cls-12" d="M75,94c31,0,57,10,57,23,0,12-26,22-57,22s-56-10-56-22C19,104,44,94,75,94Z"/><path class="cls-13" d="M75,95c30,0,55,9,55,22,0,12-25,22-55,22s-54-10-54-22C21,104,45,95,75,95Z"/><path class="cls-14" d="M75,95c29,0,53,10,53,22,0,11-24,21-53,21s-53-10-53-21C22,105,46,95,75,95Z"/><path class="cls-15" d="M75,96c28,0,51,9,51,21,0,11-23,20-51,20s-51-9-51-20C24,105,47,96,75,96Z"/><path class="cls-16" d="M75,97c27,0,49,9,49,20s-22,19-49,19-49-8-49-19S48,97,75,97Z"/><path class="cls-17" d="M75,98c26,0,48,8,48,19,0,10-22,19-48,19s-47-9-47-19C28,106,49,98,75,98Z"/><path class="cls-18" d="M75,98c25,0,46,8,46,19,0,10-21,18-46,18s-45-8-45-18C30,106,50,98,75,98Z"/><path class="cls-19" d="M75,99c24,0,44,8,44,18,0,9-20,17-44,17s-44-8-44-17C31,107,51,99,75,99Z"/><path class="cls-20" d="M75,100c23,0,42,7,42,17,0,9-19,17-42,17s-42-8-42-17C33,107,52,100,75,100Z"/><path class="cls-21" d="M75,100c22,0,40,8,40,17s-18,16-40,16-40-7-40-16S53,100,75,100Z"/><path class="cls-22" d="M75,101c21,0,39,7,39,16,0,8-18,15-39,15s-38-7-38-15C37,108,54,101,75,101Z"/><path class="cls-23" d="M75,102c20,0,37,6,37,15,0,8-17,14-37,14s-36-6-36-14C39,108,55,102,75,102Z"/><path class="cls-24" d="M75,103c19,0,35,6,35,14,0,7-16,14-35,14s-35-7-35-14C40,109,56,103,75,103Z"/><path class="cls-25" d="M75,103c19,0,33,6,33,14,0,7-14,13-33,13-18,0-33-6-33-13C42,109,57,103,75,103Z"/><path class="cls-26" d="M75,104c18,0,32,6,32,13s-14,12-32,12c-17,0-31-5-31-12S58,104,75,104Z"/><path class="cls-27" d="M75,105c17,0,30,5,30,12,0,6-13,11-30,11-16,0-29-5-29-11C46,110,59,105,75,105Z"/><path class="cls-28" d="M75,105c16,0,28,5,28,12,0,6-12,11-28,11-15,0-27-5-27-11C48,110,60,105,75,105Z"/><path class="cls-29" d="M75,106c15,0,26,5,26,11,0,5-11,10-26,10-14,0-26-5-26-10C49,111,61,106,75,106Z"/><path class="cls-30" d="M75,107c14,0,24,4,24,10,0,5-10,9-24,9-13,0-24-4-24-9C51,111,62,107,75,107Z"/><path class="cls-31" d="M75,108c13,0,23,4,23,9s-10,9-23,9c-12,0-22-4-22-9S63,108,75,108Z"/><path class="cls-32" d="M75,108c12,0,21,4,21,9,0,4-9,8-21,8-11,0-20-4-20-8C55,112,64,108,75,108Z"/><ellipse class="cls-33" cx="75" cy="117" rx="19" ry="8"/></g><path class="cls-1" d="M47,22h56a21.12,21.12,0,0,1,21,21V98a21.12,21.12,0,0,1-21,21H47c-11,0-20-9-20-21V43C27,31,36,22,47,22Z"/><polygon class="cls-8" points="24 47 27 43 28 47 32 47 40 43 34 49 27 50 27 54 24 50 20 50 24 47"/><path class="cls-34" d="M49,24H70A104.55,104.55,0,0,0,51,41,152.58,152.58,0,0,0,35,30,20.26,20.26,0,0,1,49,24Zm24,0h29a20.06,20.06,0,0,1,20,20V57a216.9,216.9,0,0,0-48,6A152.74,152.74,0,0,0,56,45l-3-3C58,36,65,30,73,24ZM72,63l-9,3A255.09,255.09,0,0,0,30,77c6-11,12-22,21-33h0a5.2,5.2,0,0,0,4,2C61,52,67,57,72,63ZM29,76V44a21.44,21.44,0,0,1,4-12A99.08,99.08,0,0,1,50,43H49A138.46,138.46,0,0,0,29,76Z"/><polygon class="cls-35" points="87 123 102 119 95 115 82 117 73 120 87 123"/><polygon class="cls-35" points="24 46 27 42 28 46 32 46 40 43 34 48 27 49 27 53 24 49 20 50 24 46"/><polygon class="cls-2" points="0 88 2 88 2 102 0 100 0 88"/><path class="cls-2" d="M8,48c12,0,22,10,22,23A22.2,22.2,0,0,1,8,93c-3,0-6,0-8-1V50A18.84,18.84,0,0,1,8,48Z"/><path class="cls-3" d="M8,45A22.2,22.2,0,0,1,30,67C30,80,20,90,8,90a18.84,18.84,0,0,1-8-2V48l4-3H8Z"/><path class="cls-4" d="M8,45A22.2,22.2,0,0,1,30,67C30,80,20,90,8,90a18.84,18.84,0,0,1-8-2H0c2,1,5,1,8,1A22.2,22.2,0,0,0,30,67C30,55,20,46,8,46H4L0,49V48l4-3H8Z"/><path class="cls-4" d="M5,90a1,1,0,0,1-1-1V45H5Z"/><polygon class="cls-5" points="0 88 0 86 0 48 4 45 4 89 0 92 0 88"/><polygon class="cls-2" points="2 91 1 96 5 93 2 91"/><polygon class="cls-4" points="0 92 0 92 4 89 4 89 0 92"/><polygon class="cls-4" points="0 48 0 49 4 46 4 45 0 48"/><polygon class="cls-2" points="151 88 148 88 148 102 151 100 151 88"/><path class="cls-2" d="M143,48a22.63,22.63,0,0,0-23,23c0,12,10,22,23,22a22,22,0,0,0,8-1V50C148,49,146,48,143,48Z"/><path class="cls-3" d="M143,45c-13,0-23,10-23,22a22.63,22.63,0,0,0,23,23c3,0,5-1,8-2V48l-4-3h-4Z"/><path class="cls-4" d="M143,45c-13,0-23,10-23,22a22.63,22.63,0,0,0,23,23c3,0,5-1,8-2h0a23.2,23.2,0,0,1-30-21c0-12,10-21,22-21h4l4,3V48l-4-3h-4Z"/><path class="cls-4" d="M146,90a1,1,0,0,1,1-1V45h-1Z"/><polygon class="cls-5" points="151 88 151 86 151 48 147 45 147 89 151 92 151 88"/><polygon class="cls-2" points="148 91 149 96 145 93 148 91"/><polygon class="cls-4" points="151 92 151 92 147 89 147 89 151 92"/><polygon class="cls-4" points="151 48 151 49 147 46 147 45 151 48"/><path class="cls-8" d="M45,74c-2,3-3,5,4,5h4v21c0,1,2,3,3,3H94a3.19,3.19,0,0,0,3-3V79h6c4,0,5-1,3-4L78,46q-3-3-6,0Zm46,6H86c-1,0-1,0-1,1v4c0,1,0,2,1,2h5a3.49,3.49,0,0,0,1-2V81A1,1,0,0,0,91,80Zm-9,0H77c-1,0-1,0-1,1v4c0,1,0,2,1,2h5a3.49,3.49,0,0,0,1-2V81A1,1,0,0,0,82,80Zm9,8H86a1,1,0,0,0-1,1v5c0,1,0,1,1,1h5a1,1,0,0,0,1-1V89Zm-9,0H77a1,1,0,0,0-1,1v5c0,1,0,1,1,1h5a1,1,0,0,0,1-1V89Z"/><path class="cls-6" d="M45,67c-2,2-3,5,4,5h4V92a3.19,3.19,0,0,0,3,3H94a2.65,2.65,0,0,0,3-3V72h6c4,0,5-2,3-4L78,38a6.38,6.38,0,0,0-6,0Z"/><rect class="cls-6" x="44" y="69" width="63.38" height="6.73"/><path class="cls-36" d="M45,73c-2,3-3,5,4,5h4V98a3.19,3.19,0,0,0,3,3H94a2.65,2.65,0,0,0,3-3V78h6c4,0,5-2,3-4L78,44a6.38,6.38,0,0,0-6,0Zm46,5H86c-1,0-1,1-1,2v4c0,1,0,1,1,1h5a1,1,0,0,0,1-1V80A3.49,3.49,0,0,0,91,78Zm-9,0H77c-1,0-1,1-1,2v4c0,1,0,1,1,1h5a1,1,0,0,0,1-1V80A3.49,3.49,0,0,0,82,78Zm9,9H86c-1,0-1,0-1,1v5a1,1,0,0,0,1,1h5l1-1V88A1,1,0,0,0,91,87Zm-9,0H77c-1,0-1,0-1,1v5a1,1,0,0,0,1,1h5l1-1V88A1,1,0,0,0,82,87Z"/></g></g></g></g></svg>