<svg xmlns="http://www.w3.org/2000/svg" xmlns:xlink="http://www.w3.org/1999/xlink" viewBox="0 0 151 152"><defs><style>.cls-1{fill:none;}.cls-2{fill:#53381d;}.cls-3{fill:#963;}.cls-4{fill:#ca9560;}.cls-5{fill:#af753b;}.cls-6{fill:#254c05;}.cls-7{fill:url(#radial-gradient);}.cls-8{fill:#7cd637;}.cls-34,.cls-9{fill:#fff;}.cls-9{fill-opacity:0.2;}.cls-10{fill:url(#radial-gradient-2);}.cls-11{clip-path:url(#clip-path);}.cls-12{fill-opacity:0;fill:url(#linear-gradient);}.cls-13{fill-opacity:0.05;fill:url(#linear-gradient-2);}.cls-14{fill-opacity:0.09;fill:url(#linear-gradient-3);}.cls-15{fill-opacity:0.14;fill:url(#linear-gradient-4);}.cls-16{fill-opacity:0.19;fill:url(#linear-gradient-5);}.cls-17{fill-opacity:0.24;fill:url(#linear-gradient-6);}.cls-18{fill-opacity:0.29;fill:url(#linear-gradient-7);}.cls-19{fill-opacity:0.33;fill:url(#linear-gradient-8);}.cls-20{fill-opacity:0.38;fill:url(#linear-gradient-9);}.cls-21{fill-opacity:0.43;fill:url(#linear-gradient-10);}.cls-22{fill-opacity:0.47;fill:url(#linear-gradient-11);}.cls-23{fill-opacity:0.53;fill:url(#linear-gradient-12);}.cls-24{fill-opacity:0.57;fill:url(#linear-gradient-13);}.cls-25{fill-opacity:0.62;fill:url(#linear-gradient-14);}.cls-26{fill-opacity:0.67;fill:url(#linear-gradient-15);}.cls-27{fill-opacity:0.71;fill:url(#linear-gradient-16);}.cls-28{fill-opacity:0.76;fill:url(#linear-gradient-17);}.cls-29{fill-opacity:0.81;fill:url(#linear-gradient-18);}.cls-30{fill-opacity:0.86;fill:url(#linear-gradient-19);}.cls-31{fill-opacity:0.91;fill:url(#linear-gradient-20);}.cls-32{fill-opacity:0.95;fill:url(#linear-gradient-21);}.cls-33{fill:#91b740;}.cls-34{fill-opacity:0.3;}.cls-35{fill:#336b05;}.cls-36{fill:#250;}.cls-37{fill:url(#linear-gradient-22);}</style><radialGradient id="radial-gradient" cx="-674.75" cy="-1089.04" r="46.99" gradientTransform="matrix(0, 1.1, 1.44, -0.01, 1641.34, 469.54)" gradientUnits="userSpaceOnUse"><stop offset="0" stop-color="#5ab70e"/><stop offset="0.85" stop-color="#469109"/><stop offset="1" stop-color="#336b05"/></radialGradient><radialGradient id="radial-gradient-2" cx="75.25" cy="1074.7" r="48.44" gradientTransform="matrix(1, 0, 0, -1, 0, 1145.49)" gradientUnits="userSpaceOnUse"><stop offset="0" stop-color="#8dbd25"/><stop offset="1" stop-color="#5ab70e"/></radialGradient><clipPath id="clip-path"><path class="cls-1" d="M47,22h56c11,0,21,10,21,21V99c0,11-10,20-21,20H47A20.06,20.06,0,0,1,27,99V43C27,32,36,22,47,22Z"/></clipPath><linearGradient id="linear-gradient" x1="-417.77" y1="1008.66" x2="-417.77" y2="1008.8" gradientTransform="matrix(113, 0, 0, -46, 47283, 46499)" gradientUnits="userSpaceOnUse"><stop offset="0" stop-color="#5ab70e"/><stop offset="1" stop-color="#8dbd25"/></linearGradient><linearGradient id="linear-gradient-2" x1="75.5" y1="1044.25" x2="75.5" y2="1072.61" gradientTransform="matrix(1, 0, 0, -1, 0, 1145.5)" gradientUnits="userSpaceOnUse"><stop offset="0" stop-color="#5db710"/><stop offset="1" stop-color="#8dbd26"/></linearGradient><linearGradient id="linear-gradient-3" x1="-418.31" y1="1012.5" x2="-418.31" y2="1012.64" gradientTransform="matrix(106, 0, 0, -42, 44416, 42627)" gradientUnits="userSpaceOnUse"><stop offset="0" stop-color="#5fb713"/><stop offset="1" stop-color="#8dbc28"/></linearGradient><linearGradient id="linear-gradient-4" x1="75" y1="1043.23" x2="75" y2="1069.72" gradientTransform="matrix(1, 0, 0, -1, 0, 1145.5)" gradientUnits="userSpaceOnUse"><stop offset="0" stop-color="#62b715"/><stop offset="1" stop-color="#8ebc29"/></linearGradient><linearGradient id="linear-gradient-5" x1="75" y1="1042.72" x2="75" y2="1068.28" gradientTransform="matrix(1, 0, 0, -1, 0, 1145.5)" gradientUnits="userSpaceOnUse"><stop offset="0" stop-color="#64b718"/><stop offset="1" stop-color="#8ebc2a"/></linearGradient><linearGradient id="linear-gradient-6" x1="75.5" y1="1042.21" x2="75.5" y2="1066.84" gradientTransform="matrix(1, 0, 0, -1, 0, 1145.5)" gradientUnits="userSpaceOnUse"><stop offset="0" stop-color="#67b71a"/><stop offset="1" stop-color="#8ebc2b"/></linearGradient><linearGradient id="linear-gradient-7" x1="75.5" y1="1041.69" x2="75.5" y2="1065.39" gradientTransform="matrix(1, 0, 0, -1, 0, 1145.5)" gradientUnits="userSpaceOnUse"><stop offset="0" stop-color="#6ab71c"/><stop offset="1" stop-color="#8ebb2d"/></linearGradient><linearGradient id="linear-gradient-8" x1="75" y1="1041.18" x2="75" y2="1063.95" gradientTransform="matrix(1, 0, 0, -1, 0, 1145.5)" gradientUnits="userSpaceOnUse"><stop offset="0" stop-color="#6cb71f"/><stop offset="1" stop-color="#8ebb2e"/></linearGradient><linearGradient id="linear-gradient-9" x1="75" y1="1040.67" x2="75" y2="1062.51" gradientTransform="matrix(1, 0, 0, -1, 0, 1145.5)" gradientUnits="userSpaceOnUse"><stop offset="0" stop-color="#6fb721"/><stop offset="1" stop-color="#8fbb2f"/></linearGradient><linearGradient id="linear-gradient-10" x1="75" y1="1040.16" x2="75" y2="1061.06" gradientTransform="matrix(1, 0, 0, -1, 0, 1145.5)" gradientUnits="userSpaceOnUse"><stop offset="0" stop-color="#72b723"/><stop offset="1" stop-color="#8fba31"/></linearGradient><linearGradient id="linear-gradient-11" x1="75.5" y1="1039.65" x2="75.5" y2="1059.62" gradientTransform="matrix(1, 0, 0, -1, 0, 1145.5)" gradientUnits="userSpaceOnUse"><stop offset="0" stop-color="#74b726"/><stop offset="1" stop-color="#8fba32"/></linearGradient><linearGradient id="linear-gradient-12" x1="75.5" y1="1039.14" x2="75.5" y2="1058.18" gradientTransform="matrix(1, 0, 0, -1, 0, 1145.5)" gradientUnits="userSpaceOnUse"><stop offset="0" stop-color="#77b728"/><stop offset="1" stop-color="#8fba33"/></linearGradient><linearGradient id="linear-gradient-13" x1="75" y1="1038.62" x2="75" y2="1056.73" gradientTransform="matrix(1, 0, 0, -1, 0, 1145.5)" gradientUnits="userSpaceOnUse"><stop offset="0" stop-color="#79b72b"/><stop offset="1" stop-color="#8fba34"/></linearGradient><linearGradient id="linear-gradient-14" x1="75" y1="1038.11" x2="75" y2="1055.29" gradientTransform="matrix(1, 0, 0, -1, 0, 1145.5)" gradientUnits="userSpaceOnUse"><stop offset="0" stop-color="#7cb72d"/><stop offset="1" stop-color="#8fb936"/></linearGradient><linearGradient id="linear-gradient-15" x1="75.5" y1="1037.6" x2="75.5" y2="1053.85" gradientTransform="matrix(1, 0, 0, -1, 0, 1145.5)" gradientUnits="userSpaceOnUse"><stop offset="0" stop-color="#7fb72f"/><stop offset="1" stop-color="#90b937"/></linearGradient><linearGradient id="linear-gradient-16" x1="75.5" y1="1037.09" x2="75.5" y2="1052.41" gradientTransform="matrix(1, 0, 0, -1, 0, 1145.5)" gradientUnits="userSpaceOnUse"><stop offset="0" stop-color="#81b732"/><stop offset="1" stop-color="#90b938"/></linearGradient><linearGradient id="linear-gradient-17" x1="75.5" y1="1036.58" x2="75.5" y2="1050.96" gradientTransform="matrix(1, 0, 0, -1, 0, 1145.5)" gradientUnits="userSpaceOnUse"><stop offset="0" stop-color="#84b734"/><stop offset="1" stop-color="#90b83a"/></linearGradient><linearGradient id="linear-gradient-18" x1="75" y1="1036.07" x2="75" y2="1049.52" gradientTransform="matrix(1, 0, 0, -1, 0, 1145.5)" gradientUnits="userSpaceOnUse"><stop offset="0" stop-color="#87b736"/><stop offset="1" stop-color="#90b83b"/></linearGradient><linearGradient id="linear-gradient-19" x1="75" y1="1035.56" x2="75" y2="1048.08" gradientTransform="matrix(1, 0, 0, -1, 0, 1145.5)" gradientUnits="userSpaceOnUse"><stop offset="0" stop-color="#89b739"/><stop offset="1" stop-color="#90b83c"/></linearGradient><linearGradient id="linear-gradient-20" x1="75.5" y1="1035.04" x2="75.5" y2="1046.63" gradientTransform="matrix(1, 0, 0, -1, 0, 1145.5)" gradientUnits="userSpaceOnUse"><stop offset="0" stop-color="#8cb73b"/><stop offset="1" stop-color="#91b83d"/></linearGradient><linearGradient id="linear-gradient-21" x1="75.5" y1="1034.53" x2="75.5" y2="1045.19" gradientTransform="matrix(1, 0, 0, -1, 0, 1145.5)" gradientUnits="userSpaceOnUse"><stop offset="0" stop-color="#8eb73e"/><stop offset="1" stop-color="#91b73f"/></linearGradient><linearGradient id="linear-gradient-22" x1="75.5" y1="1091.09" x2="75.5" y2="1008.97" gradientTransform="matrix(1, 0, 0, -1, 0, 1145.5)" gradientUnits="userSpaceOnUse"><stop offset="0" stop-color="#317100"/><stop offset="1" stop-color="#4eb300"/></linearGradient></defs><title>options</title><g id="Layer_2" data-name="Layer 2"><g id="Layer_1-2" data-name="Layer 1"><g id="Layer_1-3" data-name="Layer_1"><g id="_923574768" data-name=" 923574768"><rect class="cls-2" x="2" y="6" width="146" height="146" rx="31" ry="31"/><rect class="cls-3" x="2" width="146" height="146" rx="31" ry="31"/><rect class="cls-4" x="5" y="2" width="141" height="141" rx="30" ry="30"/><rect class="cls-5" x="5" y="3" width="140" height="140" rx="30" ry="30"/><rect class="cls-2" x="10" y="7" width="131" height="131" rx="28" ry="28"/><rect class="cls-6" x="18" y="15" width="115" height="115" rx="24" ry="24"/><rect class="cls-7" x="19" y="17" width="112" height="112" rx="24" ry="24"/><polygon class="cls-8" points="87 124 102 120 95 116 82 118 72 120 87 124"/><path class="cls-9" d="M107,17c12,0,23,10,24,22L75,73,24,28c-3,4-4,8-4,13L75,73,29,23a19.74,19.74,0,0,1,14-6L75,73Z"/><path class="cls-8" d="M47,22h56a20.51,20.51,0,0,1,21,21V99a20.51,20.51,0,0,1-21,21H47a22,22,0,0,1-15-6,20.35,20.35,0,0,1-6-15V43a20.35,20.35,0,0,1,6-15A22,22,0,0,1,47,22Zm56,1H47a19.74,19.74,0,0,0-14,6,23.89,23.89,0,0,0-5,14V99a23.89,23.89,0,0,0,5,14,23.89,23.89,0,0,0,14,5h56c6,0,10-2,14-5a19.74,19.74,0,0,0,6-14V43a19.74,19.74,0,0,0-6-14C113,25,109,23,103,23Z"/><path class="cls-10" d="M47,22h56c11,0,21,10,21,21V99c0,11-10,20-21,20H47A20.06,20.06,0,0,1,27,99V43C27,32,36,22,47,22Z"/><g class="cls-11"><path id="_1" data-name="1" class="cls-12" d="M75,94c31,0,57,10,57,23,0,12-26,23-57,23s-56-11-56-23C19,104,44,94,75,94Z"/><path class="cls-13" d="M75,95c30,0,55,10,55,22s-25,22-55,22-54-10-54-22S45,95,75,95Z"/><path class="cls-14" d="M75,96c29,0,53,9,53,21s-24,21-53,21-53-9-53-21S46,96,75,96Z"/><path class="cls-15" d="M75,96c28,0,51,9,51,21,0,11-23,20-51,20s-51-9-51-20C24,105,47,96,75,96Z"/><path class="cls-16" d="M75,97c27,0,49,9,49,20s-22,20-49,20-49-9-49-20S48,97,75,97Z"/><path class="cls-17" d="M75,98c26,0,48,8,48,19,0,10-22,19-48,19s-47-9-47-19C28,106,49,98,75,98Z"/><path class="cls-18" d="M75,98c25,0,46,9,46,19s-21,18-46,18-45-8-45-18S50,98,75,98Z"/><path class="cls-19" d="M75,99c24,0,44,8,44,18s-20,17-44,17-44-7-44-17S51,99,75,99Z"/><path class="cls-20" d="M75,100c23,0,42,7,42,17,0,9-19,17-42,17s-42-8-42-17C33,107,52,100,75,100Z"/><path class="cls-21" d="M75,101c22,0,40,7,40,16s-18,16-40,16-40-7-40-16S53,101,75,101Z"/><path class="cls-22" d="M75,101c21,0,39,7,39,16,0,8-18,15-39,15s-38-7-38-15C37,108,54,101,75,101Z"/><path class="cls-23" d="M75,102c20,0,37,7,37,15s-17,15-37,15-36-7-36-15S55,102,75,102Z"/><path class="cls-24" d="M75,103c19,0,35,6,35,14s-16,14-35,14-35-6-35-14S56,103,75,103Z"/><path class="cls-25" d="M75,104c19,0,33,5,33,13,0,7-14,13-33,13-18,0-33-6-33-13C42,109,57,104,75,104Z"/><path class="cls-26" d="M75,104c18,0,32,6,32,13s-14,12-32,12c-17,0-31-5-31-12S58,104,75,104Z"/><path class="cls-27" d="M75,105c17,0,30,5,30,12,0,6-13,12-30,12-16,0-29-6-29-12C46,110,59,105,75,105Z"/><path class="cls-28" d="M75,106c16,0,28,5,28,11s-12,11-28,11c-15,0-27-5-27-11S60,106,75,106Z"/><path class="cls-29" d="M75,106c15,0,26,5,26,11s-11,10-26,10c-14,0-26-4-26-10S61,106,75,106Z"/><path class="cls-30" d="M75,107c14,0,24,4,24,10,0,5-10,10-24,10-13,0-24-5-24-10C51,111,62,107,75,107Z"/><path class="cls-31" d="M75,108c13,0,23,4,23,9s-10,9-23,9c-12,0-22-4-22-9S63,108,75,108Z"/><path class="cls-32" d="M75,109c12,0,21,3,21,8,0,4-9,8-21,8-11,0-20-4-20-8C55,112,64,109,75,109Z"/><ellipse class="cls-33" cx="75" cy="117" rx="19" ry="8"/></g><path class="cls-1" d="M47,22h56c11,0,21,10,21,21V99c0,11-10,20-21,20H47A20.06,20.06,0,0,1,27,99V43C27,32,36,22,47,22Z"/><polygon class="cls-8" points="24 47 27 43 28 47 32 47 40 44 34 49 27 50 27 54 24 50 20 51 24 47"/><path class="cls-34" d="M49,24H70c-7,6-14,11-19,17-5-4-11-7-16-11A20.26,20.26,0,0,1,49,24Zm24,0h29a20.06,20.06,0,0,1,20,20V57a216.9,216.9,0,0,0-48,6L56,45c-1-1-2-2-3-2C58,36,65,30,73,24ZM72,64c-3,0-6,1-9,2A160.73,160.73,0,0,0,30,78c6-12,12-23,21-33V44a13.8,13.8,0,0,0,4,3A136.5,136.5,0,0,1,72,64ZM29,76V44a21.44,21.44,0,0,1,4-12A99.08,99.08,0,0,1,50,43H49A138.46,138.46,0,0,0,29,76Z"/><polygon class="cls-35" points="87 123 102 119 95 116 82 117 73 120 87 123"/><polygon class="cls-35" points="24 46 27 42 28 46 32 46 40 44 34 48 27 49 27 53 24 49 20 51 24 46"/><polygon class="cls-2" points="0 89 2 89 2 102 0 100 0 89"/><path class="cls-2" d="M8,49A22.2,22.2,0,0,1,30,71C30,83,20,94,8,94a18.84,18.84,0,0,1-8-2V50C2,49,5,49,8,49Z"/><path class="cls-3" d="M8,45c12,0,22,10,22,23A22.2,22.2,0,0,1,8,90c-3,0-6-1-8-1V48l4-3H8Z"/><path class="cls-4" d="M8,45c12,0,22,10,22,23A22.2,22.2,0,0,1,8,90c-3,0-6-1-8-1V88c2,1,5,1,8,1,12,0,22-9,22-21A22.2,22.2,0,0,0,8,46H4L0,49V48l4-3H8Z"/><path class="cls-4" d="M5,90H4V45H5Z"/><polygon class="cls-5" points="0 89 0 86 0 48 4 45 4 90 0 93 0 89"/><polygon class="cls-2" points="2 92 1 96 5 93 2 92"/><polygon class="cls-4" points="0 92 0 93 4 90 4 89 0 92"/><polygon class="cls-4" points="0 48 0 49 4 46 4 45 0 48"/><polygon class="cls-2" points="151 89 148 89 148 102 151 100 151 89"/><path class="cls-2" d="M143,49c-13,0-23,10-23,22a23.26,23.26,0,0,0,23,23c3,0,5-1,8-2V50A22,22,0,0,0,143,49Z"/><path class="cls-3" d="M143,45a22.63,22.63,0,0,0-23,23c0,12,10,22,23,22,3,0,5-1,8-1V48l-4-3h-4Z"/><path class="cls-4" d="M143,45a22.63,22.63,0,0,0-23,23c0,12,10,22,23,22,3,0,5-1,8-1V88a22,22,0,0,1-8,1c-12,0-22-9-22-21a22.2,22.2,0,0,1,22-22h4l4,3V48l-4-3h-4Z"/><path class="cls-4" d="M146,90h1V45h-1Z"/><polygon class="cls-5" points="151 89 151 86 151 48 147 45 147 90 151 93 151 89"/><polygon class="cls-2" points="148 92 149 96 145 93 148 92"/><polygon class="cls-4" points="151 92 151 93 147 90 147 89 151 92"/><polygon class="cls-4" points="151 48 151 49 147 46 147 45 151 48"/><path class="cls-8" d="M50,46H61a3.19,3.19,0,0,1,3,3V60a3.19,3.19,0,0,1-3,3H50a2.65,2.65,0,0,1-3-3V49A2.65,2.65,0,0,1,50,46ZM90,87h11a3.19,3.19,0,0,1,3,3v11a3.19,3.19,0,0,1-3,3H90a2.65,2.65,0,0,1-3-3V90A2.65,2.65,0,0,1,90,87ZM70,87H81a3.19,3.19,0,0,1,3,3v11a3.19,3.19,0,0,1-3,3H70a2.65,2.65,0,0,1-3-3V90A2.65,2.65,0,0,1,70,87ZM50,87H61a3.19,3.19,0,0,1,3,3v11a3.19,3.19,0,0,1-3,3H50a2.65,2.65,0,0,1-3-3V90A2.65,2.65,0,0,1,50,87ZM90,67h11a3.19,3.19,0,0,1,3,3V81c0,1-2,3-3,3H90a3.19,3.19,0,0,1-3-3V70A2.65,2.65,0,0,1,90,67ZM70,67H81a3.19,3.19,0,0,1,3,3V81c0,1-2,3-3,3H70a3.19,3.19,0,0,1-3-3V70A2.65,2.65,0,0,1,70,67ZM50,67H61a3.19,3.19,0,0,1,3,3V81c0,1-2,3-3,3H50a3.19,3.19,0,0,1-3-3V70A2.65,2.65,0,0,1,50,67ZM90,46h11a3.19,3.19,0,0,1,3,3V60a3.19,3.19,0,0,1-3,3H90a2.65,2.65,0,0,1-3-3V49A2.65,2.65,0,0,1,90,46ZM70,46H81a3.19,3.19,0,0,1,3,3V60a3.19,3.19,0,0,1-3,3H70a2.65,2.65,0,0,1-3-3V49A2.65,2.65,0,0,1,70,46Z"/><path class="cls-36" d="M50,43H61c1,0,3,1,3,2V57c0,1-2,2-3,2H50c-2,0-3-1-3-2V45C47,44,48,43,50,43ZM90,84h11c1,0,3,1,3,2V98c0,1-2,2-3,2H90c-2,0-3-1-3-2V86C87,85,88,84,90,84ZM70,84H81c1,0,3,1,3,2V98c0,1-2,2-3,2H70c-2,0-3-1-3-2V86C67,85,68,84,70,84ZM50,84H61c1,0,3,1,3,2V98c0,1-2,2-3,2H50c-2,0-3-1-3-2V86C47,85,48,84,50,84ZM90,63h11a3.19,3.19,0,0,1,3,3V77a3.19,3.19,0,0,1-3,3H90a2.65,2.65,0,0,1-3-3V66A2.65,2.65,0,0,1,90,63ZM70,63H81a3.19,3.19,0,0,1,3,3V77a3.19,3.19,0,0,1-3,3H70a2.65,2.65,0,0,1-3-3V66A2.65,2.65,0,0,1,70,63ZM50,63H61a3.19,3.19,0,0,1,3,3V77a3.19,3.19,0,0,1-3,3H50a2.65,2.65,0,0,1-3-3V66A2.65,2.65,0,0,1,50,63ZM90,43h11c1,0,3,1,3,2V57c0,1-2,2-3,2H90c-2,0-3-1-3-2V45C87,44,88,43,90,43ZM70,43H81c1,0,3,1,3,2V57c0,1-2,2-3,2H70c-2,0-3-1-3-2V45C67,44,68,43,70,43Z"/><path class="cls-37" d="M50,45H61c1,0,3,2,3,3V59a3.19,3.19,0,0,1-3,3H50a2.65,2.65,0,0,1-3-3V48A3.19,3.19,0,0,1,50,45ZM90,86h11c1,0,3,2,3,3v11a3.19,3.19,0,0,1-3,3H90a2.65,2.65,0,0,1-3-3V89A3.19,3.19,0,0,1,90,86ZM70,86H81c1,0,3,2,3,3v11a3.19,3.19,0,0,1-3,3H70a2.65,2.65,0,0,1-3-3V89A3.19,3.19,0,0,1,70,86ZM50,86H61c1,0,3,2,3,3v11a3.19,3.19,0,0,1-3,3H50a2.65,2.65,0,0,1-3-3V89A3.19,3.19,0,0,1,50,86ZM90,66h11a3.19,3.19,0,0,1,3,3V80c0,1-2,3-3,3H90a3.19,3.19,0,0,1-3-3V69A2.65,2.65,0,0,1,90,66ZM70,66H81a3.19,3.19,0,0,1,3,3V80c0,1-2,3-3,3H70a3.19,3.19,0,0,1-3-3V69A2.65,2.65,0,0,1,70,66ZM50,66H61a3.19,3.19,0,0,1,3,3V80c0,1-2,3-3,3H50a3.19,3.19,0,0,1-3-3V69A2.65,2.65,0,0,1,50,66ZM90,45h11c1,0,3,2,3,3V59a3.19,3.19,0,0,1-3,3H90a2.65,2.65,0,0,1-3-3V48A3.19,3.19,0,0,1,90,45ZM70,45H81c1,0,3,2,3,3V59a3.19,3.19,0,0,1-3,3H70a2.65,2.65,0,0,1-3-3V48A3.19,3.19,0,0,1,70,45Z"/></g></g></g></g></svg>