<svg xmlns="http://www.w3.org/2000/svg" xmlns:xlink="http://www.w3.org/1999/xlink" viewBox="0 0 150 153"><defs><style>.cls-1{fill:none;}.cls-2{fill:#53381d;}.cls-3{fill:#963;}.cls-4{fill:#ca9560;}.cls-5{fill:#af753b;}.cls-6{fill:#254c05;}.cls-7{fill:url(#radial-gradient);}.cls-8{fill:#7cd637;}.cls-34,.cls-9{fill:#fff;}.cls-9{fill-opacity:0.2;}.cls-10{fill:url(#radial-gradient-2);}.cls-11{clip-path:url(#clip-path);}.cls-12{fill-opacity:0;fill:url(#linear-gradient);}.cls-13{fill-opacity:0.05;fill:url(#linear-gradient-2);}.cls-14{fill-opacity:0.09;fill:url(#linear-gradient-3);}.cls-15{fill-opacity:0.14;fill:url(#linear-gradient-4);}.cls-16{fill-opacity:0.19;fill:url(#linear-gradient-5);}.cls-17{fill-opacity:0.24;fill:url(#linear-gradient-6);}.cls-18{fill-opacity:0.29;fill:url(#linear-gradient-7);}.cls-19{fill-opacity:0.33;fill:url(#linear-gradient-8);}.cls-20{fill-opacity:0.38;fill:url(#linear-gradient-9);}.cls-21{fill-opacity:0.43;fill:url(#linear-gradient-10);}.cls-22{fill-opacity:0.47;fill:url(#linear-gradient-11);}.cls-23{fill-opacity:0.53;fill:url(#linear-gradient-12);}.cls-24{fill-opacity:0.57;fill:url(#linear-gradient-13);}.cls-25{fill-opacity:0.62;fill:url(#linear-gradient-14);}.cls-26{fill-opacity:0.67;fill:url(#linear-gradient-15);}.cls-27{fill-opacity:0.71;fill:url(#linear-gradient-16);}.cls-28{fill-opacity:0.76;fill:url(#linear-gradient-17);}.cls-29{fill-opacity:0.81;fill:url(#linear-gradient-18);}.cls-30{fill-opacity:0.86;fill:url(#linear-gradient-19);}.cls-31{fill-opacity:0.91;fill:url(#linear-gradient-20);}.cls-32{fill-opacity:0.95;fill:url(#linear-gradient-21);}.cls-33{fill:#91b740;}.cls-34{fill-opacity:0.3;}.cls-35{fill:#336b05;}.cls-36{fill:url(#linear-gradient-22);}</style><radialGradient id="radial-gradient" cx="-674.95" cy="-1432.74" r="46.99" gradientTransform="matrix(0, 1.1, 1.44, -0.01, 2135.72, 809.42)" gradientUnits="userSpaceOnUse"><stop offset="0" stop-color="#5ab70e"/><stop offset="0.85" stop-color="#469109"/><stop offset="1" stop-color="#336b05"/></radialGradient><radialGradient id="radial-gradient-2" cx="75" cy="1924.53" r="48.45" gradientTransform="matrix(1, 0, 0, -1, -0.01, 1143.49)" gradientUnits="userSpaceOnUse"><stop offset="0" stop-color="#8dbd25"/><stop offset="1" stop-color="#5ab70e"/></radialGradient><clipPath id="clip-path"><path class="cls-1" d="M47,22h56c11,0,20,10,20,21V99a20.06,20.06,0,0,1-20,20H47A20.06,20.06,0,0,1,27,99V43C27,32,36,22,47,22Z"/></clipPath><linearGradient id="linear-gradient" x1="534.16" y1="1007.66" x2="534.16" y2="1007.8" gradientTransform="matrix(112, 0, 0, -46, -59751, 46453)" gradientUnits="userSpaceOnUse"><stop offset="0" stop-color="#5ab70e"/><stop offset="1" stop-color="#8dbd25"/></linearGradient><linearGradient id="linear-gradient-2" x1="75" y1="1042.16" x2="75" y2="1070.52" gradientTransform="matrix(1, 0, 0, -1, 0, 1143.5)" gradientUnits="userSpaceOnUse"><stop offset="0" stop-color="#5db710"/><stop offset="1" stop-color="#8dbd26"/></linearGradient><linearGradient id="linear-gradient-3" x1="75" y1="1041.65" x2="75" y2="1069.08" gradientTransform="matrix(1, 0, 0, -1, 0, 1143.5)" gradientUnits="userSpaceOnUse"><stop offset="0" stop-color="#5fb713"/><stop offset="1" stop-color="#8dbc28"/></linearGradient><linearGradient id="linear-gradient-4" x1="75" y1="1041.14" x2="75" y2="1067.63" gradientTransform="matrix(1, 0, 0, -1, 0, 1143.5)" gradientUnits="userSpaceOnUse"><stop offset="0" stop-color="#62b715"/><stop offset="1" stop-color="#8ebc29"/></linearGradient><linearGradient id="linear-gradient-5" x1="75" y1="1040.63" x2="75" y2="1066.19" gradientTransform="matrix(1, 0, 0, -1, 0, 1143.5)" gradientUnits="userSpaceOnUse"><stop offset="0" stop-color="#64b718"/><stop offset="1" stop-color="#8ebc2a"/></linearGradient><linearGradient id="linear-gradient-6" x1="75" y1="1040.12" x2="75" y2="1064.75" gradientTransform="matrix(1, 0, 0, -1, 0, 1143.5)" gradientUnits="userSpaceOnUse"><stop offset="0" stop-color="#67b71a"/><stop offset="1" stop-color="#8ebc2b"/></linearGradient><linearGradient id="linear-gradient-7" x1="75" y1="1039.6" x2="75" y2="1063.3" gradientTransform="matrix(1, 0, 0, -1, 0, 1143.5)" gradientUnits="userSpaceOnUse"><stop offset="0" stop-color="#6ab71c"/><stop offset="1" stop-color="#8ebb2d"/></linearGradient><linearGradient id="linear-gradient-8" x1="75" y1="1039.09" x2="75" y2="1061.86" gradientTransform="matrix(1, 0, 0, -1, 0, 1143.5)" gradientUnits="userSpaceOnUse"><stop offset="0" stop-color="#6cb71f"/><stop offset="1" stop-color="#8ebb2e"/></linearGradient><linearGradient id="linear-gradient-9" x1="75" y1="1038.58" x2="75" y2="1060.42" gradientTransform="matrix(1, 0, 0, -1, 0, 1143.5)" gradientUnits="userSpaceOnUse"><stop offset="0" stop-color="#6fb721"/><stop offset="1" stop-color="#8fbb2f"/></linearGradient><linearGradient id="linear-gradient-10" x1="75" y1="1038.07" x2="75" y2="1058.97" gradientTransform="matrix(1, 0, 0, -1, 0, 1143.5)" gradientUnits="userSpaceOnUse"><stop offset="0" stop-color="#72b723"/><stop offset="1" stop-color="#8fba31"/></linearGradient><linearGradient id="linear-gradient-11" x1="75" y1="1037.56" x2="75" y2="1057.53" gradientTransform="matrix(1, 0, 0, -1, 0, 1143.5)" gradientUnits="userSpaceOnUse"><stop offset="0" stop-color="#74b726"/><stop offset="1" stop-color="#8fba32"/></linearGradient><linearGradient id="linear-gradient-12" x1="75" y1="1037.05" x2="75" y2="1056.09" gradientTransform="matrix(1, 0, 0, -1, 0, 1143.5)" gradientUnits="userSpaceOnUse"><stop offset="0" stop-color="#77b728"/><stop offset="1" stop-color="#8fba33"/></linearGradient><linearGradient id="linear-gradient-13" x1="75" y1="1036.53" x2="75" y2="1054.64" gradientTransform="matrix(1, 0, 0, -1, 0, 1143.5)" gradientUnits="userSpaceOnUse"><stop offset="0" stop-color="#79b72b"/><stop offset="1" stop-color="#8fba34"/></linearGradient><linearGradient id="linear-gradient-14" x1="75" y1="1036.02" x2="75" y2="1053.2" gradientTransform="matrix(1, 0, 0, -1, 0, 1143.5)" gradientUnits="userSpaceOnUse"><stop offset="0" stop-color="#7cb72d"/><stop offset="1" stop-color="#8fb936"/></linearGradient><linearGradient id="linear-gradient-15" x1="75" y1="1035.51" x2="75" y2="1051.76" gradientTransform="matrix(1, 0, 0, -1, 0, 1143.5)" gradientUnits="userSpaceOnUse"><stop offset="0" stop-color="#7fb72f"/><stop offset="1" stop-color="#90b937"/></linearGradient><linearGradient id="linear-gradient-16" x1="75.5" y1="1035" x2="75.5" y2="1050.32" gradientTransform="matrix(1, 0, 0, -1, 0, 1143.5)" gradientUnits="userSpaceOnUse"><stop offset="0" stop-color="#81b732"/><stop offset="1" stop-color="#90b938"/></linearGradient><linearGradient id="linear-gradient-17" x1="75" y1="1034.49" x2="75" y2="1048.87" gradientTransform="matrix(1, 0, 0, -1, 0, 1143.5)" gradientUnits="userSpaceOnUse"><stop offset="0" stop-color="#84b734"/><stop offset="1" stop-color="#90b83a"/></linearGradient><linearGradient id="linear-gradient-18" x1="75" y1="1033.98" x2="75" y2="1047.43" gradientTransform="matrix(1, 0, 0, -1, 0, 1143.5)" gradientUnits="userSpaceOnUse"><stop offset="0" stop-color="#87b736"/><stop offset="1" stop-color="#90b83b"/></linearGradient><linearGradient id="linear-gradient-19" x1="75" y1="1033.47" x2="75" y2="1045.99" gradientTransform="matrix(1, 0, 0, -1, 0, 1143.5)" gradientUnits="userSpaceOnUse"><stop offset="0" stop-color="#89b739"/><stop offset="1" stop-color="#90b83c"/></linearGradient><linearGradient id="linear-gradient-20" x1="75" y1="1032.95" x2="75" y2="1044.54" gradientTransform="matrix(1, 0, 0, -1, 0, 1143.5)" gradientUnits="userSpaceOnUse"><stop offset="0" stop-color="#8cb73b"/><stop offset="1" stop-color="#91b83d"/></linearGradient><linearGradient id="linear-gradient-21" x1="75.5" y1="1032.44" x2="75.5" y2="1043.1" gradientTransform="matrix(1, 0, 0, -1, 0, 1143.5)" gradientUnits="userSpaceOnUse"><stop offset="0" stop-color="#8eb73e"/><stop offset="1" stop-color="#91b73f"/></linearGradient><linearGradient id="linear-gradient-22" x1="75" y1="1090.21" x2="75.01" y2="1008.64" gradientTransform="matrix(1, 0, 0, -1, 0, 1143.5)" gradientUnits="userSpaceOnUse"><stop offset="0" stop-color="#317100"/><stop offset="1" stop-color="#4eb300"/></linearGradient></defs><title>Pause</title><g id="Layer_2" data-name="Layer 2"><g id="Layer_1-2" data-name="Layer 1"><g id="Layer_1-3" data-name="Layer_1"><g id="_933638560" data-name=" 933638560"><rect class="cls-2" x="2" y="7" width="146" height="146" rx="31" ry="31"/><rect class="cls-3" x="2" width="146" height="146" rx="31" ry="31"/><rect class="cls-4" x="4" y="2" width="141" height="141" rx="30" ry="30"/><rect class="cls-5" x="5" y="3" width="140" height="140" rx="30" ry="30"/><rect class="cls-2" x="9" y="7" width="131" height="131" rx="28" ry="28"/><rect class="cls-6" x="18" y="15" width="115" height="115" rx="24" ry="24"/><rect class="cls-7" x="19" y="17" width="112" height="112" rx="24" ry="24"/><polygon class="cls-8" points="87 124 102 120 94 116 82 118 72 120 87 124"/><path class="cls-9" d="M107,17c12,0,22,10,23,22L75,73,23,28a27.68,27.68,0,0,0-3,13L75,73,28,23a22,22,0,0,1,15-6L75,73Z"/><path class="cls-8" d="M47,22h56a20.51,20.51,0,0,1,21,21V99a20.51,20.51,0,0,1-21,21H47A20.51,20.51,0,0,1,26,99V43A20.51,20.51,0,0,1,47,22Zm56,1H47a19.74,19.74,0,0,0-14,6c-3,4-6,9-6,14V99c0,5,3,10,6,14,4,3,9,6,14,6h56c5,0,10-3,14-6,3-4,6-9,6-14V43c0-5-3-10-6-14A19.74,19.74,0,0,0,103,23Z"/><path class="cls-10" d="M47,22h56c11,0,20,10,20,21V99a20.06,20.06,0,0,1-20,20H47A20.06,20.06,0,0,1,27,99V43C27,32,36,22,47,22Z"/><g class="cls-11"><path id="_1" data-name="1" class="cls-12" d="M75,94c31,0,56,10,56,23,0,12-25,23-56,23s-56-11-56-23C19,104,44,94,75,94Z"/><path class="cls-13" d="M75,95c30,0,55,10,55,22s-25,22-55,22-55-10-55-22S45,95,75,95Z"/><path class="cls-14" d="M75,96c29,0,53,9,53,21s-24,21-53,21-53-9-53-21S46,96,75,96Z"/><path class="cls-15" d="M75,96c28,0,51,10,51,21s-23,20-51,20-51-9-51-20S47,96,75,96Z"/><path class="cls-16" d="M75,97c27,0,49,9,49,20s-22,20-49,20-49-9-49-20S48,97,75,97Z"/><path class="cls-17" d="M75,98c26,0,47,8,47,19,0,10-21,19-47,19s-47-9-47-19C28,106,49,98,75,98Z"/><path class="cls-18" d="M75,99c25,0,46,8,46,18s-21,18-46,18-46-8-46-18S50,99,75,99Z"/><path class="cls-19" d="M75,99c24,0,44,8,44,18s-20,18-44,18-44-8-44-18S51,99,75,99Z"/><path class="cls-20" d="M75,100c23,0,42,8,42,17s-19,17-42,17-42-8-42-17S52,100,75,100Z"/><path class="cls-21" d="M75,101c22,0,40,7,40,16s-18,16-40,16-40-7-40-16S53,101,75,101Z"/><path class="cls-22" d="M75,101c21,0,38,7,38,16,0,8-17,15-38,15s-38-7-38-15C37,108,54,101,75,101Z"/><path class="cls-23" d="M75,102c20,0,37,7,37,15s-17,15-37,15-37-7-37-15S55,102,75,102Z"/><path class="cls-24" d="M75,103c19,0,35,6,35,14s-16,14-35,14-35-6-35-14S56,103,75,103Z"/><path class="cls-25" d="M75,104c18,0,33,6,33,13s-15,13-33,13-33-6-33-13S57,104,75,104Z"/><path class="cls-26" d="M75,104c17,0,31,6,31,13s-14,12-31,12-31-5-31-12S58,104,75,104Z"/><path class="cls-27" d="M75,105c16,0,30,5,30,12,0,6-14,12-30,12s-29-6-29-12C46,110,59,105,75,105Z"/><path class="cls-28" d="M75,106c15,0,28,5,28,11s-13,11-28,11-28-5-28-11S60,106,75,106Z"/><path class="cls-29" d="M75,106c14,0,26,5,26,11s-12,10-26,10-26-4-26-10S61,106,75,106Z"/><path class="cls-30" d="M75,107c13,0,24,5,24,10s-11,10-24,10-24-5-24-10S62,107,75,107Z"/><path class="cls-31" d="M75,108c12,0,22,4,22,9s-10,9-22,9-22-4-22-9S63,108,75,108Z"/><path class="cls-32" d="M75,109c11,0,21,3,21,8,0,4-10,8-21,8s-20-4-20-8C55,112,64,109,75,109Z"/><ellipse class="cls-33" cx="75" cy="117" rx="19" ry="8"/></g><path class="cls-1" d="M47,22h56c11,0,20,10,20,21V99a20.06,20.06,0,0,1-20,20H47A20.06,20.06,0,0,1,27,99V43C27,32,36,22,47,22Z"/><polygon class="cls-8" points="24 48 26 44 28 47 32 47 40 44 34 49 27 50 26 54 24 50 20 51 24 48"/><path class="cls-34" d="M48,25H69c-7,5-13,10-18,16-5-4-11-7-17-11A23.89,23.89,0,0,1,48,25Zm25,0h29c11,0,19,8,19,19V57c-14,0-30,2-47,6L56,45c-2-1-3-1-4-2A91,91,0,0,1,73,25ZM72,64c-3,0-6,1-9,2A160.73,160.73,0,0,0,30,78,138.46,138.46,0,0,1,50,45l1-1,3,3C61,52,66,58,72,64ZM29,76V44c0-4,1-9,4-12,6,3,11,7,17,11l-1,1A115.55,115.55,0,0,0,29,76Z"/><polygon class="cls-35" points="87 123 102 119 94 116 82 117 73 120 87 123"/><polygon class="cls-35" points="24 46 26 42 28 46 32 46 40 44 34 48 27 49 26 53 24 49 20 51 24 46"/><polygon class="cls-2" points="0 89 2 89 2 102 0 100 0 89"/><path class="cls-2" d="M8,49A22.2,22.2,0,0,1,30,71C30,84,20,94,8,94a18.84,18.84,0,0,1-8-2V50C2,49,5,49,8,49Z"/><path class="cls-3" d="M8,45c12,0,22,10,22,23A22.2,22.2,0,0,1,8,90c-3,0-6,0-8-1V49l4-3L3,45Z"/><path class="cls-4" d="M8,45c12,0,22,10,22,23A22.2,22.2,0,0,1,8,90c-3,0-6,0-8-1V88c2,1,5,1,7,1,13,0,22-9,22-21S20,46,7,46H3L0,49H0l4-3L3,45Z"/><path class="cls-4" d="M4,90H3V46H4L3,45H4Z"/><polygon class="cls-5" points="0 89 0 86 0 49 4 46 4 90 0 93 0 89"/><polygon class="cls-2" points="2 92 1 96 5 93 2 92"/><polygon class="cls-4" points="0 92 0 93 4 90 4 89 0 92"/><polygon class="cls-4" points="0 48 0 49 4 46 4 45 0 48"/><polygon class="cls-2" points="150 89 148 89 148 102 150 100 150 89"/><path class="cls-2" d="M143,49c-13,0-23,10-23,22a22.63,22.63,0,0,0,23,23,18.54,18.54,0,0,0,7-2V50C148,49,145,49,143,49Z"/><path class="cls-3" d="M143,45a22.63,22.63,0,0,0-23,23c0,12,10,22,23,22,2,0,5,0,7-1V49l-3-3V45Z"/><path class="cls-4" d="M143,45a22.63,22.63,0,0,0-23,23c0,12,10,22,23,22,2,0,5,0,7-1V88c-2,1-5,1-7,1-12,0-22-9-22-21a22.2,22.2,0,0,1,22-22h4l3,3h0l-3-3V45Z"/><path class="cls-4" d="M146,90h1V46h0V45h-1Z"/><polygon class="cls-5" points="150 89 150 86 150 49 147 46 147 90 150 93 150 89"/><polygon class="cls-2" points="148 92 149 96 145 93 148 92"/><polygon class="cls-4" points="150 92 150 93 147 90 147 89 150 92"/><polygon class="cls-4" points="150 48 150 49 147 46 147 45 150 48"/><path class="cls-8" d="M89,46H83a4.72,4.72,0,0,0-5,5V98a4.72,4.72,0,0,0,5,5h6a4.72,4.72,0,0,0,5-5V51A4.72,4.72,0,0,0,89,46ZM67,46H61a4.72,4.72,0,0,0-5,5V98a4.72,4.72,0,0,0,5,5h6c3,0,6-2,6-5V51C73,48,70,46,67,46Z"/><path class="cls-6" d="M89,38H83a4.72,4.72,0,0,0-5,5V90a4.72,4.72,0,0,0,5,5h6a4.72,4.72,0,0,0,5-5V43A4.72,4.72,0,0,0,89,38ZM67,38H61a4.72,4.72,0,0,0-5,5V90a4.72,4.72,0,0,0,5,5h6c3,0,6-2,6-5V43C73,40,70,38,67,38Z"/><path class="cls-36" d="M89,44H83c-3,0-5,3-5,6V96c0,3,2,6,5,6h6c3,0,5-3,5-6V50C94,47,92,44,89,44ZM67,44H61c-3,0-5,3-5,6V96c0,3,2,6,5,6h6a6.45,6.45,0,0,0,6-6V50A6.45,6.45,0,0,0,67,44Z"/></g></g></g></g></svg>