<svg xmlns="http://www.w3.org/2000/svg" xmlns:xlink="http://www.w3.org/1999/xlink" viewBox="0 0 151 153"><defs><style>.cls-1{fill:none;}.cls-2{fill:#53381d;}.cls-3{fill:#963;}.cls-4{fill:#ca9560;}.cls-5{fill:#af753b;}.cls-6{fill:#254c05;}.cls-7{fill:url(#radial-gradient);}.cls-8{fill:#7cd637;}.cls-34,.cls-9{fill:#fff;}.cls-9{fill-opacity:0.2;}.cls-10{fill:url(#radial-gradient-2);}.cls-11{clip-path:url(#clip-path);}.cls-12{fill-opacity:0;fill:url(#linear-gradient);}.cls-13{fill-opacity:0.05;fill:url(#linear-gradient-2);}.cls-14{fill-opacity:0.09;fill:url(#linear-gradient-3);}.cls-15{fill-opacity:0.14;fill:url(#linear-gradient-4);}.cls-16{fill-opacity:0.19;fill:url(#linear-gradient-5);}.cls-17{fill-opacity:0.24;fill:url(#linear-gradient-6);}.cls-18{fill-opacity:0.29;fill:url(#linear-gradient-7);}.cls-19{fill-opacity:0.33;fill:url(#linear-gradient-8);}.cls-20{fill-opacity:0.38;fill:url(#linear-gradient-9);}.cls-21{fill-opacity:0.43;fill:url(#linear-gradient-10);}.cls-22{fill-opacity:0.47;fill:url(#linear-gradient-11);}.cls-23{fill-opacity:0.53;fill:url(#linear-gradient-12);}.cls-24{fill-opacity:0.57;fill:url(#linear-gradient-13);}.cls-25{fill-opacity:0.62;fill:url(#linear-gradient-14);}.cls-26{fill-opacity:0.67;fill:url(#linear-gradient-15);}.cls-27{fill-opacity:0.71;fill:url(#linear-gradient-16);}.cls-28{fill-opacity:0.76;fill:url(#linear-gradient-17);}.cls-29{fill-opacity:0.81;fill:url(#linear-gradient-18);}.cls-30{fill-opacity:0.86;fill:url(#linear-gradient-19);}.cls-31{fill-opacity:0.91;fill:url(#linear-gradient-20);}.cls-32{fill-opacity:0.95;fill:url(#linear-gradient-21);}.cls-33{fill:#91b740;}.cls-34{fill-opacity:0.3;}.cls-35{fill:#336b05;}.cls-36{fill:#250;}.cls-37{fill:url(#linear-gradient-22);}</style><radialGradient id="radial-gradient" cx="-674.75" cy="-68.76" r="46.99" gradientTransform="matrix(0, 1.1, 1.44, -0.01, 174.08, 816.25)" gradientUnits="userSpaceOnUse"><stop offset="0" stop-color="#5ab70e"/><stop offset="0.85" stop-color="#469109"/><stop offset="1" stop-color="#336b05"/></radialGradient><radialGradient id="radial-gradient-2" cx="75.25" cy="2436.58" r="48.44" gradientTransform="matrix(1, 0, 0, -1, 0, 2507.48)" gradientUnits="userSpaceOnUse"><stop offset="0" stop-color="#8dbd25"/><stop offset="1" stop-color="#5ab70e"/></radialGradient><clipPath id="clip-path"><path class="cls-1" d="M47,22h56c11,0,21,10,21,21V99c0,11-10,20-21,20H47A20.06,20.06,0,0,1,27,99V43C27,32,36,22,47,22Z"/></clipPath><linearGradient id="linear-gradient" x1="-417.77" y1="1689.66" x2="-417.77" y2="1689.8" gradientTransform="matrix(113, 0, 0, -46, 47283, 77825)" gradientUnits="userSpaceOnUse"><stop offset="0" stop-color="#5ab70e"/><stop offset="1" stop-color="#8dbd25"/></linearGradient><linearGradient id="linear-gradient-2" x1="-418.07" y1="1691.49" x2="-418.07" y2="1691.64" gradientTransform="matrix(109, 0, 0, -44, 45645, 74527)" gradientUnits="userSpaceOnUse"><stop offset="0" stop-color="#5db710"/><stop offset="1" stop-color="#8dbd26"/></linearGradient><linearGradient id="linear-gradient-3" x1="75" y1="2405.62" x2="75" y2="2433.05" gradientTransform="matrix(1, 0, 0, -1, 0, 2507.5)" gradientUnits="userSpaceOnUse"><stop offset="0" stop-color="#5fb713"/><stop offset="1" stop-color="#8dbc28"/></linearGradient><linearGradient id="linear-gradient-4" x1="75" y1="2405.11" x2="75" y2="2431.61" gradientTransform="matrix(1, 0, 0, -1, 0, 2507.5)" gradientUnits="userSpaceOnUse"><stop offset="0" stop-color="#62b715"/><stop offset="1" stop-color="#8ebc29"/></linearGradient><linearGradient id="linear-gradient-5" x1="75" y1="2404.6" x2="75" y2="2430.16" gradientTransform="matrix(1, 0, 0, -1, 0, 2507.5)" gradientUnits="userSpaceOnUse"><stop offset="0" stop-color="#64b718"/><stop offset="1" stop-color="#8ebc2a"/></linearGradient><linearGradient id="linear-gradient-6" x1="75.5" y1="2404.09" x2="75.5" y2="2428.72" gradientTransform="matrix(1, 0, 0, -1, 0, 2507.5)" gradientUnits="userSpaceOnUse"><stop offset="0" stop-color="#67b71a"/><stop offset="1" stop-color="#8ebc2b"/></linearGradient><linearGradient id="linear-gradient-7" x1="75.5" y1="2403.58" x2="75.5" y2="2427.28" gradientTransform="matrix(1, 0, 0, -1, 0, 2507.5)" gradientUnits="userSpaceOnUse"><stop offset="0" stop-color="#6ab71c"/><stop offset="1" stop-color="#8ebb2d"/></linearGradient><linearGradient id="linear-gradient-8" x1="75" y1="2403.07" x2="75" y2="2425.83" gradientTransform="matrix(1, 0, 0, -1, 0, 2507.5)" gradientUnits="userSpaceOnUse"><stop offset="0" stop-color="#6cb71f"/><stop offset="1" stop-color="#8ebb2e"/></linearGradient><linearGradient id="linear-gradient-9" x1="75" y1="2402.56" x2="75" y2="2424.39" gradientTransform="matrix(1, 0, 0, -1, 0, 2507.5)" gradientUnits="userSpaceOnUse"><stop offset="0" stop-color="#6fb721"/><stop offset="1" stop-color="#8fbb2f"/></linearGradient><linearGradient id="linear-gradient-10" x1="75" y1="2402.04" x2="75" y2="2422.95" gradientTransform="matrix(1, 0, 0, -1, 0, 2507.5)" gradientUnits="userSpaceOnUse"><stop offset="0" stop-color="#72b723"/><stop offset="1" stop-color="#8fba31"/></linearGradient><linearGradient id="linear-gradient-11" x1="75.5" y1="2401.53" x2="75.5" y2="2421.5" gradientTransform="matrix(1, 0, 0, -1, 0, 2507.5)" gradientUnits="userSpaceOnUse"><stop offset="0" stop-color="#74b726"/><stop offset="1" stop-color="#8fba32"/></linearGradient><linearGradient id="linear-gradient-12" x1="75.5" y1="2401.02" x2="75.5" y2="2420.06" gradientTransform="matrix(1, 0, 0, -1, 0, 2507.5)" gradientUnits="userSpaceOnUse"><stop offset="0" stop-color="#77b728"/><stop offset="1" stop-color="#8fba33"/></linearGradient><linearGradient id="linear-gradient-13" x1="75" y1="2400.51" x2="75" y2="2418.62" gradientTransform="matrix(1, 0, 0, -1, 0, 2507.5)" gradientUnits="userSpaceOnUse"><stop offset="0" stop-color="#79b72b"/><stop offset="1" stop-color="#8fba34"/></linearGradient><linearGradient id="linear-gradient-14" x1="75" y1="2400" x2="75" y2="2417.18" gradientTransform="matrix(1, 0, 0, -1, 0, 2507.5)" gradientUnits="userSpaceOnUse"><stop offset="0" stop-color="#7cb72d"/><stop offset="1" stop-color="#8fb936"/></linearGradient><linearGradient id="linear-gradient-15" x1="75.5" y1="2399.49" x2="75.5" y2="2415.73" gradientTransform="matrix(1, 0, 0, -1, 0, 2507.5)" gradientUnits="userSpaceOnUse"><stop offset="0" stop-color="#7fb72f"/><stop offset="1" stop-color="#90b937"/></linearGradient><linearGradient id="linear-gradient-16" x1="75.5" y1="2398.97" x2="75.5" y2="2414.29" gradientTransform="matrix(1, 0, 0, -1, 0, 2507.5)" gradientUnits="userSpaceOnUse"><stop offset="0" stop-color="#81b732"/><stop offset="1" stop-color="#90b938"/></linearGradient><linearGradient id="linear-gradient-17" x1="75.5" y1="2398.46" x2="75.5" y2="2412.85" gradientTransform="matrix(1, 0, 0, -1, 0, 2507.5)" gradientUnits="userSpaceOnUse"><stop offset="0" stop-color="#84b734"/><stop offset="1" stop-color="#90b83a"/></linearGradient><linearGradient id="linear-gradient-18" x1="75" y1="2397.95" x2="75" y2="2411.4" gradientTransform="matrix(1, 0, 0, -1, 0, 2507.5)" gradientUnits="userSpaceOnUse"><stop offset="0" stop-color="#87b736"/><stop offset="1" stop-color="#90b83b"/></linearGradient><linearGradient id="linear-gradient-19" x1="75" y1="2397.44" x2="75" y2="2409.96" gradientTransform="matrix(1, 0, 0, -1, 0, 2507.5)" gradientUnits="userSpaceOnUse"><stop offset="0" stop-color="#89b739"/><stop offset="1" stop-color="#90b83c"/></linearGradient><linearGradient id="linear-gradient-20" x1="75.5" y1="2396.93" x2="75.5" y2="2408.52" gradientTransform="matrix(1, 0, 0, -1, 0, 2507.5)" gradientUnits="userSpaceOnUse"><stop offset="0" stop-color="#8cb73b"/><stop offset="1" stop-color="#91b83d"/></linearGradient><linearGradient id="linear-gradient-21" x1="75.5" y1="2396.42" x2="75.5" y2="2407.07" gradientTransform="matrix(1, 0, 0, -1, 0, 2507.5)" gradientUnits="userSpaceOnUse"><stop offset="0" stop-color="#8eb73e"/><stop offset="1" stop-color="#91b73f"/></linearGradient><linearGradient id="linear-gradient-22" x1="74.99" y1="2453.21" x2="75" y2="2381.61" gradientTransform="matrix(1, 0, 0, -1, 0, 2507.5)" gradientUnits="userSpaceOnUse"><stop offset="0" stop-color="#317100"/><stop offset="1" stop-color="#4eb300"/></linearGradient></defs><title>person</title><g id="Layer_2" data-name="Layer 2"><g id="Layer_1-2" data-name="Layer 1"><g id="Layer_1-3" data-name="Layer_1"><g id="_926414320" data-name=" 926414320"><rect class="cls-2" x="2" y="7" width="146" height="146" rx="31" ry="31"/><rect class="cls-3" x="2" width="146" height="146" rx="31" ry="31"/><rect class="cls-4" x="5" y="2" width="141" height="141" rx="30" ry="30"/><rect class="cls-5" x="5" y="3" width="140" height="140" rx="30" ry="30"/><rect class="cls-2" x="10" y="7" width="131" height="131" rx="28" ry="28"/><rect class="cls-6" x="18" y="15" width="115" height="115" rx="24" ry="24"/><rect class="cls-7" x="19" y="17" width="112" height="112" rx="24" ry="24"/><polygon class="cls-8" points="87 124 102 120 95 116 82 118 72 120 87 124"/><path class="cls-9" d="M107,17c12,0,23,10,24,22L75,73,24,28c-3,4-4,8-4,13L75,73,29,23a19.74,19.74,0,0,1,14-6L75,73Z"/><path class="cls-8" d="M47,22h56a20.51,20.51,0,0,1,21,21V99a20.51,20.51,0,0,1-21,21H47a22,22,0,0,1-15-6,20.35,20.35,0,0,1-6-15V43a20.35,20.35,0,0,1,6-15A22,22,0,0,1,47,22Zm56,1H47c-5,0-10,3-14,6a23.89,23.89,0,0,0-5,14V99a23.89,23.89,0,0,0,5,14c4,3,9,6,14,6h56c6,0,10-3,14-6a19.74,19.74,0,0,0,6-14V43a19.74,19.74,0,0,0-6-14C113,26,109,23,103,23Z"/><path class="cls-10" d="M47,22h56c11,0,21,10,21,21V99c0,11-10,20-21,20H47A20.06,20.06,0,0,1,27,99V43C27,32,36,22,47,22Z"/><g class="cls-11"><path id="_1" data-name="1" class="cls-12" d="M75,94c31,0,57,10,57,23,0,12-26,23-57,23s-56-11-56-23C19,104,44,94,75,94Z"/><path class="cls-13" d="M75,95c30,0,55,10,55,22s-25,22-55,22-54-10-54-22S45,95,75,95Z"/><path class="cls-14" d="M75,96c29,0,53,9,53,21s-24,21-53,21-53-9-53-21S46,96,75,96Z"/><path class="cls-15" d="M75,96c28,0,51,10,51,21s-23,20-51,20-51-9-51-20S47,96,75,96Z"/><path class="cls-16" d="M75,97c27,0,49,9,49,20s-22,20-49,20-49-9-49-20S48,97,75,97Z"/><path class="cls-17" d="M75,98c26,0,48,8,48,19,0,10-22,19-48,19s-47-9-47-19C28,106,49,98,75,98Z"/><path class="cls-18" d="M75,99c25,0,46,8,46,18s-21,18-46,18-45-8-45-18S50,99,75,99Z"/><path class="cls-19" d="M75,99c24,0,44,8,44,18s-20,18-44,18-44-8-44-18S51,99,75,99Z"/><path class="cls-20" d="M75,100c23,0,42,8,42,17s-19,17-42,17-42-8-42-17S52,100,75,100Z"/><path class="cls-21" d="M75,101c22,0,40,7,40,16s-18,16-40,16-40-7-40-16S53,101,75,101Z"/><path class="cls-22" d="M75,101c21,0,39,7,39,16,0,8-18,15-39,15s-38-7-38-15C37,108,54,101,75,101Z"/><path class="cls-23" d="M75,102c20,0,37,7,37,15s-17,15-37,15-36-7-36-15S55,102,75,102Z"/><path class="cls-24" d="M75,103c19,0,35,6,35,14s-16,14-35,14-35-6-35-14S56,103,75,103Z"/><path class="cls-25" d="M75,104c19,0,33,6,33,13s-14,13-33,13c-18,0-33-6-33-13S57,104,75,104Z"/><path class="cls-26" d="M75,104c18,0,32,6,32,13s-14,13-32,13c-17,0-31-6-31-13S58,104,75,104Z"/><path class="cls-27" d="M75,105c17,0,30,5,30,12,0,6-13,12-30,12-16,0-29-6-29-12C46,110,59,105,75,105Z"/><path class="cls-28" d="M75,106c16,0,28,5,28,11s-12,11-28,11c-15,0-27-5-27-11S60,106,75,106Z"/><path class="cls-29" d="M75,107c15,0,26,4,26,10s-11,10-26,10c-14,0-26-4-26-10S61,107,75,107Z"/><path class="cls-30" d="M75,107c14,0,24,5,24,10s-10,10-24,10c-13,0-24-5-24-10S62,107,75,107Z"/><path class="cls-31" d="M75,108c13,0,23,4,23,9s-10,9-23,9c-12,0-22-4-22-9S63,108,75,108Z"/><path class="cls-32" d="M75,109c12,0,21,3,21,8,0,4-9,8-21,8-11,0-20-4-20-8C55,112,64,109,75,109Z"/><ellipse class="cls-33" cx="75" cy="117" rx="19" ry="8"/></g><path class="cls-1" d="M47,22h56c11,0,21,10,21,21V99c0,11-10,20-21,20H47A20.06,20.06,0,0,1,27,99V43C27,32,36,22,47,22Z"/><polygon class="cls-8" points="24 48 27 44 28 47 32 47 40 44 34 49 27 50 27 54 24 50 20 51 24 48"/><path class="cls-34" d="M49,25H70c-7,5-14,10-19,17-5-5-11-8-16-12C38,27,43,25,49,25Zm24,0h29c11,0,20,8,20,19V57a216.9,216.9,0,0,0-48,6L56,45c-1-1-2-1-3-2C58,36,65,30,73,25ZM72,64c-3,0-6,1-9,2A160.73,160.73,0,0,0,30,78c6-12,12-23,21-33V44a13.8,13.8,0,0,0,4,3A136.5,136.5,0,0,1,72,64ZM29,76V44c0-4,2-9,4-12A99.08,99.08,0,0,1,50,43l-1,1A115.55,115.55,0,0,0,29,76Z"/><polygon class="cls-35" points="87 123 102 119 95 116 82 117 73 120 87 123"/><polygon class="cls-35" points="24 46 27 42 28 46 32 46 40 44 34 48 27 49 27 53 24 49 20 51 24 46"/><polygon class="cls-2" points="0 89 2 89 2 102 0 100 0 89"/><path class="cls-2" d="M8,49A22.2,22.2,0,0,1,30,71C30,84,20,94,8,94a18.84,18.84,0,0,1-8-2V50C2,49,5,49,8,49Z"/><path class="cls-3" d="M8,45c12,0,22,10,22,23A22.2,22.2,0,0,1,8,90c-3,0-6,0-8-1V49l4-3H4C5,45,6,45,8,45Z"/><path class="cls-4" d="M8,45c12,0,22,10,22,23A22.2,22.2,0,0,1,8,90c-3,0-6,0-8-1V88a18.84,18.84,0,0,0,8,2A22,22,0,0,0,8,46H4L0,49H0l4-3H4C5,45,6,45,8,45Z"/><path class="cls-4" d="M5,90H4V46H5Z"/><polygon class="cls-5" points="0 89 0 86 0 49 4 46 4 90 0 93 0 89"/><polygon class="cls-2" points="2 92 1 96 5 93 2 92"/><polygon class="cls-4" points="0 92 0 93 4 90 4 89 0 92"/><polygon class="cls-4" points="0 48 0 49 4 46 4 45 0 48"/><polygon class="cls-2" points="151 89 148 89 148 102 151 100 151 89"/><path class="cls-2" d="M143,49c-13,0-23,10-23,22a22.63,22.63,0,0,0,23,23c3,0,5-1,8-2V50A22,22,0,0,0,143,49Z"/><path class="cls-3" d="M143,45a22.63,22.63,0,0,0-23,23c0,12,10,22,23,22a22,22,0,0,0,8-1V49l-4-3h0A7.56,7.56,0,0,0,143,45Z"/><path class="cls-4" d="M143,45a22.63,22.63,0,0,0-23,23c0,12,10,22,23,22a22,22,0,0,0,8-1V88c-3,1-5,2-8,2a22,22,0,0,1,0-44h4l4,3h0l-4-3h0A7.56,7.56,0,0,0,143,45Z"/><path class="cls-4" d="M146,90h1V46h-1Z"/><polygon class="cls-5" points="151 89 151 86 151 49 147 46 147 90 151 93 151 89"/><polygon class="cls-2" points="148 92 149 96 145 93 148 92"/><polygon class="cls-4" points="151 92 151 93 147 90 147 89 151 92"/><polygon class="cls-4" points="151 48 151 49 147 46 147 45 151 48"/><path class="cls-8" d="M76,73c-14,0-17,13-18,29,0,1,1,3,4,3H88c4,0,4-2,4-3C92,87,88,73,76,73Z"/><path class="cls-36" d="M76,66C62,66,59,79,58,95v6H92V95h0C92,80,88,66,76,66ZM62,51v6h1c3,4,7,7,13,7,5,0,9-3,12-7h2V50A14.3,14.3,0,0,0,76,36,13.67,13.67,0,0,0,62,50Z"/><path class="cls-37" d="M76,71c-14,0-17,14-18,29,0,1,1,3,4,3H88c4,0,4-2,4-3C92,85,88,71,76,71Zm0-30A14.3,14.3,0,0,1,90,55,14.3,14.3,0,0,1,76,69,13.67,13.67,0,0,1,62,55,13.67,13.67,0,0,1,76,41Z"/></g></g></g></g></svg>