<svg xmlns="http://www.w3.org/2000/svg" xmlns:xlink="http://www.w3.org/1999/xlink" viewBox="0 0 150 153"><defs><style>.cls-1{fill:none;}.cls-2{fill:#53381d;}.cls-3{fill:#963;}.cls-4{fill:#ca9560;}.cls-5{fill:#af753b;}.cls-6{fill:#254c05;}.cls-7{fill:url(#radial-gradient);}.cls-8{fill:#7cd637;}.cls-34,.cls-9{fill:#fff;}.cls-9{fill-opacity:0.2;}.cls-10{fill:url(#radial-gradient-2);}.cls-11{clip-path:url(#clip-path);}.cls-12{fill-opacity:0;fill:url(#linear-gradient);}.cls-13{fill-opacity:0.05;fill:url(#linear-gradient-2);}.cls-14{fill-opacity:0.09;fill:url(#linear-gradient-3);}.cls-15{fill-opacity:0.14;fill:url(#linear-gradient-4);}.cls-16{fill-opacity:0.19;fill:url(#linear-gradient-5);}.cls-17{fill-opacity:0.24;fill:url(#linear-gradient-6);}.cls-18{fill-opacity:0.29;fill:url(#linear-gradient-7);}.cls-19{fill-opacity:0.33;fill:url(#linear-gradient-8);}.cls-20{fill-opacity:0.38;fill:url(#linear-gradient-9);}.cls-21{fill-opacity:0.43;fill:url(#linear-gradient-10);}.cls-22{fill-opacity:0.47;fill:url(#linear-gradient-11);}.cls-23{fill-opacity:0.53;fill:url(#linear-gradient-12);}.cls-24{fill-opacity:0.57;fill:url(#linear-gradient-13);}.cls-25{fill-opacity:0.62;fill:url(#linear-gradient-14);}.cls-26{fill-opacity:0.67;fill:url(#linear-gradient-15);}.cls-27{fill-opacity:0.71;fill:url(#linear-gradient-16);}.cls-28{fill-opacity:0.76;fill:url(#linear-gradient-17);}.cls-29{fill-opacity:0.81;fill:url(#linear-gradient-18);}.cls-30{fill-opacity:0.86;fill:url(#linear-gradient-19);}.cls-31{fill-opacity:0.91;fill:url(#linear-gradient-20);}.cls-32{fill-opacity:0.95;fill:url(#linear-gradient-21);}.cls-33{fill:#91b740;}.cls-34{fill-opacity:0.3;}.cls-35{fill:#336b05;}.cls-36{fill:url(#linear-gradient-22);}</style><radialGradient id="radial-gradient" cx="-674.95" cy="-749.13" r="46.99" gradientTransform="matrix(0, 1.1, 1.44, -0.01, 1151.93, 813.28)" gradientUnits="userSpaceOnUse"><stop offset="0" stop-color="#5ab70e"/><stop offset="0.85" stop-color="#469109"/><stop offset="1" stop-color="#336b05"/></radialGradient><radialGradient id="radial-gradient-2" cx="75" cy="1756.21" r="48.47" gradientTransform="matrix(1, 0, 0, -1, -0.01, 1827.48)" gradientUnits="userSpaceOnUse"><stop offset="0" stop-color="#8dbd25"/><stop offset="1" stop-color="#5ab70e"/></radialGradient><clipPath id="clip-path"><path class="cls-1" d="M47,23h56a20.06,20.06,0,0,1,20,20V99c0,11-9,21-20,21H47c-11,0-20-10-20-21V43A20.06,20.06,0,0,1,47,23Z"/></clipPath><linearGradient id="linear-gradient" x1="534.16" y1="1350.55" x2="534.16" y2="1350.7" gradientTransform="matrix(112, 0, 0, -45, -59751, 60876.5)" gradientUnits="userSpaceOnUse"><stop offset="0" stop-color="#5ab70e"/><stop offset="1" stop-color="#8dbd25"/></linearGradient><linearGradient id="linear-gradient-2" x1="534.01" y1="1351.49" x2="534.01" y2="1351.64" gradientTransform="matrix(110, 0, 0, -44, -58666, 59567)" gradientUnits="userSpaceOnUse"><stop offset="0" stop-color="#5db710"/><stop offset="1" stop-color="#8dbd26"/></linearGradient><linearGradient id="linear-gradient-3" x1="75" y1="1725.26" x2="75" y2="1752.68" gradientTransform="matrix(1, 0, 0, -1, 0, 1827.5)" gradientUnits="userSpaceOnUse"><stop offset="0" stop-color="#5fb713"/><stop offset="1" stop-color="#8dbc28"/></linearGradient><linearGradient id="linear-gradient-4" x1="75" y1="1724.74" x2="75" y2="1751.24" gradientTransform="matrix(1, 0, 0, -1, 0, 1827.5)" gradientUnits="userSpaceOnUse"><stop offset="0" stop-color="#62b715"/><stop offset="1" stop-color="#8ebc29"/></linearGradient><linearGradient id="linear-gradient-5" x1="532.97" y1="1356.89" x2="532.97" y2="1357.04" gradientTransform="matrix(98, 0, 0, -39, -52156, 53022.5)" gradientUnits="userSpaceOnUse"><stop offset="0" stop-color="#64b718"/><stop offset="1" stop-color="#8ebc2a"/></linearGradient><linearGradient id="linear-gradient-6" x1="75" y1="1723.72" x2="75" y2="1748.35" gradientTransform="matrix(1, 0, 0, -1, 0, 1827.5)" gradientUnits="userSpaceOnUse"><stop offset="0" stop-color="#67b71a"/><stop offset="1" stop-color="#8ebc2b"/></linearGradient><linearGradient id="linear-gradient-7" x1="75" y1="1723.21" x2="75" y2="1746.91" gradientTransform="matrix(1, 0, 0, -1, 0, 1827.5)" gradientUnits="userSpaceOnUse"><stop offset="0" stop-color="#6ab71c"/><stop offset="1" stop-color="#8ebb2d"/></linearGradient><linearGradient id="linear-gradient-8" x1="75" y1="1722.7" x2="75" y2="1745.47" gradientTransform="matrix(1, 0, 0, -1, 0, 1827.5)" gradientUnits="userSpaceOnUse"><stop offset="0" stop-color="#6cb71f"/><stop offset="1" stop-color="#8ebb2e"/></linearGradient><linearGradient id="linear-gradient-9" x1="75" y1="1722.19" x2="75" y2="1744.02" gradientTransform="matrix(1, 0, 0, -1, 0, 1827.5)" gradientUnits="userSpaceOnUse"><stop offset="0" stop-color="#6fb721"/><stop offset="1" stop-color="#8fbb2f"/></linearGradient><linearGradient id="linear-gradient-10" x1="75" y1="1721.68" x2="75" y2="1742.58" gradientTransform="matrix(1, 0, 0, -1, 0, 1827.5)" gradientUnits="userSpaceOnUse"><stop offset="0" stop-color="#72b723"/><stop offset="1" stop-color="#8fba31"/></linearGradient><linearGradient id="linear-gradient-11" x1="75" y1="1721.16" x2="75" y2="1741.14" gradientTransform="matrix(1, 0, 0, -1, 0, 1827.5)" gradientUnits="userSpaceOnUse"><stop offset="0" stop-color="#74b726"/><stop offset="1" stop-color="#8fba32"/></linearGradient><linearGradient id="linear-gradient-12" x1="75" y1="1720.65" x2="75" y2="1739.69" gradientTransform="matrix(1, 0, 0, -1, 0, 1827.5)" gradientUnits="userSpaceOnUse"><stop offset="0" stop-color="#77b728"/><stop offset="1" stop-color="#8fba33"/></linearGradient><linearGradient id="linear-gradient-13" x1="75" y1="1720.14" x2="75" y2="1738.25" gradientTransform="matrix(1, 0, 0, -1, 0, 1827.5)" gradientUnits="userSpaceOnUse"><stop offset="0" stop-color="#79b72b"/><stop offset="1" stop-color="#8fba34"/></linearGradient><linearGradient id="linear-gradient-14" x1="75" y1="1719.63" x2="75" y2="1736.81" gradientTransform="matrix(1, 0, 0, -1, 0, 1827.5)" gradientUnits="userSpaceOnUse"><stop offset="0" stop-color="#7cb72d"/><stop offset="1" stop-color="#8fb936"/></linearGradient><linearGradient id="linear-gradient-15" x1="75" y1="1719.12" x2="75" y2="1735.36" gradientTransform="matrix(1, 0, 0, -1, 0, 1827.5)" gradientUnits="userSpaceOnUse"><stop offset="0" stop-color="#7fb72f"/><stop offset="1" stop-color="#90b937"/></linearGradient><linearGradient id="linear-gradient-16" x1="75.5" y1="1718.61" x2="75.5" y2="1733.92" gradientTransform="matrix(1, 0, 0, -1, 0, 1827.5)" gradientUnits="userSpaceOnUse"><stop offset="0" stop-color="#81b732"/><stop offset="1" stop-color="#90b938"/></linearGradient><linearGradient id="linear-gradient-17" x1="75" y1="1718.09" x2="75" y2="1732.48" gradientTransform="matrix(1, 0, 0, -1, 0, 1827.5)" gradientUnits="userSpaceOnUse"><stop offset="0" stop-color="#84b734"/><stop offset="1" stop-color="#90b83a"/></linearGradient><linearGradient id="linear-gradient-18" x1="75" y1="1717.58" x2="75" y2="1731.04" gradientTransform="matrix(1, 0, 0, -1, 0, 1827.5)" gradientUnits="userSpaceOnUse"><stop offset="0" stop-color="#87b736"/><stop offset="1" stop-color="#90b83b"/></linearGradient><linearGradient id="linear-gradient-19" x1="75" y1="1717.07" x2="75" y2="1729.59" gradientTransform="matrix(1, 0, 0, -1, 0, 1827.5)" gradientUnits="userSpaceOnUse"><stop offset="0" stop-color="#89b739"/><stop offset="1" stop-color="#90b83c"/></linearGradient><linearGradient id="linear-gradient-20" x1="75" y1="1716.56" x2="75" y2="1728.15" gradientTransform="matrix(1, 0, 0, -1, 0, 1827.5)" gradientUnits="userSpaceOnUse"><stop offset="0" stop-color="#8cb73b"/><stop offset="1" stop-color="#91b83d"/></linearGradient><linearGradient id="linear-gradient-21" x1="75.5" y1="1716.05" x2="75.5" y2="1726.71" gradientTransform="matrix(1, 0, 0, -1, 0, 1827.5)" gradientUnits="userSpaceOnUse"><stop offset="0" stop-color="#8eb73e"/><stop offset="1" stop-color="#91b73f"/></linearGradient><linearGradient id="linear-gradient-22" x1="75" y1="1774.72" x2="75" y2="1698.45" gradientTransform="matrix(1, 0, 0, -1, 0, 1827.5)" gradientUnits="userSpaceOnUse"><stop offset="0" stop-color="#317100"/><stop offset="1" stop-color="#4eb300"/></linearGradient></defs><title>settings</title><g id="Layer_2" data-name="Layer 2"><g id="Layer_1-2" data-name="Layer 1"><g id="Layer_1-3" data-name="Layer_1"><g id="_933677536" data-name=" 933677536"><rect class="cls-2" x="2" y="7" width="146" height="146" rx="31" ry="31"/><rect class="cls-3" x="2" width="146" height="146" rx="31" ry="31"/><rect class="cls-4" x="4" y="3" width="141" height="141" rx="30" ry="30"/><rect class="cls-5" x="5" y="3" width="140" height="140" rx="30" ry="30"/><rect class="cls-2" x="9" y="7" width="131" height="131" rx="28" ry="28"/><rect class="cls-6" x="18" y="16" width="115" height="115" rx="24" ry="24"/><rect class="cls-7" x="19" y="17" width="112" height="112" rx="24" ry="24"/><polygon class="cls-8" points="87 124 102 121 94 117 82 118 72 121 87 124"/><path class="cls-9" d="M107,18c12,0,22,9,23,22L75,73,23,29c-2,3-3,8-3,12L75,73,28,23a27,27,0,0,1,15-5L75,73Z"/><path class="cls-8" d="M47,22h56a20.35,20.35,0,0,1,15,6,22,22,0,0,1,6,15V99a20.35,20.35,0,0,1-6,15c-4,4-9,7-15,7H47c-6,0-11-3-15-7a20.35,20.35,0,0,1-6-15V43a22,22,0,0,1,6-15A20.35,20.35,0,0,1,47,22Zm56,2H47a23.89,23.89,0,0,0-14,5c-3,4-6,9-6,14V99a20.26,20.26,0,0,0,6,14,19.74,19.74,0,0,0,14,6h56a19.74,19.74,0,0,0,14-6,20.26,20.26,0,0,0,6-14V43c0-5-3-10-6-14A23.89,23.89,0,0,0,103,24Z"/><path class="cls-10" d="M47,23h56a20.06,20.06,0,0,1,20,20V99c0,11-9,21-20,21H47c-11,0-20-10-20-21V43A20.06,20.06,0,0,1,47,23Z"/><g class="cls-11"><path id="_1" data-name="1" class="cls-12" d="M75,95c31,0,56,10,56,22,0,13-25,23-56,23s-56-10-56-23C19,105,44,95,75,95Z"/><path class="cls-13" d="M75,95c30,0,55,10,55,22s-25,22-55,22-55-10-55-22S45,95,75,95Z"/><path class="cls-14" d="M75,96c29,0,53,10,53,21,0,12-24,22-53,22s-53-10-53-22C22,106,46,96,75,96Z"/><path class="cls-15" d="M75,97c28,0,51,9,51,20,0,12-23,21-51,21s-51-9-51-21C24,106,47,97,75,97Z"/><path class="cls-16" d="M75,98c27,0,49,8,49,19s-22,20-49,20-49-9-49-20S48,98,75,98Z"/><path class="cls-17" d="M75,98c26,0,47,9,47,19,0,11-21,19-47,19s-47-8-47-19C28,107,49,98,75,98Z"/><path class="cls-18" d="M75,99c25,0,46,8,46,18s-21,19-46,19-46-9-46-19S50,99,75,99Z"/><path class="cls-19" d="M75,100c24,0,44,8,44,17,0,10-20,18-44,18s-44-8-44-18C31,108,51,100,75,100Z"/><path class="cls-20" d="M75,100c23,0,42,8,42,17,0,10-19,17-42,17s-42-7-42-17C33,108,52,100,75,100Z"/><path class="cls-21" d="M75,101c22,0,40,7,40,16s-18,16-40,16-40-7-40-16S53,101,75,101Z"/><path class="cls-22" d="M75,102c21,0,38,7,38,15,0,9-17,16-38,16s-38-7-38-16C37,109,54,102,75,102Z"/><path class="cls-23" d="M75,103c20,0,37,6,37,14s-17,15-37,15-37-7-37-15S55,103,75,103Z"/><path class="cls-24" d="M75,103c19,0,35,7,35,14,0,8-16,14-35,14s-35-6-35-14C40,110,56,103,75,103Z"/><path class="cls-25" d="M75,104c18,0,33,6,33,13,0,8-15,14-33,14s-33-6-33-14C42,110,57,104,75,104Z"/><path class="cls-26" d="M75,105c17,0,31,5,31,12s-14,13-31,13-31-6-31-13S58,105,75,105Z"/><path class="cls-27" d="M75,105c16,0,30,6,30,12,0,7-14,12-30,12s-29-5-29-12C46,111,59,105,75,105Z"/><path class="cls-28" d="M75,106c15,0,28,5,28,11s-13,11-28,11-28-5-28-11S60,106,75,106Z"/><path class="cls-29" d="M75,107c14,0,26,5,26,10,0,6-12,11-26,11s-26-5-26-11C49,112,61,107,75,107Z"/><path class="cls-30" d="M75,108c13,0,24,4,24,9,0,6-11,10-24,10s-24-4-24-10C51,112,62,108,75,108Z"/><path class="cls-31" d="M75,108c12,0,22,4,22,9s-10,9-22,9-22-4-22-9S63,108,75,108Z"/><path class="cls-32" d="M75,109c11,0,21,4,21,8,0,5-10,9-21,9s-20-4-20-9C55,113,64,109,75,109Z"/><ellipse class="cls-33" cx="75" cy="117" rx="19" ry="8"/></g><path class="cls-1" d="M47,23h56a20.06,20.06,0,0,1,20,20V99c0,11-9,21-20,21H47c-11,0-20-10-20-21V43A20.06,20.06,0,0,1,47,23Z"/><polygon class="cls-8" points="24 48 26 44 28 48 32 47 40 44 34 49 27 51 26 55 24 51 20 51 24 48"/><path class="cls-34" d="M48,25H69A97.63,97.63,0,0,0,51,42,99.08,99.08,0,0,0,34,31,19.74,19.74,0,0,1,48,25Zm25,0h29c11,0,19,9,19,20V58c-14,0-30,2-47,6A152.74,152.74,0,0,0,56,46a13.8,13.8,0,0,1-4-3C58,37,65,30,73,25ZM72,64c-3,1-6,2-9,2Q45,72,30,78A138.46,138.46,0,0,1,50,45l1-1,3,3C61,52,66,58,72,64ZM29,76V45c0-5,1-9,4-13,6,4,11,7,17,11l-1,1A155,155,0,0,0,29,76Z"/><polygon class="cls-35" points="87 123 102 120 94 116 82 118 73 121 87 123"/><polygon class="cls-35" points="24 47 26 43 28 47 32 46 40 44 34 48 27 50 26 54 24 50 20 51 24 47"/><polygon class="cls-2" points="0 89 2 89 2 103 0 101 0 89"/><path class="cls-2" d="M8,49c12,0,22,10,22,23A22.2,22.2,0,0,1,8,94c-3,0-6,0-8-1V50C2,50,5,49,8,49Z"/><path class="cls-3" d="M8,45c12,0,22,11,22,23A22.2,22.2,0,0,1,8,90c-3,0-6,0-8-1V49l4-3H3C5,46,6,45,8,45Z"/><path class="cls-4" d="M8,45c12,0,22,11,22,23A22.2,22.2,0,0,1,8,90c-3,0-6,0-8-1V88a18.54,18.54,0,0,0,7,2c13,0,22-10,22-22S20,46,7,46a7.56,7.56,0,0,0-4,1H3L0,50V49l4-3H3C5,46,6,45,8,45Z"/><path class="cls-4" d="M4,90H3V46H4Z"/><polygon class="cls-5" points="0 89 0 87 0 49 4 46 4 90 0 93 0 89"/><polygon class="cls-2" points="2 92 1 96 5 93 2 92"/><polygon class="cls-4" points="0 92 0 93 4 90 4 89 0 92"/><polygon class="cls-4" points="0 49 0 50 4 47 4 46 0 49"/><polygon class="cls-2" points="150 89 148 89 148 103 150 101 150 89"/><path class="cls-2" d="M143,49a22.63,22.63,0,0,0-23,23c0,12,10,22,23,22,2,0,5,0,7-1V50C148,50,145,49,143,49Z"/><path class="cls-3" d="M143,45a23.26,23.26,0,0,0-23,23c0,12,10,22,23,22,2,0,5,0,7-1V49l-3-3h0C145,46,144,45,143,45Z"/><path class="cls-4" d="M143,45a23.26,23.26,0,0,0-23,23c0,12,10,22,23,22,2,0,5,0,7-1V88a18.54,18.54,0,0,1-7,2,22,22,0,0,1,0-44,7.56,7.56,0,0,1,4,1h0l3,3V49l-3-3h0C145,46,144,45,143,45Z"/><path class="cls-4" d="M146,90h1V46h-1Z"/><polygon class="cls-5" points="150 89 150 87 150 49 147 46 147 90 150 93 150 89"/><polygon class="cls-2" points="148 92 149 96 145 93 148 92"/><polygon class="cls-4" points="150 92 150 93 147 90 147 89 150 92"/><polygon class="cls-4" points="150 49 150 50 147 47 147 46 150 49"/><path class="cls-8" d="M51,45c4,0,8,4,8,8a8,8,0,0,1-16,0C43,49,47,45,51,45ZM69,87h33a4.72,4.72,0,0,1,5,5h0c0,2-2,5-5,5H69c-3,0-5-3-5-5h0A4.72,4.72,0,0,1,69,87ZM51,83c4,0,8,4,8,8s-4,8-8,8-8-4-8-8S47,83,51,83ZM69,68h33c3,0,5,2,5,4h0a4.72,4.72,0,0,1-5,5H69a4.72,4.72,0,0,1-5-5h0C64,70,66,68,69,68ZM51,64a7.89,7.89,0,0,1,8,8c0,4-4,8-8,8s-8-4-8-8A7.89,7.89,0,0,1,51,64ZM69,49h33a4.72,4.72,0,0,1,5,5h0a4.72,4.72,0,0,1-5,5H69a4.72,4.72,0,0,1-5-5h0A4.72,4.72,0,0,1,69,49Z"/><rect class="cls-6" x="43" y="50" width="15.79" height="2.36"/><rect class="cls-6" x="43" y="69" width="15.79" height="2.36"/><rect class="cls-6" x="43" y="88" width="15.79" height="2.36"/><path class="cls-6" d="M51,42c4,0,8,4,8,8s-4,8-8,8-8-4-8-8S47,42,51,42ZM69,84h33a4.72,4.72,0,0,1,5,5h0c0,2-2,4-5,4H69c-3,0-5-2-5-4h0A4.72,4.72,0,0,1,69,84ZM51,80c4,0,8,4,8,8s-4,8-8,8-8-4-8-8S47,80,51,80ZM69,64h33c3,0,5,3,5,5h0a4.72,4.72,0,0,1-5,5H69a4.72,4.72,0,0,1-5-5h0C64,67,66,64,69,64ZM51,61a7.89,7.89,0,0,1,8,8c0,4-4,7-8,7s-8-3-8-7A7.89,7.89,0,0,1,51,61ZM69,46h33a4.72,4.72,0,0,1,5,5h0c0,2-2,5-5,5H69c-3,0-5-3-5-5h0A4.72,4.72,0,0,1,69,46Z"/><rect class="cls-6" x="64" y="50" width="43.35" height="2.64"/><rect class="cls-6" x="64" y="69" width="43.36" height="2.36"/><rect class="cls-6" x="64" y="89" width="43.36" height="2.36"/><path class="cls-36" d="M51,44c4,0,8,4,8,8a8,8,0,0,1-16,0C43,48,47,44,51,44ZM69,86h33a4.72,4.72,0,0,1,5,5h0a4.72,4.72,0,0,1-5,5H69a4.72,4.72,0,0,1-5-5h0A4.72,4.72,0,0,1,69,86ZM51,82c4,0,8,4,8,8a8,8,0,0,1-16,0C43,86,47,82,51,82ZM69,67h33a4.72,4.72,0,0,1,5,5h0c0,2-2,4-5,4H69c-3,0-5-2-5-4h0A4.72,4.72,0,0,1,69,67ZM51,63c4,0,8,4,8,8s-4,8-8,8-8-4-8-8S47,63,51,63ZM69,48h33a4.72,4.72,0,0,1,5,5h0a4.72,4.72,0,0,1-5,5H69a4.72,4.72,0,0,1-5-5h0A4.72,4.72,0,0,1,69,48Z"/></g></g></g></g></svg>