<svg xmlns="http://www.w3.org/2000/svg" xmlns:xlink="http://www.w3.org/1999/xlink" viewBox="0 0 151 153"><defs><style>.cls-1{fill:none;}.cls-2{fill:#53381d;}.cls-3{fill:#963;}.cls-4{fill:#ca9560;}.cls-5{fill:#af753b;}.cls-6{fill:#254c05;}.cls-7{fill:url(#radial-gradient);}.cls-8{fill:#7cd637;}.cls-34,.cls-9{fill:#fff;}.cls-9{fill-opacity:0.2;}.cls-10{fill:url(#radial-gradient-2);}.cls-11{clip-path:url(#clip-path);}.cls-12{fill-opacity:0;fill:url(#linear-gradient);}.cls-13{fill-opacity:0.05;fill:url(#linear-gradient-2);}.cls-14{fill-opacity:0.09;fill:url(#linear-gradient-3);}.cls-15{fill-opacity:0.14;fill:url(#linear-gradient-4);}.cls-16{fill-opacity:0.19;fill:url(#linear-gradient-5);}.cls-17{fill-opacity:0.24;fill:url(#linear-gradient-6);}.cls-18{fill-opacity:0.29;fill:url(#linear-gradient-7);}.cls-19{fill-opacity:0.33;fill:url(#linear-gradient-8);}.cls-20{fill-opacity:0.38;fill:url(#linear-gradient-9);}.cls-21{fill-opacity:0.43;fill:url(#linear-gradient-10);}.cls-22{fill-opacity:0.47;fill:url(#linear-gradient-11);}.cls-23{fill-opacity:0.53;fill:url(#linear-gradient-12);}.cls-24{fill-opacity:0.57;fill:url(#linear-gradient-13);}.cls-25{fill-opacity:0.62;fill:url(#linear-gradient-14);}.cls-26{fill-opacity:0.67;fill:url(#linear-gradient-15);}.cls-27{fill-opacity:0.71;fill:url(#linear-gradient-16);}.cls-28{fill-opacity:0.76;fill:url(#linear-gradient-17);}.cls-29{fill-opacity:0.81;fill:url(#linear-gradient-18);}.cls-30{fill-opacity:0.86;fill:url(#linear-gradient-19);}.cls-31{fill-opacity:0.91;fill:url(#linear-gradient-20);}.cls-32{fill-opacity:0.95;fill:url(#linear-gradient-21);}.cls-33{fill:#91b740;}.cls-34{fill-opacity:0.3;}.cls-35{fill:#336b05;}.cls-36{fill:url(#linear-gradient-22);}</style><radialGradient id="radial-gradient" cx="-674.75" cy="-2639.18" r="46.99" gradientTransform="matrix(0, 1.1, 1.44, -0.01, 3870.09, -2124.74)" gradientUnits="userSpaceOnUse"><stop offset="0" stop-color="#5ab70e"/><stop offset="0.85" stop-color="#469109"/><stop offset="1" stop-color="#336b05"/></radialGradient><radialGradient id="radial-gradient-2" cx="75.25" cy="-826.67" r="48.44" gradientTransform="matrix(1, 0, 0, -1, 0, -2990.49)" gradientUnits="userSpaceOnUse"><stop offset="0" stop-color="#8dbd25"/><stop offset="1" stop-color="#5ab70e"/></radialGradient><clipPath id="clip-path"><path class="cls-1" d="M47,23h56c11,0,21,9,21,20V99c0,11-10,21-21,21H47c-11,0-20-10-20-21V43A20.06,20.06,0,0,1,47,23Z"/></clipPath><linearGradient id="linear-gradient" x1="-417.77" y1="-1058.45" x2="-417.77" y2="-1058.3" gradientTransform="matrix(113, 0, 0, -45, 47283, -47528.5)" gradientUnits="userSpaceOnUse"><stop offset="0" stop-color="#5ab70e"/><stop offset="1" stop-color="#8dbd25"/></linearGradient><linearGradient id="linear-gradient-2" x1="-418.07" y1="-1057.51" x2="-418.07" y2="-1057.36" gradientTransform="matrix(109, 0, 0, -44, 45645, -46429)" gradientUnits="userSpaceOnUse"><stop offset="0" stop-color="#5db710"/><stop offset="1" stop-color="#8dbd26"/></linearGradient><linearGradient id="linear-gradient-3" x1="75" y1="-3092.75" x2="75" y2="-3065.33" gradientTransform="matrix(1, 0, 0, -1, 0, -2990.5)" gradientUnits="userSpaceOnUse"><stop offset="0" stop-color="#5fb713"/><stop offset="1" stop-color="#8dbc28"/></linearGradient><linearGradient id="linear-gradient-4" x1="75" y1="-3093.26" x2="75" y2="-3066.77" gradientTransform="matrix(1, 0, 0, -1, 0, -2990.5)" gradientUnits="userSpaceOnUse"><stop offset="0" stop-color="#62b715"/><stop offset="1" stop-color="#8ebc29"/></linearGradient><linearGradient id="linear-gradient-5" x1="75" y1="-3093.78" x2="75" y2="-3068.21" gradientTransform="matrix(1, 0, 0, -1, 0, -2990.5)" gradientUnits="userSpaceOnUse"><stop offset="0" stop-color="#64b718"/><stop offset="1" stop-color="#8ebc2a"/></linearGradient><linearGradient id="linear-gradient-6" x1="75.5" y1="-3094.29" x2="75.5" y2="-3069.66" gradientTransform="matrix(1, 0, 0, -1, 0, -2990.5)" gradientUnits="userSpaceOnUse"><stop offset="0" stop-color="#67b71a"/><stop offset="1" stop-color="#8ebc2b"/></linearGradient><linearGradient id="linear-gradient-7" x1="75.5" y1="-3094.8" x2="75.5" y2="-3071.1" gradientTransform="matrix(1, 0, 0, -1, 0, -2990.5)" gradientUnits="userSpaceOnUse"><stop offset="0" stop-color="#6ab71c"/><stop offset="1" stop-color="#8ebb2d"/></linearGradient><linearGradient id="linear-gradient-8" x1="75" y1="-3095.31" x2="75" y2="-3072.54" gradientTransform="matrix(1, 0, 0, -1, 0, -2990.5)" gradientUnits="userSpaceOnUse"><stop offset="0" stop-color="#6cb71f"/><stop offset="1" stop-color="#8ebb2e"/></linearGradient><linearGradient id="linear-gradient-9" x1="75" y1="-3095.82" x2="75" y2="-3073.99" gradientTransform="matrix(1, 0, 0, -1, 0, -2990.5)" gradientUnits="userSpaceOnUse"><stop offset="0" stop-color="#6fb721"/><stop offset="1" stop-color="#8fbb2f"/></linearGradient><linearGradient id="linear-gradient-10" x1="75" y1="-3096.33" x2="75" y2="-3075.43" gradientTransform="matrix(1, 0, 0, -1, 0, -2990.5)" gradientUnits="userSpaceOnUse"><stop offset="0" stop-color="#72b723"/><stop offset="1" stop-color="#8fba31"/></linearGradient><linearGradient id="linear-gradient-11" x1="75.5" y1="-3096.84" x2="75.5" y2="-3076.87" gradientTransform="matrix(1, 0, 0, -1, 0, -2990.5)" gradientUnits="userSpaceOnUse"><stop offset="0" stop-color="#74b726"/><stop offset="1" stop-color="#8fba32"/></linearGradient><linearGradient id="linear-gradient-12" x1="75.5" y1="-3097.36" x2="75.5" y2="-3078.31" gradientTransform="matrix(1, 0, 0, -1, 0, -2990.5)" gradientUnits="userSpaceOnUse"><stop offset="0" stop-color="#77b728"/><stop offset="1" stop-color="#8fba33"/></linearGradient><linearGradient id="linear-gradient-13" x1="-422.84" y1="-1033.43" x2="-422.84" y2="-1033.29" gradientTransform="matrix(70, 0, 0, -28, 29674, -28829)" gradientUnits="userSpaceOnUse"><stop offset="0" stop-color="#79b72b"/><stop offset="1" stop-color="#8fba34"/></linearGradient><linearGradient id="linear-gradient-14" x1="75" y1="-3098.38" x2="75" y2="-3081.2" gradientTransform="matrix(1, 0, 0, -1, 0, -2990.5)" gradientUnits="userSpaceOnUse"><stop offset="0" stop-color="#7cb72d"/><stop offset="1" stop-color="#8fb936"/></linearGradient><linearGradient id="linear-gradient-15" x1="75.5" y1="-3098.89" x2="75.5" y2="-3082.64" gradientTransform="matrix(1, 0, 0, -1, 0, -2990.5)" gradientUnits="userSpaceOnUse"><stop offset="0" stop-color="#7fb72f"/><stop offset="1" stop-color="#90b937"/></linearGradient><linearGradient id="linear-gradient-16" x1="75.5" y1="-3099.4" x2="75.5" y2="-3084.09" gradientTransform="matrix(1, 0, 0, -1, 0, -2990.5)" gradientUnits="userSpaceOnUse"><stop offset="0" stop-color="#81b732"/><stop offset="1" stop-color="#90b938"/></linearGradient><linearGradient id="linear-gradient-17" x1="75.5" y1="-3099.91" x2="75.5" y2="-3085.53" gradientTransform="matrix(1, 0, 0, -1, 0, -2990.5)" gradientUnits="userSpaceOnUse"><stop offset="0" stop-color="#84b734"/><stop offset="1" stop-color="#90b83a"/></linearGradient><linearGradient id="linear-gradient-18" x1="-427.46" y1="-1011.36" x2="-427.46" y2="-1011.21" gradientTransform="matrix(52, 0, 0, -21, 22303, -21128.5)" gradientUnits="userSpaceOnUse"><stop offset="0" stop-color="#87b736"/><stop offset="1" stop-color="#90b83b"/></linearGradient><linearGradient id="linear-gradient-19" x1="75" y1="-3100.94" x2="75" y2="-3088.42" gradientTransform="matrix(1, 0, 0, -1, 0, -2990.5)" gradientUnits="userSpaceOnUse"><stop offset="0" stop-color="#89b739"/><stop offset="1" stop-color="#90b83c"/></linearGradient><linearGradient id="linear-gradient-20" x1="75.5" y1="-3101.45" x2="75.5" y2="-3089.86" gradientTransform="matrix(1, 0, 0, -1, 0, -2990.5)" gradientUnits="userSpaceOnUse"><stop offset="0" stop-color="#8cb73b"/><stop offset="1" stop-color="#91b83d"/></linearGradient><linearGradient id="linear-gradient-21" x1="-432.28" y1="-990.59" x2="-432.28" y2="-990.44" gradientTransform="matrix(41, 0, 0, -17, 17799, -16728.5)" gradientUnits="userSpaceOnUse"><stop offset="0" stop-color="#8eb73e"/><stop offset="1" stop-color="#91b73f"/></linearGradient><linearGradient id="linear-gradient-22" x1="75" y1="-3035.64" x2="75.01" y2="-3103.18" gradientTransform="matrix(1, 0, 0, -1, 0, -2990.5)" gradientUnits="userSpaceOnUse"><stop offset="0" stop-color="#317100"/><stop offset="1" stop-color="#4eb300"/></linearGradient></defs><title>social</title><g id="Layer_2" data-name="Layer 2"><g id="Layer_1-2" data-name="Layer 1"><g id="Layer_1-3" data-name="Layer_1"><g id="_919046240" data-name=" 919046240"><rect class="cls-2" x="2" y="7" width="146" height="146" rx="31" ry="31"/><rect class="cls-3" x="2" width="146" height="146" rx="31" ry="31"/><rect class="cls-4" x="5" y="3" width="141" height="141" rx="30" ry="30"/><rect class="cls-5" x="5" y="3" width="140" height="140" rx="30" ry="30"/><rect class="cls-2" x="10" y="7" width="131" height="131" rx="28" ry="28"/><rect class="cls-6" x="18" y="16" width="115" height="115" rx="24" ry="24"/><rect class="cls-7" x="19" y="17" width="112" height="112" rx="24" ry="24"/><polygon class="cls-8" points="87 124 102 121 95 117 82 119 72 121 87 124"/><path class="cls-9" d="M107,18a24,24,0,0,1,24,22L75,73,24,29c-3,3-4,8-4,12L75,73,29,23a23.89,23.89,0,0,1,14-5L75,73Z"/><path class="cls-8" d="M47,22h56a20.35,20.35,0,0,1,15,6,22,22,0,0,1,6,15V99a20.35,20.35,0,0,1-6,15c-4,4-9,7-15,7H47c-5,0-11-3-15-7a20.35,20.35,0,0,1-6-15V43a22,22,0,0,1,6-15A22,22,0,0,1,47,22Zm56,2H47a23.89,23.89,0,0,0-14,5,23.89,23.89,0,0,0-5,14V99c0,6,2,11,5,14a19.74,19.74,0,0,0,14,6h56c6,0,10-2,14-6,4-3,6-8,6-14V43a19.74,19.74,0,0,0-6-14C113,26,109,24,103,24Z"/><path class="cls-10" d="M47,23h56c11,0,21,9,21,20V99c0,11-10,21-21,21H47c-11,0-20-10-20-21V43A20.06,20.06,0,0,1,47,23Z"/><g class="cls-11"><path id="_1" data-name="1" class="cls-12" d="M75,95c31,0,57,10,57,22,0,13-26,23-57,23s-56-10-56-23C19,105,44,95,75,95Z"/><path class="cls-13" d="M75,95c30,0,55,10,55,22s-25,22-55,22-54-10-54-22S45,95,75,95Z"/><path class="cls-14" d="M75,96c29,0,53,10,53,21,0,12-24,22-53,22s-53-10-53-22C22,106,46,96,75,96Z"/><path class="cls-15" d="M75,97c28,0,51,9,51,20,0,12-23,21-51,21s-51-9-51-21C24,106,47,97,75,97Z"/><path class="cls-16" d="M75,98c27,0,49,8,49,19s-22,20-49,20-49-9-49-20S48,98,75,98Z"/><path class="cls-17" d="M75,98c26,0,48,9,48,19,0,11-22,19-48,19s-47-8-47-19C28,107,49,98,75,98Z"/><path class="cls-18" d="M75,99c25,0,46,8,46,18s-21,19-46,19-45-9-45-19S50,99,75,99Z"/><path class="cls-19" d="M75,100c24,0,44,8,44,17,0,10-20,18-44,18s-44-8-44-18C31,108,51,100,75,100Z"/><path class="cls-20" d="M75,100c23,0,42,8,42,17,0,10-19,17-42,17s-42-7-42-17C33,108,52,100,75,100Z"/><path class="cls-21" d="M75,101c22,0,40,7,40,16s-18,17-40,17-40-8-40-17S53,101,75,101Z"/><path class="cls-22" d="M75,102c21,0,39,7,39,15,0,9-18,16-39,16s-38-7-38-16C37,109,54,102,75,102Z"/><path class="cls-23" d="M75,103c20,0,37,6,37,14s-17,15-37,15-36-7-36-15S55,103,75,103Z"/><path class="cls-24" d="M75,103c19,0,35,7,35,14,0,8-16,14-35,14s-35-6-35-14C40,110,56,103,75,103Z"/><path class="cls-25" d="M75,104c19,0,33,6,33,13,0,8-14,14-33,14-18,0-33-6-33-14C42,110,57,104,75,104Z"/><path class="cls-26" d="M75,105c18,0,32,5,32,12s-14,13-32,13c-17,0-31-6-31-13S58,105,75,105Z"/><path class="cls-27" d="M75,105c17,0,30,6,30,12,0,7-13,12-30,12-16,0-29-5-29-12C46,111,59,105,75,105Z"/><path class="cls-28" d="M75,106c16,0,28,5,28,11s-12,11-28,11c-15,0-27-5-27-11S60,106,75,106Z"/><path class="cls-29" d="M75,107c15,0,26,5,26,10,0,6-11,11-26,11-14,0-26-5-26-11C49,112,61,107,75,107Z"/><path class="cls-30" d="M75,108c14,0,24,4,24,9,0,6-10,10-24,10-13,0-24-4-24-10C51,112,62,108,75,108Z"/><path class="cls-31" d="M75,108c13,0,23,4,23,9s-10,9-23,9c-12,0-22-4-22-9S63,108,75,108Z"/><path class="cls-32" d="M75,109c12,0,21,4,21,8,0,5-9,9-21,9-11,0-20-4-20-9C55,113,64,109,75,109Z"/><ellipse class="cls-33" cx="75" cy="117" rx="19" ry="8"/></g><path class="cls-1" d="M47,23h56c11,0,21,9,21,20V99c0,11-10,21-21,21H47c-11,0-20-10-20-21V43A20.06,20.06,0,0,1,47,23Z"/><polygon class="cls-8" points="24 48 27 44 28 48 32 47 40 44 34 49 27 51 27 55 24 51 20 51 24 48"/><path class="cls-34" d="M49,25H70A104.55,104.55,0,0,0,51,42,152.58,152.58,0,0,0,35,31C38,27,43,25,49,25Zm24,0h29a20.06,20.06,0,0,1,20,20V58a216.9,216.9,0,0,0-48,6A152.74,152.74,0,0,0,56,46l-3-3C58,37,65,30,73,25ZM72,64c-3,1-6,2-9,2Q45,72,30,78c6-12,12-23,21-33V44a13.8,13.8,0,0,0,4,3A136.5,136.5,0,0,1,72,64ZM29,76V45c0-5,2-9,4-13,6,4,12,7,17,11l-1,1A155,155,0,0,0,29,76Z"/><polygon class="cls-35" points="87 123 102 120 95 116 82 118 73 121 87 123"/><polygon class="cls-35" points="24 47 27 43 28 47 32 46 40 44 34 48 27 50 27 54 24 50 20 51 24 47"/><polygon class="cls-2" points="0 89 2 89 2 103 0 101 0 89"/><path class="cls-2" d="M8,49c12,0,22,10,22,23A22.2,22.2,0,0,1,8,94c-3,0-6,0-8-1V50C2,50,5,49,8,49Z"/><path class="cls-3" d="M8,46A22.2,22.2,0,0,1,30,68C30,80,20,91,8,91a18.84,18.84,0,0,1-8-2V49l4-3H8Z"/><path class="cls-4" d="M8,46A22.2,22.2,0,0,1,30,68C30,80,20,91,8,91a18.84,18.84,0,0,1-8-2V88a18.84,18.84,0,0,0,8,2A22,22,0,0,0,8,46c-2,0-3,0-4,1H4L0,50V49l4-3H8Z"/><path class="cls-4" d="M5,90H4V46H5Z"/><polygon class="cls-5" points="0 89 0 87 0 49 4 46 4 90 0 93 0 89"/><polygon class="cls-2" points="2 92 1 96 5 93 2 92"/><polygon class="cls-4" points="0 92 0 93 4 90 4 89 0 92"/><polygon class="cls-4" points="0 49 0 50 4 47 4 46 0 49"/><polygon class="cls-2" points="151 89 148 89 148 103 151 101 151 89"/><path class="cls-2" d="M143,49a22.63,22.63,0,0,0-23,23c0,12,10,22,23,22a22,22,0,0,0,8-1V50C148,50,146,49,143,49Z"/><path class="cls-3" d="M143,46c-13,0-23,10-23,22a23.26,23.26,0,0,0,23,23c3,0,5-1,8-2V49l-4-3h-4Z"/><path class="cls-4" d="M143,46c-13,0-23,10-23,22a23.26,23.26,0,0,0,23,23c3,0,5-1,8-2V88c-3,1-5,2-8,2a22,22,0,0,1,0-44c1,0,3,0,4,1h0l4,3V49l-4-3h-4Z"/><path class="cls-4" d="M146,90h1V46h-1Z"/><polygon class="cls-5" points="151 89 151 87 151 49 147 46 147 90 151 93 151 89"/><polygon class="cls-2" points="148 92 149 96 145 93 148 92"/><polygon class="cls-4" points="151 92 151 93 147 90 147 89 151 92"/><polygon class="cls-4" points="151 49 151 50 147 47 147 46 151 49"/><path class="cls-8" d="M57,64a11.35,11.35,0,0,1,8,3l18-9V55A10,10,0,0,1,93,45c6,0,11,5,11,10,0,6-5,10-11,10a9.08,9.08,0,0,1-7-3L68,71v4l18,9c2-1,4-3,7-3,6,0,11,5,11,10,0,6-5,10-11,10S83,97,83,91V89L65,80c-2,2-5,4-8,4-6,0-11-5-11-10C46,68,51,64,57,64Z"/><path class="cls-6" d="M57,59a11.35,11.35,0,0,1,8,3l18-9V51c0-6,4-10,10-10s11,4,11,10v4h-1c-2,3-5,6-10,6-3,0-5-2-7-3L68,67v4l18,9a9.08,9.08,0,0,1,7-3c6,0,11,4,11,10v4h-1a11,11,0,0,1-10,6A10,10,0,0,1,83,87V85L65,76a11.35,11.35,0,0,1-8,3,11,11,0,0,1-10-6H46V69C46,63,51,59,57,59Z"/><path class="cls-36" d="M57,63a11.35,11.35,0,0,1,8,3l18-9V54A10,10,0,0,1,93,44c6,0,11,5,11,10,0,6-5,10-11,10a9.08,9.08,0,0,1-7-3L68,70v4l18,9c2-1,4-3,7-3,6,0,11,5,11,10,0,6-5,10-11,10S83,96,83,90V88L65,79c-2,2-5,4-8,4-6,0-11-5-11-10C46,67,51,63,57,63Z"/></g></g></g></g></svg>