<svg xmlns="http://www.w3.org/2000/svg" xmlns:xlink="http://www.w3.org/1999/xlink" viewBox="0 0 150 152"><defs><style>.cls-1{fill:none;}.cls-2{fill:#53381d;}.cls-3{fill:#963;}.cls-4{fill:#ca9560;}.cls-5{fill:#af753b;}.cls-6{fill:#254c05;}.cls-7{fill:url(#radial-gradient);}.cls-8{fill:#7cd637;}.cls-34,.cls-9{fill:#fff;}.cls-9{fill-opacity:0.2;}.cls-10{fill:url(#radial-gradient-2);}.cls-11{clip-path:url(#clip-path);}.cls-12{fill-opacity:0;fill:url(#linear-gradient);}.cls-13{fill-opacity:0.05;fill:url(#linear-gradient-2);}.cls-14{fill-opacity:0.09;fill:url(#linear-gradient-3);}.cls-15{fill-opacity:0.14;fill:url(#linear-gradient-4);}.cls-16{fill-opacity:0.19;fill:url(#linear-gradient-5);}.cls-17{fill-opacity:0.24;fill:url(#linear-gradient-6);}.cls-18{fill-opacity:0.29;fill:url(#linear-gradient-7);}.cls-19{fill-opacity:0.33;fill:url(#linear-gradient-8);}.cls-20{fill-opacity:0.38;fill:url(#linear-gradient-9);}.cls-21{fill-opacity:0.43;fill:url(#linear-gradient-10);}.cls-22{fill-opacity:0.47;fill:url(#linear-gradient-11);}.cls-23{fill-opacity:0.53;fill:url(#linear-gradient-12);}.cls-24{fill-opacity:0.57;fill:url(#linear-gradient-13);}.cls-25{fill-opacity:0.62;fill:url(#linear-gradient-14);}.cls-26{fill-opacity:0.67;fill:url(#linear-gradient-15);}.cls-27{fill-opacity:0.71;fill:url(#linear-gradient-16);}.cls-28{fill-opacity:0.76;fill:url(#linear-gradient-17);}.cls-29{fill-opacity:0.81;fill:url(#linear-gradient-18);}.cls-30{fill-opacity:0.86;fill:url(#linear-gradient-19);}.cls-31{fill-opacity:0.91;fill:url(#linear-gradient-20);}.cls-32{fill-opacity:0.95;fill:url(#linear-gradient-21);}.cls-33{fill:#91b740;}.cls-34{fill-opacity:0.3;}.cls-35{fill:#336b05;}.cls-36{fill:url(#linear-gradient-22);}</style><radialGradient id="radial-gradient" cx="-674.95" cy="-3484.6" r="46.99" gradientTransform="matrix(0, 1.1, 1.44, -0.01, 5086.08, 797.82)" gradientUnits="userSpaceOnUse"><stop offset="0" stop-color="#5ab70e"/><stop offset="0.85" stop-color="#469109"/><stop offset="1" stop-color="#336b05"/></radialGradient><radialGradient id="radial-gradient-2" cx="75" cy="-979.26" r="48.47" gradientTransform="matrix(1, 0, 0, -1, -0.01, -908.5)" gradientUnits="userSpaceOnUse"><stop offset="0" stop-color="#8dbd25"/><stop offset="1" stop-color="#5ab70e"/></radialGradient><clipPath id="clip-path"><path class="cls-1" d="M47,22h56c11,0,20,10,20,21V99a20.06,20.06,0,0,1-20,20H47A20.06,20.06,0,0,1,27,99V43C27,32,36,22,47,22Z"/></clipPath><linearGradient id="linear-gradient" x1="534.16" y1="-17.45" x2="534.16" y2="-17.3" gradientTransform="matrix(112, 0, 0, -45, -59751, -684.5)" gradientUnits="userSpaceOnUse"><stop offset="0" stop-color="#5ab70e"/><stop offset="1" stop-color="#8dbd25"/></linearGradient><linearGradient id="linear-gradient-2" x1="534.01" y1="-16.51" x2="534.01" y2="-16.36" gradientTransform="matrix(110, 0, 0, -44, -58666, -625)" gradientUnits="userSpaceOnUse"><stop offset="0" stop-color="#5db710"/><stop offset="1" stop-color="#8dbd26"/></linearGradient><linearGradient id="linear-gradient-3" x1="75" y1="-1010.21" x2="75" y2="-982.79" gradientTransform="matrix(1, 0, 0, -1, 0, -908.5)" gradientUnits="userSpaceOnUse"><stop offset="0" stop-color="#5fb713"/><stop offset="1" stop-color="#8dbc28"/></linearGradient><linearGradient id="linear-gradient-4" x1="75" y1="-1010.72" x2="75" y2="-984.23" gradientTransform="matrix(1, 0, 0, -1, 0, -908.5)" gradientUnits="userSpaceOnUse"><stop offset="0" stop-color="#62b715"/><stop offset="1" stop-color="#8ebc29"/></linearGradient><linearGradient id="linear-gradient-5" x1="75" y1="-1011.24" x2="75" y2="-985.67" gradientTransform="matrix(1, 0, 0, -1, 0, -908.5)" gradientUnits="userSpaceOnUse"><stop offset="0" stop-color="#64b718"/><stop offset="1" stop-color="#8ebc2a"/></linearGradient><linearGradient id="linear-gradient-6" x1="75" y1="-1011.75" x2="75" y2="-987.12" gradientTransform="matrix(1, 0, 0, -1, 0, -908.5)" gradientUnits="userSpaceOnUse"><stop offset="0" stop-color="#67b71a"/><stop offset="1" stop-color="#8ebc2b"/></linearGradient><linearGradient id="linear-gradient-7" x1="75" y1="-1012.26" x2="75" y2="-988.56" gradientTransform="matrix(1, 0, 0, -1, 0, -908.5)" gradientUnits="userSpaceOnUse"><stop offset="0" stop-color="#6ab71c"/><stop offset="1" stop-color="#8ebb2d"/></linearGradient><linearGradient id="linear-gradient-8" x1="75" y1="-1012.77" x2="75" y2="-990" gradientTransform="matrix(1, 0, 0, -1, 0, -908.5)" gradientUnits="userSpaceOnUse"><stop offset="0" stop-color="#6cb71f"/><stop offset="1" stop-color="#8ebb2e"/></linearGradient><linearGradient id="linear-gradient-9" x1="75" y1="-1013.28" x2="75" y2="-991.45" gradientTransform="matrix(1, 0, 0, -1, 0, -908.5)" gradientUnits="userSpaceOnUse"><stop offset="0" stop-color="#6fb721"/><stop offset="1" stop-color="#8fbb2f"/></linearGradient><linearGradient id="linear-gradient-10" x1="75" y1="-1013.79" x2="75" y2="-992.89" gradientTransform="matrix(1, 0, 0, -1, 0, -908.5)" gradientUnits="userSpaceOnUse"><stop offset="0" stop-color="#72b723"/><stop offset="1" stop-color="#8fba31"/></linearGradient><linearGradient id="linear-gradient-11" x1="75" y1="-1014.31" x2="75" y2="-994.33" gradientTransform="matrix(1, 0, 0, -1, 0, -908.5)" gradientUnits="userSpaceOnUse"><stop offset="0" stop-color="#74b726"/><stop offset="1" stop-color="#8fba32"/></linearGradient><linearGradient id="linear-gradient-12" x1="75" y1="-1014.82" x2="75" y2="-995.78" gradientTransform="matrix(1, 0, 0, -1, 0, -908.5)" gradientUnits="userSpaceOnUse"><stop offset="0" stop-color="#77b728"/><stop offset="1" stop-color="#8fba33"/></linearGradient><linearGradient id="linear-gradient-13" x1="75" y1="-1015.33" x2="75" y2="-997.22" gradientTransform="matrix(1, 0, 0, -1, 0, -908.5)" gradientUnits="userSpaceOnUse"><stop offset="0" stop-color="#79b72b"/><stop offset="1" stop-color="#8fba34"/></linearGradient><linearGradient id="linear-gradient-14" x1="75" y1="-1015.84" x2="75" y2="-998.66" gradientTransform="matrix(1, 0, 0, -1, 0, -908.5)" gradientUnits="userSpaceOnUse"><stop offset="0" stop-color="#7cb72d"/><stop offset="1" stop-color="#8fb936"/></linearGradient><linearGradient id="linear-gradient-15" x1="75" y1="-1016.35" x2="75" y2="-1000.11" gradientTransform="matrix(1, 0, 0, -1, 0, -908.5)" gradientUnits="userSpaceOnUse"><stop offset="0" stop-color="#7fb72f"/><stop offset="1" stop-color="#90b937"/></linearGradient><linearGradient id="linear-gradient-16" x1="75.5" y1="-1016.86" x2="75.5" y2="-1001.55" gradientTransform="matrix(1, 0, 0, -1, 0, -908.5)" gradientUnits="userSpaceOnUse"><stop offset="0" stop-color="#81b732"/><stop offset="1" stop-color="#90b938"/></linearGradient><linearGradient id="linear-gradient-17" x1="75" y1="-1017.37" x2="75" y2="-1002.99" gradientTransform="matrix(1, 0, 0, -1, 0, -908.5)" gradientUnits="userSpaceOnUse"><stop offset="0" stop-color="#84b734"/><stop offset="1" stop-color="#90b83a"/></linearGradient><linearGradient id="linear-gradient-18" x1="75" y1="-1017.89" x2="75" y2="-1004.43" gradientTransform="matrix(1, 0, 0, -1, 0, -908.5)" gradientUnits="userSpaceOnUse"><stop offset="0" stop-color="#87b736"/><stop offset="1" stop-color="#90b83b"/></linearGradient><linearGradient id="linear-gradient-19" x1="75" y1="-1018.4" x2="75" y2="-1005.88" gradientTransform="matrix(1, 0, 0, -1, 0, -908.5)" gradientUnits="userSpaceOnUse"><stop offset="0" stop-color="#89b739"/><stop offset="1" stop-color="#90b83c"/></linearGradient><linearGradient id="linear-gradient-20" x1="75" y1="-1018.91" x2="75" y2="-1007.32" gradientTransform="matrix(1, 0, 0, -1, 0, -908.5)" gradientUnits="userSpaceOnUse"><stop offset="0" stop-color="#8cb73b"/><stop offset="1" stop-color="#91b83d"/></linearGradient><linearGradient id="linear-gradient-21" x1="75.5" y1="-1019.42" x2="75.5" y2="-1008.76" gradientTransform="matrix(1, 0, 0, -1, 0, -908.5)" gradientUnits="userSpaceOnUse"><stop offset="0" stop-color="#8eb73e"/><stop offset="1" stop-color="#91b73f"/></linearGradient><linearGradient id="linear-gradient-22" x1="75.5" y1="-949.66" x2="75.5" y2="-1021.75" gradientTransform="matrix(1, 0, 0, -1, 0, -908.5)" gradientUnits="userSpaceOnUse"><stop offset="0" stop-color="#317100"/><stop offset="1" stop-color="#4eb300"/></linearGradient></defs><title>upload</title><g id="Layer_2" data-name="Layer 2"><g id="Layer_1-2" data-name="Layer 1"><g id="Layer_1-3" data-name="Layer_1"><g id="_930810048" data-name=" 930810048"><rect class="cls-2" x="2" y="6" width="146" height="146" rx="31" ry="31"/><rect class="cls-3" x="2" width="146" height="146" rx="31" ry="31"/><rect class="cls-4" x="4" y="2" width="141" height="141" rx="30" ry="30"/><rect class="cls-5" x="5" y="3" width="140" height="140" rx="30" ry="30"/><rect class="cls-2" x="9" y="7" width="131" height="131" rx="28" ry="28"/><rect class="cls-6" x="18" y="15" width="115" height="115" rx="24" ry="24"/><rect class="cls-7" x="19" y="17" width="112" height="112" rx="24" ry="24"/><polygon class="cls-8" points="87 124 102 120 94 116 82 118 72 120 87 124"/><path class="cls-9" d="M107,17c12,0,22,10,23,22L75,73,23,28a27.68,27.68,0,0,0-3,13L75,73,28,23a22,22,0,0,1,15-6L75,73Z"/><path class="cls-8" d="M47,22h56a20.51,20.51,0,0,1,21,21V99a20.51,20.51,0,0,1-21,21H47A20.51,20.51,0,0,1,26,99V43A20.51,20.51,0,0,1,47,22Zm56,1H47a19.74,19.74,0,0,0-14,6c-3,4-6,8-6,14V99c0,5,3,10,6,14a23.89,23.89,0,0,0,14,5h56a23.89,23.89,0,0,0,14-5c3-4,6-9,6-14V43c0-6-3-10-6-14A19.74,19.74,0,0,0,103,23Z"/><path class="cls-10" d="M47,22h56c11,0,20,10,20,21V99a20.06,20.06,0,0,1-20,20H47A20.06,20.06,0,0,1,27,99V43C27,32,36,22,47,22Z"/><g class="cls-11"><path id="_1" data-name="1" class="cls-12" d="M75,94c31,0,56,10,56,23,0,12-25,22-56,22s-56-10-56-22C19,104,44,94,75,94Z"/><path class="cls-13" d="M75,95c30,0,55,10,55,22s-25,22-55,22-55-10-55-22S45,95,75,95Z"/><path class="cls-14" d="M75,96c29,0,53,9,53,21s-24,21-53,21-53-9-53-21S46,96,75,96Z"/><path class="cls-15" d="M75,96c28,0,51,9,51,21,0,11-23,20-51,20s-51-9-51-20C24,105,47,96,75,96Z"/><path class="cls-16" d="M75,97c27,0,49,9,49,20s-22,20-49,20-49-9-49-20S48,97,75,97Z"/><path class="cls-17" d="M75,98c26,0,47,8,47,19,0,10-21,19-47,19s-47-9-47-19C28,106,49,98,75,98Z"/><path class="cls-18" d="M75,98c25,0,46,9,46,19s-21,18-46,18-46-8-46-18S50,98,75,98Z"/><path class="cls-19" d="M75,99c24,0,44,8,44,18s-20,17-44,17-44-7-44-17S51,99,75,99Z"/><path class="cls-20" d="M75,100c23,0,42,7,42,17,0,9-19,17-42,17s-42-8-42-17C33,107,52,100,75,100Z"/><path class="cls-21" d="M75,101c22,0,40,7,40,16s-18,16-40,16-40-7-40-16S53,101,75,101Z"/><path class="cls-22" d="M75,101c21,0,38,7,38,16,0,8-17,15-38,15s-38-7-38-15C37,108,54,101,75,101Z"/><path class="cls-23" d="M75,102c20,0,37,7,37,15s-17,15-37,15-37-7-37-15S55,102,75,102Z"/><path class="cls-24" d="M75,103c19,0,35,6,35,14s-16,14-35,14-35-6-35-14S56,103,75,103Z"/><path class="cls-25" d="M75,103c18,0,33,6,33,14,0,7-15,13-33,13s-33-6-33-13C42,109,57,103,75,103Z"/><path class="cls-26" d="M75,104c17,0,31,6,31,13s-14,12-31,12-31-5-31-12S58,104,75,104Z"/><path class="cls-27" d="M75,105c16,0,30,5,30,12,0,6-14,12-30,12s-29-6-29-12C46,110,59,105,75,105Z"/><path class="cls-28" d="M75,106c15,0,28,5,28,11s-13,11-28,11-28-5-28-11S60,106,75,106Z"/><path class="cls-29" d="M75,106c14,0,26,5,26,11s-12,10-26,10-26-4-26-10S61,106,75,106Z"/><path class="cls-30" d="M75,107c13,0,24,4,24,10,0,5-11,9-24,9s-24-4-24-9C51,111,62,107,75,107Z"/><path class="cls-31" d="M75,108c12,0,22,4,22,9s-10,9-22,9-22-4-22-9S63,108,75,108Z"/><path class="cls-32" d="M75,109c11,0,21,3,21,8,0,4-10,8-21,8s-20-4-20-8C55,112,64,109,75,109Z"/><ellipse class="cls-33" cx="75" cy="117" rx="19" ry="8"/></g><path class="cls-1" d="M47,22h56c11,0,20,10,20,21V99a20.06,20.06,0,0,1-20,20H47A20.06,20.06,0,0,1,27,99V43C27,32,36,22,47,22Z"/><polygon class="cls-8" points="24 47 26 43 28 47 32 47 40 43 34 49 27 50 26 54 24 50 20 51 24 47"/><path class="cls-34" d="M48,24H69c-7,6-13,11-18,17-5-4-11-7-17-11C38,27,43,24,48,24Zm25,0h29c11,0,19,9,19,20V57c-14,0-30,2-47,6L56,45c-2-1-3-2-4-2C58,36,65,30,73,24ZM72,63l-9,3A160.73,160.73,0,0,0,30,78,138.46,138.46,0,0,1,50,45l1-1,3,3C61,52,66,57,72,63ZM29,76V44c0-5,1-9,4-12,6,3,11,7,17,11H49A138.46,138.46,0,0,0,29,76Z"/><polygon class="cls-35" points="87 123 102 119 94 116 82 117 73 120 87 123"/><polygon class="cls-35" points="24 46 26 42 28 46 32 46 40 43 34 48 27 49 26 53 24 49 20 51 24 46"/><polygon class="cls-2" points="0 89 2 89 2 102 0 100 0 89"/><path class="cls-2" d="M8,49A22,22,0,0,1,8,93c-3,0-6,0-8-1V50C2,49,5,49,8,49Z"/><path class="cls-3" d="M8,45A22.2,22.2,0,0,1,30,67C30,80,20,90,8,90c-3,0-6-1-8-1V48l4-3H8Z"/><path class="cls-4" d="M8,45A22.2,22.2,0,0,1,30,67C30,80,20,90,8,90c-3,0-6-1-8-1V88c2,1,5,1,7,1,13,0,22-9,22-21,0-13-9-22-22-22H3L0,49V48l4-3H8Z"/><path class="cls-4" d="M4,90H3V45H4Z"/><polygon class="cls-5" points="0 89 0 86 0 48 4 45 4 90 0 93 0 89"/><polygon class="cls-2" points="2 92 1 96 5 93 2 92"/><polygon class="cls-4" points="0 92 0 93 4 90 4 89 0 92"/><polygon class="cls-4" points="0 48 0 49 4 46 4 45 0 48"/><polygon class="cls-2" points="150 89 148 89 148 102 150 100 150 89"/><path class="cls-2" d="M143,49c-13,0-23,10-23,22s10,22,23,22c2,0,5,0,7-1V50C148,49,145,49,143,49Z"/><path class="cls-3" d="M143,45c-13,0-23,10-23,22a22.63,22.63,0,0,0,23,23c2,0,5-1,7-1V48l-3-3h-4Z"/><path class="cls-4" d="M143,45c-13,0-23,10-23,22a22.63,22.63,0,0,0,23,23c2,0,5-1,7-1V88c-2,1-5,1-7,1-12,0-22-9-22-21,0-13,10-22,22-22h4l3,3V48l-3-3h-4Z"/><path class="cls-4" d="M146,90h1V45h-1Z"/><polygon class="cls-5" points="150 89 150 86 150 48 147 45 147 90 150 93 150 89"/><polygon class="cls-2" points="148 92 149 96 145 93 148 92"/><polygon class="cls-4" points="150 92 150 93 147 90 147 89 150 92"/><polygon class="cls-4" points="150 48 150 49 147 46 147 45 150 48"/><path class="cls-8" d="M52,68c-1,2-1,4,4,4H67V82c0,3,3,5,5,5h4a4.72,4.72,0,0,0,5-5V72H94q4.5,0,3-3L76,42a3,3,0,0,0-4,0Zm48,14V79c0-1-2-2-3-2H91a2.15,2.15,0,0,0-2,2V90H62V79c0-1-2-2-3-2H53a2.15,2.15,0,0,0-2,2V96a4.72,4.72,0,0,0,5,5H94c3,0,6-2,6-5h0V82ZM51,96Z"/><path class="cls-6" d="M52,63v7H67v8c0,2,3,5,5,5h4c3,0,5-3,5-5V70H97V64L76,37c-1-1-3-1-4,1Zm48,14V74c0-1-2-2-3-2H91a2.15,2.15,0,0,0-2,2V87H62V74c0-1-2-2-3-2H53a2.15,2.15,0,0,0-2,2V91a4.72,4.72,0,0,0,5,5H94c3,0,6-2,6-5h0V77ZM51,91Z"/><path class="cls-36" d="M52,67c-1,2-1,4,4,4H67V81c0,3,3,5,5,5h4a4.72,4.72,0,0,0,5-5V71H94q4.5,0,3-3L76,41a3,3,0,0,0-4,0Zm48,14V78c0-1-2-2-3-2H91a2.15,2.15,0,0,0-2,2V89H62V78c0-1-2-2-3-2H53a2.15,2.15,0,0,0-2,2V95a4.72,4.72,0,0,0,5,5H94c3,0,6-2,6-5h0V81ZM51,95Z"/></g></g></g></g></svg>